<svg version="1.1" id="Layer_1" xmlns="http://www.w3.org/2000/svg" xmlns:xlink="http://www.w3.org/1999/xlink" x="0px" y="0px"
	 width="100%" viewBox="0 0 248 204" enable-background="new 0 0 248 204" xml:space="preserve">
<path fill="#FEFEFF" opacity="1.000000" stroke="none" 
	d="
M147.000000,205.000000 
	C98.000000,205.000000 49.500008,205.000000 1.000006,205.000000 
	C1.000004,137.000000 1.000004,69.000015 1.000002,1.000016 
	C83.666656,1.000010 166.333313,1.000010 248.999969,1.000005 
	C248.999985,68.999985 248.999985,136.999969 249.000000,204.999969 
	C215.166672,205.000000 181.333328,205.000000 147.000000,205.000000 
M238.858658,7.712645 
	C231.465332,10.998363 224.205383,14.658332 216.606216,17.366467 
	C213.952377,18.312231 209.424789,18.077971 207.525726,16.389105 
	C196.774200,6.827645 184.721588,2.058061 170.261246,3.715650 
	C166.882736,4.102929 163.257339,3.275947 160.060623,4.154345 
	C141.640289,9.215912 129.063446,20.866854 124.103371,39.368977 
	C122.013069,47.166264 122.353477,55.615173 121.517349,64.531487 
	C80.695221,61.514973 46.485798,43.905109 19.311583,12.228480 
	C8.870783,28.079727 8.154863,59.171860 33.069546,79.893738 
	C26.475538,78.091766 19.881531,76.289795 12.815037,74.358696 
	C10.873056,79.989693 13.116891,85.494698 15.048018,90.742004 
	C21.219872,107.512314 33.488174,117.843445 50.638584,122.677353 
	C50.618950,123.238319 50.599316,123.799286 50.579678,124.360252 
	C44.051643,124.864937 37.523605,125.369614 30.222221,125.934090 
	C38.725990,146.140991 53.997059,156.866959 76.581207,159.155609 
	C54.434872,175.314774 30.946043,182.855576 3.715816,180.118286 
	C16.319656,190.482498 44.790752,200.050232 67.499931,201.952393 
	C67.499931,201.952393 67.965538,201.868179 68.765686,202.032959 
	C69.849823,202.006821 70.933968,201.980698 72.938187,202.110413 
	C77.952087,202.058487 82.965981,202.006561 88.783020,202.104187 
	C89.865936,202.025513 90.948853,201.946838 92.496773,201.950470 
	C92.496773,201.950470 92.946770,201.807327 93.776016,201.881821 
	C109.249352,200.291321 124.449059,197.255737 138.489929,190.453110 
	C193.772598,163.669373 220.541290,118.501022 222.923203,57.955883 
	C223.068863,54.253300 223.756042,51.724640 226.780426,49.061283 
	C233.120972,43.477600 238.772400,37.106468 244.629547,30.984776 
	C245.394073,30.185715 245.703552,28.951288 246.593613,27.184412 
	C237.670670,29.912111 229.959122,33.354080 220.318848,33.359581 
	C230.174316,26.412760 236.955078,18.683186 240.700531,7.936803 
	C240.306549,7.774297 239.912552,7.611790 238.858658,7.712645 
z"/>
<path fill="#1D9BF0" opacity="1.000000" stroke="none" 
	d="
M72.018105,201.954559 
	C70.933968,201.980698 69.849823,202.006821 68.288811,201.800674 
	C67.556488,201.652359 67.301041,201.736328 67.045586,201.820282 
	C44.790752,200.050232 16.319656,190.482498 3.715816,180.118286 
	C30.946043,182.855576 54.434872,175.314774 76.581207,159.155609 
	C53.997059,156.866959 38.725990,146.140991 30.222221,125.934090 
	C37.523605,125.369614 44.051643,124.864937 50.579678,124.360252 
	C50.599316,123.799286 50.618950,123.238319 50.638584,122.677353 
	C33.488174,117.843445 21.219872,107.512314 15.048018,90.742004 
	C13.116891,85.494698 10.873056,79.989693 12.815037,74.358696 
	C19.881531,76.289795 26.475538,78.091766 33.069546,79.893738 
	C8.154863,59.171860 8.870783,28.079727 19.311583,12.228480 
	C46.485798,43.905109 80.695221,61.514973 121.517349,64.531487 
	C122.353477,55.615173 122.013069,47.166264 124.103371,39.368977 
	C129.063446,20.866854 141.640289,9.215912 160.060623,4.154345 
	C163.257339,3.275947 166.882736,4.102929 170.261246,3.715650 
	C184.721588,2.058061 196.774200,6.827645 207.525726,16.389105 
	C209.424789,18.077971 213.952377,18.312231 216.606216,17.366467 
	C224.205383,14.658332 231.465332,10.998363 239.371323,7.790152 
	C240.013641,7.999854 240.143280,8.132049 240.272934,8.264244 
	C236.955078,18.683186 230.174316,26.412760 220.318848,33.359581 
	C229.959122,33.354080 237.670670,29.912111 246.593613,27.184412 
	C245.703552,28.951288 245.394073,30.185715 244.629547,30.984776 
	C238.772400,37.106468 233.120972,43.477600 226.780426,49.061283 
	C223.756042,51.724640 223.068863,54.253300 222.923203,57.955883 
	C220.541290,118.501022 193.772598,163.669373 138.489929,190.453110 
	C124.449059,197.255737 109.249352,200.291321 93.269440,201.705368 
	C92.417816,201.352844 92.174118,201.465927 92.031769,201.868164 
	C90.948853,201.946838 89.865936,202.025513 88.086479,201.738922 
	C82.265991,201.567307 77.142052,201.760925 72.018105,201.954559 
z"/>
<path fill="#0095EF" opacity="1.000000" stroke="none" 
	d="
M72.478149,202.032486 
	C77.142052,201.760925 82.265991,201.567307 87.684906,201.664154 
	C82.965981,202.006561 77.952087,202.058487 72.478149,202.032486 
z"/>
<path fill="#1D9BF0" opacity="1.000000" stroke="none" 
	d="
M239.701279,7.658472 
	C239.912552,7.611790 240.306549,7.774297 240.486725,8.100524 
	C240.143280,8.132049 240.013641,7.999854 239.701279,7.658472 
z"/>
<path fill="#0095EF" opacity="1.000000" stroke="none" 
	d="
M67.272758,201.886353 
	C67.301041,201.736328 67.556488,201.652359 67.888733,201.718292 
	C67.965538,201.868179 67.499931,201.952393 67.272758,201.886353 
z"/>
<path fill="#0095EF" opacity="1.000000" stroke="none" 
	d="
M92.264267,201.909332 
	C92.174118,201.465927 92.417816,201.352844 92.854820,201.668121 
	C92.946770,201.807327 92.496773,201.950470 92.264267,201.909332 
z"/>
</svg>