<svg width="19" height="23" viewBox="0 0 19 23" fill="none" xmlns="http://www.w3.org/2000/svg">
<g opacity="0.3">
<path opacity="0.3" d="M13.2686 4.6778C12.7493 4.6773 12.2513 4.47075 11.884 4.1035C11.5168 3.73624 11.3103 3.23828 11.3098 2.7189V0H2.55644C1.87859 -4.68031e-08 1.2285 0.26921 0.749099 0.748432C0.269699 1.22765 0.000251895 1.87765 0 2.5555V17.9664C0.000755317 18.6439 0.270426 19.2934 0.749772 19.7722C1.22912 20.2511 1.87892 20.52 2.55644 20.52H13.0635C13.3992 20.5201 13.7318 20.4541 14.042 20.3257C14.3523 20.1973 14.6343 20.009 14.8717 19.7716C15.1092 19.5342 15.2976 19.2523 15.4262 18.9421C15.5547 18.6319 15.6208 18.2993 15.6208 17.9635V4.6778H13.2686Z" fill="#DDC3F5"/>
</g>
<path d="M15.6207 4.6778H13.2685C12.7491 4.6773 12.2511 4.47075 11.8839 4.1035C11.5166 3.73624 11.3101 3.23828 11.3096 2.7189V0L15.6207 4.6778Z" fill="#F2C94C"/>
<path d="M17.4743 16.207H5.59551C4.75289 16.207 4.06982 16.8901 4.06982 17.7327V21.2743C4.06982 22.1169 4.75289 22.8 5.59551 22.8H17.4743C18.3169 22.8 19 22.1169 19 21.2743V17.7327C19 16.8901 18.3169 16.207 17.4743 16.207Z" fill="#F2C94C"/>
<path d="M3.95611 10.848C3.95507 10.807 3.96779 10.7669 3.99223 10.734C4.02104 10.6969 4.0557 10.6649 4.09483 10.639C4.15402 10.6081 4.21528 10.5815 4.27818 10.5592L4.46152 10.4832L5.19492 10.1744C5.29688 10.1269 5.48688 10.0478 5.76492 9.93692L6.11358 9.79442L6.23897 9.74977L6.26082 9.74027C6.26676 9.73892 6.27294 9.73892 6.27888 9.74027C6.29292 9.73396 6.30814 9.73072 6.32353 9.73077C6.35295 9.72924 6.38236 9.73358 6.41009 9.74353C6.43781 9.75348 6.46329 9.76884 6.48503 9.78872C6.50315 9.80623 6.51761 9.82718 6.52756 9.85034C6.53751 9.8735 6.54276 9.89841 6.54299 9.92362V10.1649C6.54213 10.2098 6.5279 10.2535 6.50212 10.2903C6.47627 10.3318 6.43708 10.3633 6.39098 10.3796L4.89282 10.9924L6.39098 11.6051C6.43546 11.6233 6.47395 11.6536 6.50212 11.6925C6.52889 11.7277 6.54327 11.7708 6.54299 11.8151V12.0564C6.5424 12.1078 6.52157 12.157 6.48503 12.1932C6.46366 12.2137 6.43829 12.2296 6.41051 12.2399C6.38272 12.2502 6.35312 12.2547 6.32353 12.253C6.30825 12.2529 6.29312 12.25 6.27888 12.2445L6.23897 12.2312L6.11358 12.1865L5.76492 12.0431L5.19492 11.8065L4.46152 11.4978L4.27818 11.4218C4.21833 11.398 4.15753 11.3714 4.09483 11.341C4.05581 11.3229 4.02235 11.2947 3.99796 11.2593C3.97356 11.2238 3.9591 11.1825 3.95611 11.1396V10.848Z" fill="#F2C94C"/>
<path d="M6.95602 12.5117C6.8968 12.5137 6.83892 12.4938 6.79357 12.4556C6.77339 12.44 6.75701 12.42 6.74565 12.3971C6.7343 12.3742 6.72828 12.3491 6.72803 12.3236C6.72803 12.2875 6.83537 12.0386 7.05007 11.5636L7.36357 10.8748L7.43007 10.7314L7.93547 9.60941L8.11406 9.22086L8.15017 9.13156C8.16402 9.0986 8.18054 9.06682 8.19958 9.03656C8.22465 8.99542 8.2602 8.96169 8.3026 8.93882C8.345 8.91595 8.39273 8.90476 8.44088 8.90641H8.66412C8.72362 8.90438 8.78179 8.92433 8.82751 8.96246C8.84753 8.97819 8.86374 8.99823 8.87492 9.0211C8.88611 9.04396 8.89199 9.06906 8.89213 9.09451C8.81608 9.31603 8.72661 9.53271 8.62422 9.74336L8.57482 9.85071L8.19482 10.682L7.68942 11.8039L7.51083 12.1934L7.47471 12.2827C7.46194 12.3184 7.44571 12.3528 7.42626 12.3853C7.39935 12.4258 7.36275 12.4589 7.31978 12.4816C7.27681 12.5044 7.22884 12.516 7.18023 12.5155L6.95602 12.5117Z" fill="#F2C94C"/>
<path d="M9.30381 12.2567C9.27363 12.2586 9.24337 12.2542 9.21494 12.2439C9.1865 12.2336 9.16049 12.2176 9.13851 12.1968C9.12016 12.1791 9.10559 12.1578 9.09563 12.1343C9.08567 12.1108 9.08055 12.0855 9.08058 12.06V11.8187C9.08014 11.7749 9.09342 11.732 9.11857 11.6962C9.14699 11.6563 9.18669 11.6258 9.23256 11.6088L10.7345 10.996L9.23256 10.3833C9.18682 10.3631 9.1479 10.3301 9.12047 10.2883C9.09523 10.2519 9.08135 10.209 9.08058 10.1648V9.91965C9.0806 9.89424 9.08593 9.86911 9.09623 9.84588C9.10654 9.82265 9.12159 9.80183 9.14042 9.78476C9.18523 9.74485 9.24387 9.72406 9.30381 9.7268C9.31802 9.72645 9.33209 9.72972 9.34468 9.7363C9.35285 9.73487 9.36121 9.73487 9.36938 9.7363L9.38933 9.74581C9.38268 9.74581 9.42353 9.75721 9.50998 9.79046L9.86338 9.93296C9.84501 9.92472 10.035 10.0039 10.4334 10.1705C10.6506 10.2598 10.8995 10.3655 11.1801 10.4878C11.1981 10.4935 11.2219 10.503 11.2523 10.5144L11.3549 10.5552C11.415 10.5767 11.4732 10.6034 11.5287 10.635C11.5688 10.653 11.603 10.6819 11.6275 10.7183C11.652 10.7547 11.6658 10.7973 11.6674 10.8412V11.1357C11.667 11.1761 11.6537 11.2154 11.6294 11.2478C11.6031 11.2848 11.5687 11.3154 11.5287 11.3371C11.4755 11.3637 11.4109 11.3922 11.3387 11.4226L11.1487 11.4986L9.49381 12.1911C9.44631 12.2149 9.41782 12.2301 9.40927 12.2358L9.39123 12.2491L9.30381 12.2567Z" fill="#F2C94C"/>
<path d="M7.70254 18.4078V19.3303H8.94754V19.9828H7.70254V21.4003H6.85254V17.7578H9.19754V18.4078H7.70254Z" fill="#2B2E31"/>
<path d="M10.5346 21.4003H9.68457V17.7578H10.5346V21.4003Z" fill="#2B2E31"/>
<path d="M13.4323 20.7253V21.4003H11.2373V17.7578H12.0823V20.7253H13.4323Z" fill="#2B2E31"/>
<path d="M14.7143 18.4078V19.2578H15.8593V19.8828H14.7143V20.7503H16.2093V21.4003H13.8643V17.7578H16.2093V18.4078H14.7143Z" fill="#2B2E31"/>
</svg>
