<svg width="22" height="22" viewBox="0 0 22 22" fill="none" xmlns="http://www.w3.org/2000/svg">
<circle cx="11" cy="11" r="11" fill="white"/>
<ellipse cx="10.9999" cy="11.2211" rx="7.55556" ry="7.77778" fill="white"/>
<path d="M11.0001 3C6.58233 3 3 6.67232 3 11.2025C3 14.8266 5.29226 17.9013 8.47093 18.9859C8.87075 19.0618 9.01754 18.808 9.01754 18.5913C9.01754 18.3957 9.01012 17.7496 9.00667 17.0642C6.78105 17.5604 6.31141 16.0964 6.31141 16.0964C5.9475 15.1483 5.42315 14.8962 5.42315 14.8962C4.6973 14.3871 5.47786 14.3975 5.47786 14.3975C6.28121 14.4554 6.70421 15.2428 6.70421 15.2428C7.41774 16.4968 8.57572 16.1343 9.03224 15.9247C9.10404 15.3945 9.31137 15.0327 9.54016 14.8279C7.76324 14.6204 5.8953 13.9171 5.8953 10.7741C5.8953 9.8786 6.20782 9.14688 6.71958 8.57245C6.63651 8.36585 6.36268 7.53158 6.79708 6.40174C6.79708 6.40174 7.46887 6.18129 8.99766 7.24253C9.63581 7.06079 10.3202 6.96965 11.0001 6.96652C11.6799 6.96965 12.3649 7.06079 13.0042 7.24253C14.5311 6.18129 15.202 6.40174 15.202 6.40174C15.6375 7.53158 15.3635 8.36585 15.2804 8.57245C15.7934 9.14688 16.1038 9.8786 16.1038 10.7741C16.1038 13.9246 14.2323 14.6183 12.4508 14.8213C12.7378 15.0759 12.9935 15.5751 12.9935 16.3403C12.9935 17.4378 12.9842 18.3211 12.9842 18.5913C12.9842 18.8096 13.1282 19.0654 13.5337 18.9848C16.7107 17.899 19 14.8254 19 11.2025C19 6.67232 15.4182 3 11.0001 3Z" fill="#2B2E31"/>
</svg>
