<svg width="19" height="20" viewBox="0 0 19 20" fill="none" xmlns="http://www.w3.org/2000/svg">
<path d="M17.5666 0H14.4778V4.50004H18.9975V1.2689C18.9987 1.2689 18.7741 0.122717 17.5666 0Z" fill="#1967D2"/>
<path d="M14.48 19.0827V19.0937V19.1036L18.9997 14.6035H18.9592L14.48 19.0827Z" fill="#1967D2"/>
<path d="M18.9995 14.6069V14.5664L18.959 14.6069H18.9995Z" fill="#FBBC05"/>
<path d="M18.9997 4.50977H14.48V14.5726H18.9997V4.50977Z" fill="#FBBC05"/>
<path d="M18.9592 14.6035H14.48V19.0827L18.9592 14.6035Z" fill="#EA4335"/>
<path d="M14.48 14.6069H18.9592L18.9997 14.5664H14.48V14.6069Z" fill="#EA4335"/>
<path d="M14.4685 19.0944H14.479V19.084L14.4685 19.0944Z" fill="#34A853"/>
<path d="M4.41846 14.5664V19.0971H14.4702L14.4813 14.5664H4.41846Z" fill="#34A853"/>
<path d="M14.4795 14.6069V14.5664L14.4685 19.0971L14.4795 19.0861V14.6069Z" fill="#34A853"/>
<path d="M0 14.5664V17.7166C0.0404967 18.7388 1.14004 19.0971 1.14004 19.0971H4.41782V14.5664H0Z" fill="#188038"/>
<path d="M4.41782 4.50004H14.4806V0H1.26767C1.26767 0 0.0809934 0.122717 0 1.39039V14.5629H4.41782V4.50004Z" fill="#4285F4"/>
<path d="M7.7085 12.5198C7.47828 12.5198 7.25628 12.4897 7.04251 12.4294C6.83422 12.3691 6.64237 12.2786 6.46697 12.158C6.29156 12.032 6.13534 11.8757 5.99831 11.6894C5.86675 11.503 5.76535 11.2865 5.69409 11.0398L6.70541 10.637C6.77666 10.911 6.89725 11.1193 7.06718 11.2618C7.2371 11.3989 7.45087 11.4674 7.7085 11.4674C7.8236 11.4674 7.93323 11.4509 8.03738 11.4181C8.14152 11.3797 8.23197 11.3276 8.30871 11.2618C8.38545 11.1961 8.44574 11.1193 8.48959 11.0316C8.53892 10.9384 8.56359 10.8343 8.56359 10.7192C8.56359 10.478 8.47315 10.2889 8.29226 10.1519C8.11686 10.0148 7.87294 9.9463 7.5605 9.9463H7.0754V8.96788H7.51939C7.62902 8.96788 7.7359 8.95417 7.84005 8.92677C7.9442 8.89936 8.03464 8.85825 8.11138 8.80344C8.1936 8.74314 8.25663 8.66914 8.30048 8.58144C8.34982 8.48826 8.37448 8.38137 8.37448 8.26078C8.37448 8.07441 8.30871 7.92368 8.17715 7.80857C8.0456 7.68798 7.86746 7.62768 7.64272 7.62768C7.40154 7.62768 7.21517 7.69346 7.08362 7.82501C6.95755 7.95108 6.86985 8.0936 6.82051 8.25256L5.83387 7.84968C5.8832 7.71264 5.9572 7.57287 6.05586 7.43035C6.15453 7.28236 6.27786 7.1508 6.42585 7.03569C6.57933 6.9151 6.75748 6.81918 6.96029 6.74792C7.1631 6.67118 7.39606 6.63281 7.65916 6.63281C7.92775 6.63281 8.17167 6.67118 8.39093 6.74792C8.61566 6.82466 8.80751 6.93155 8.96647 7.06858C9.12543 7.20013 9.24876 7.35909 9.33646 7.54546C9.42417 7.72635 9.46802 7.92368 9.46802 8.13745C9.46802 8.30189 9.44609 8.44989 9.40224 8.58144C9.36387 8.71299 9.3118 8.83084 9.24602 8.93499C9.18024 9.03914 9.10351 9.12958 9.0158 9.20632C8.93358 9.27757 8.84862 9.33513 8.76092 9.37898V9.44476C9.02403 9.5489 9.24054 9.71608 9.41046 9.9463C9.58587 10.1765 9.67357 10.467 9.67357 10.8178C9.67357 11.0645 9.62698 11.292 9.53379 11.5003C9.44061 11.7031 9.30632 11.8812 9.13091 12.0347C8.96099 12.1882 8.75544 12.306 8.51426 12.3883C8.27308 12.476 8.00449 12.5198 7.7085 12.5198Z" fill="#4285F4"/>
<path d="M11.637 12.3883V8.03056L10.6422 8.44989L10.2475 7.53724L11.9001 6.76437H12.7141V12.3883H11.637Z" fill="#4285F4"/>
</svg>
