<svg width="45" height="45" viewBox="0 0 45 45" fill="none" xmlns="http://www.w3.org/2000/svg">
<g clip-path="url(#clip0_3359_103965)">
<path d="M45 22.5C45 34.9257 34.9257 45 22.5 45C10.0743 45 0 34.9257 0 22.5C0 10.0743 10.0743 0 22.5 0C34.9283 0 45 10.0743 45 22.5Z" fill="#2081E2"/>
<path d="M11.1005 23.2533L11.1976 23.1008L17.0507 13.9442C17.1363 13.8102 17.3374 13.824 17.4021 13.9697C18.3799 16.1611 19.2237 18.8866 18.8284 20.5834C18.6597 21.2815 18.1973 22.2269 17.6772 23.1008C17.6102 23.2279 17.5362 23.3528 17.4576 23.4729C17.4206 23.5284 17.3582 23.5608 17.2911 23.5608H11.2716C11.1097 23.5608 11.015 23.3851 11.1005 23.2533Z" fill="white"/>
<path d="M37.1892 24.9574V26.4069C37.1892 26.4901 37.1383 26.564 37.0644 26.5964C36.6113 26.7906 35.0602 27.5026 34.4152 28.3995C32.7693 30.6904 31.5118 33.966 28.7008 33.966H16.9737C12.8173 33.966 9.44922 30.5864 9.44922 26.4161V26.282C9.44922 26.1711 9.53935 26.0809 9.65032 26.0809H16.1877C16.3172 26.0809 16.4119 26.2011 16.4004 26.3282C16.3542 26.7536 16.4328 27.1882 16.6339 27.5835C17.0222 28.3718 17.8267 28.8642 18.6959 28.8642H21.9322V26.3375H18.7329C18.5687 26.3375 18.4717 26.1479 18.5664 26.0139C18.6011 25.9607 18.6404 25.9052 18.682 25.8428C18.9849 25.4128 19.4171 24.7448 19.8471 23.9842C20.1407 23.4711 20.425 22.9232 20.6539 22.373C20.7001 22.2736 20.7371 22.1719 20.7741 22.0725C20.8365 21.8968 20.9012 21.7327 20.9474 21.5685C20.9937 21.4298 21.0306 21.2842 21.0676 21.1478C21.1763 20.6808 21.2225 20.1861 21.2225 19.673C21.2225 19.4719 21.2133 19.2615 21.1948 19.0604C21.1855 18.8408 21.1578 18.6211 21.13 18.4015C21.1116 18.2074 21.0769 18.0155 21.0399 17.8144C20.9937 17.5208 20.9289 17.2296 20.855 16.9359L20.8295 16.825C20.7741 16.6239 20.7278 16.432 20.6631 16.2309C20.4805 15.5998 20.2701 14.9849 20.0482 14.4093C19.9673 14.1804 19.8748 13.9608 19.7823 13.7412C19.646 13.4107 19.5073 13.1102 19.3801 12.8258C19.3154 12.6963 19.2599 12.5784 19.2045 12.4582C19.142 12.3219 19.0773 12.1855 19.0126 12.056C18.9664 11.9566 18.9132 11.8642 18.8762 11.7717L18.4809 11.0412C18.4254 10.9418 18.5179 10.8239 18.6265 10.854L21.1 11.5243H21.107C21.1116 11.5243 21.1139 11.5267 21.1162 11.5267L21.4421 11.6168L21.8005 11.7185L21.9322 11.7555V10.2853C21.9322 9.57559 22.5009 9 23.2036 9C23.555 9 23.874 9.14332 24.1029 9.37678C24.3317 9.61029 24.475 9.92929 24.475 10.2853V12.4675L24.7386 12.5415C24.7594 12.5484 24.7802 12.5577 24.7987 12.5715C24.8634 12.6201 24.9559 12.6917 25.0738 12.7796C25.1662 12.8535 25.2656 12.9437 25.3858 13.0362C25.6239 13.228 25.9083 13.4754 26.2204 13.7597C26.3036 13.8314 26.3845 13.9054 26.4585 13.9793C26.8607 14.3538 27.3115 14.793 27.7414 15.2785C27.8616 15.4149 27.9795 15.5536 28.0997 15.6992C28.2199 15.8472 28.3471 15.9928 28.458 16.1384C28.6037 16.3326 28.7609 16.5337 28.8973 16.7441C28.962 16.8435 29.036 16.9452 29.0984 17.0446C29.2741 17.3104 29.4289 17.5855 29.5769 17.8606C29.6393 17.9878 29.704 18.1264 29.7595 18.2628C29.9236 18.6304 30.0531 19.0049 30.1363 19.3794C30.1617 19.4603 30.1802 19.5481 30.1895 19.6268V19.6452C30.2172 19.7562 30.2265 19.8741 30.2357 19.9943C30.2727 20.378 30.2542 20.7617 30.171 21.1478C30.1363 21.312 30.0901 21.4668 30.0346 21.631C29.9791 21.7881 29.9236 21.9523 29.852 22.1071C29.7133 22.4284 29.5491 22.7498 29.355 23.0503C29.2926 23.1613 29.2186 23.2792 29.1446 23.3901C29.0637 23.508 28.9805 23.619 28.9065 23.7276C28.8048 23.8663 28.6962 24.012 28.5852 24.1414C28.4858 24.2778 28.3841 24.4142 28.2731 24.5344C28.1182 24.717 27.9703 24.8904 27.8154 25.0569C27.723 25.1655 27.6235 25.2765 27.5218 25.3759C27.4224 25.4868 27.3207 25.5862 27.2282 25.6787C27.0734 25.8336 26.9439 25.9538 26.8352 26.0532L26.581 26.2867C26.544 26.319 26.4954 26.3375 26.4446 26.3375H24.475V28.8642H26.9531C27.5079 28.8642 28.035 28.6677 28.4604 28.307C28.606 28.1799 29.2417 27.6297 29.993 26.7998C30.0184 26.7721 30.0508 26.7513 30.0878 26.7421L36.9326 24.7633C37.0598 24.7263 37.1892 24.8233 37.1892 24.9574Z" fill="white"/>
</g>
<defs>
<clipPath id="clip0_3359_103965">
<rect width="45" height="45" fill="white"/>
</clipPath>
</defs>
</svg>
