<svg width="18" height="16" viewBox="0 0 18 16" fill="none" xmlns="http://www.w3.org/2000/svg">
<path d="M8.4609 4.63141L8.49867 5.25425L7.86914 5.17798C5.57765 4.88563 3.57574 3.89417 1.876 2.22902L1.04502 1.4028L0.830981 2.01293C0.377719 3.37301 0.667303 4.80936 1.6116 5.7754C2.11523 6.30926 2.00191 6.38553 1.13316 6.06775C0.830981 5.96607 0.566578 5.8898 0.541397 5.92793C0.453263 6.01691 0.755438 7.17361 0.99466 7.63121C1.32202 8.26676 1.98932 8.8896 2.71958 9.25822L3.33652 9.55058L2.60626 9.56329C1.90118 9.56329 1.876 9.576 1.95155 9.84293C2.20336 10.6691 3.19802 11.5462 4.30599 11.9275L5.08661 12.1945L4.40672 12.6012C3.39947 13.1859 2.21595 13.5164 1.03243 13.5418C0.465853 13.5546 0 13.6054 0 13.6435C0 13.7706 1.53606 14.4825 2.42999 14.7621C5.1118 15.5883 8.29722 15.2324 10.6894 13.8215C12.3892 12.8173 14.0889 10.8217 14.8821 8.8896C15.3102 7.86001 15.7383 5.97878 15.7383 5.07629C15.7383 4.49159 15.7761 4.41532 16.4811 3.71621C16.8966 3.30946 17.2869 2.86457 17.3625 2.73746C17.4884 2.49595 17.4758 2.49595 16.8337 2.71204C15.7635 3.09337 15.6124 3.04253 16.1412 2.47053C16.5315 2.06378 16.9973 1.32654 16.9973 1.11045C16.9973 1.07232 16.8085 1.13587 16.5944 1.25027C16.3678 1.37738 15.8642 1.56805 15.4865 1.68245L14.8066 1.89853L14.1896 1.47907C13.8497 1.25027 13.3712 0.996051 13.1194 0.919785C12.4773 0.741831 11.4952 0.767253 10.9161 0.970629C9.34225 1.54263 8.34759 3.01711 8.4609 4.63141Z" fill="#55ACEE"/>
</svg>
