<svg width="36" height="36" viewBox="0 0 36 36" fill="none" xmlns="http://www.w3.org/2000/svg">
<circle cx="18" cy="18" r="18" fill="#2B2E31"/>
<g clip-path="url(#clip0_1503_14982)">
<path d="M23.3241 14.7432C22.9301 14.518 22.4235 14.518 21.9731 14.7432L18.8209 16.6007L16.6819 17.7828L13.5859 19.6404C13.1919 19.8656 12.6853 19.8656 12.235 19.6404L9.8145 18.1769C9.42047 17.9517 9.13902 17.5014 9.13902 16.9948V14.1803C9.13902 13.73 9.36418 13.2796 9.8145 12.9982L12.235 11.5909C12.629 11.3658 13.1356 11.3658 13.5859 11.5909L16.0064 13.0545C16.4004 13.2796 16.6819 13.73 16.6819 14.2366V16.0941L18.8209 14.8558V12.9419C18.8209 12.4916 18.5957 12.0413 18.1454 11.7598L13.6422 9.11418C13.2482 8.88902 12.7416 8.88902 12.2913 9.11418L7.67548 11.8161C7.22516 12.0413 7 12.4916 7 12.9419V18.2332C7 18.6835 7.22516 19.1338 7.67548 19.4152L12.235 22.0609C12.629 22.286 13.1356 22.286 13.5859 22.0609L16.6819 20.2596L18.8209 19.0212L21.9168 17.2199C22.3109 16.9948 22.8175 16.9948 23.2678 17.2199L25.6883 18.6272C26.0823 18.8523 26.3638 19.3027 26.3638 19.8093V22.6238C26.3638 23.0741 26.1386 23.5244 25.6883 23.8059L23.3241 25.2131C22.9301 25.4383 22.4235 25.4383 21.9731 25.2131L19.5527 23.8059C19.1586 23.5807 18.8772 23.1304 18.8772 22.6238V20.8225L16.7382 22.0609V23.9184C16.7382 24.3688 16.9633 24.8191 17.4136 25.1005L21.9731 27.7462C22.3672 27.9713 22.8738 27.9713 23.3241 27.7462L27.8836 25.1005C28.2776 24.8754 28.5591 24.4251 28.5591 23.9184V18.5709C28.5591 18.1206 28.3339 17.6703 27.8836 17.3888L23.3241 14.7432Z" fill="#8247E5"/>
</g>
<defs>
<clipPath id="clip0_1503_14982">
<rect width="21.6154" height="18.8571" fill="white" transform="translate(7 9)"/>
</clipPath>
</defs>
</svg>
