<svg width="36" height="36" viewBox="0 0 36 36" fill="none" xmlns="http://www.w3.org/2000/svg">
<path fill-rule="evenodd" clip-rule="evenodd" d="M18 0C8.0589 0 0 8.0589 0 18C0 27.9411 8.0589 36 18 36C27.9411 36 36 27.9411 36 18C36 8.0589 27.9411 0 18 0ZM18 34.2C9.05301 34.2 1.8 26.947 1.8 18C1.8 9.05301 9.05301 1.8 18 1.8C26.947 1.8 34.2 9.05301 34.2 18C34.2 26.947 26.947 34.2 18 34.2Z" fill="#DDC3F5"/>
<path fill-rule="evenodd" clip-rule="evenodd" d="M18.5298 24.38L15.1173 17.7622L18.3348 11.5832C18.3957 11.4735 18.3591 11.4004 18.2616 11.4004H16.2995C16.1791 11.4004 16.1419 11.4598 16.0823 11.5553L16.0801 11.5588C15.8783 11.9922 15.6738 12.4273 15.4689 12.8635C14.9186 14.0344 14.3648 15.2129 13.8498 16.385H13.8254C13.2877 15.1841 12.7236 14.003 12.1574 12.8174C11.9536 12.3907 11.7496 11.9634 11.5464 11.5345C11.5098 11.4248 11.4489 11.4004 11.327 11.4004H9.23078C9.14547 11.4004 9.07235 11.4857 9.14547 11.5832L12.3751 17.9694L9.03578 24.3921C8.97485 24.4653 8.98703 24.5628 9.10891 24.5628H11.132C11.2295 24.5628 11.2905 24.5262 11.3514 24.4287C12.1314 22.82 12.9357 21.0406 13.667 19.4075H13.6914C14.5079 21.1381 15.3001 22.8078 16.0801 24.4165C16.141 24.5384 16.202 24.575 16.336 24.575H18.4566C18.5541 24.575 18.5907 24.4775 18.5298 24.38ZM19.2732 19.7366C19.2732 16.8969 21.1013 14.6788 24.0994 14.6788C24.3553 14.6788 24.4894 14.6788 24.7331 14.7032V11.5345C24.7331 11.4613 24.7941 11.4126 24.855 11.4126H26.8172C26.9147 11.4126 26.9391 11.4491 26.9391 11.5101V22.6494C26.9391 22.9784 26.9391 23.3928 27 23.8437C27 23.929 27 23.9412 26.9269 23.9778C25.9031 24.4653 24.8306 24.6846 23.8069 24.6846C21.1622 24.6846 19.2732 23.0515 19.2732 19.7366ZM24.7331 16.6166C24.5503 16.5313 24.3188 16.4947 24.0263 16.4947C22.4907 16.4947 21.4669 17.6769 21.4669 19.6391C21.4669 21.8815 22.515 22.7834 23.88 22.7834C24.1725 22.7834 24.4894 22.7469 24.721 22.6494V16.6166H24.7331Z" fill="#DDC3F5"/>
</svg>
