<svg width="36" height="36" viewBox="0 0 36 36" fill="none" xmlns="http://www.w3.org/2000/svg">
<path d="M11.5469 12.7419C11.5469 10.6753 13.2222 9 15.2888 9H21.7094C23.776 9 25.4513 10.6753 25.4513 12.7419C25.4513 14.0505 24.7796 15.2022 23.7621 15.871C24.7796 16.5398 25.4513 17.6915 25.4513 19.0001C25.4513 21.0667 23.776 22.742 21.7094 22.742H21.6282C20.6593 22.742 19.7765 22.3738 19.112 21.7697V25.2175C19.112 27.3116 17.3929 29 15.3089 29C13.2475 29 11.5469 27.3298 11.5469 25.2581C11.5469 23.9496 12.2186 22.7979 13.2359 22.1291C12.2185 21.4603 11.5469 20.3086 11.5469 19.0001C11.5469 17.6915 12.2186 16.5398 13.236 15.871C12.2186 15.2022 11.5469 14.0505 11.5469 12.7419ZM17.8863 16.4839H15.2888C13.8991 16.4839 12.7726 17.6104 12.7726 19.0001C12.7726 20.3844 13.8904 21.5076 15.2727 21.5162L15.2888 21.5162H17.8863V16.4839ZM19.112 19.0001C19.112 20.3897 20.2385 21.5163 21.6282 21.5163H21.7094C23.0991 21.5163 24.2256 20.3897 24.2256 19.0001C24.2256 17.6104 23.0991 16.4839 21.7094 16.4839H21.6282C20.2385 16.4839 19.112 17.6104 19.112 19.0001ZM15.2888 22.742L15.2727 22.742C13.8904 22.7506 12.7726 23.8738 12.7726 25.2581C12.7726 26.6427 13.9142 27.7743 15.3089 27.7743C16.7262 27.7743 17.8863 26.6245 17.8863 25.2175V22.742H15.2888ZM15.2888 10.2257C13.8991 10.2257 12.7726 11.3523 12.7726 12.7419C12.7726 14.1316 13.8991 15.2581 15.2888 15.2581H17.8863V10.2257H15.2888V10.2257ZM19.112 15.2581H21.7094C23.0991 15.2581 24.2256 14.1316 24.2256 12.7419C24.2256 11.3522 23.0991 10.2257 21.7094 10.2257H19.112V15.2581Z" fill="#DDC3F5"/>
<circle cx="18" cy="18" r="17.25" stroke="#DDC3F5" strokeWidth="1.5"/>
</svg>
