<svg width="36" height="37" viewBox="0 0 36 37" fill="none" xmlns="http://www.w3.org/2000/svg">
<path fill-rule="evenodd" clip-rule="evenodd" d="M18 0.5C8.0589 0.5 0 8.5589 0 18.5C0 28.4411 8.0589 36.5 18 36.5C27.9411 36.5 36 28.4411 36 18.5C36 8.5589 27.9411 0.5 18 0.5ZM18.0008 34.6988C9.05379 34.6988 1.80078 27.4458 1.80078 18.4988C1.80078 9.55184 9.05379 2.29883 18.0008 2.29883C26.9478 2.29883 34.2008 9.55184 34.2008 18.4988C34.2008 27.4458 26.9478 34.6988 18.0008 34.6988Z" fill="#DDC3F5"/>
<path fill-rule="evenodd" clip-rule="evenodd" d="M22.3086 11.8079C22.3086 10.8992 22.9377 10.3633 23.7532 10.3633C24.6153 10.3633 25.1978 10.9458 25.1978 11.8079C25.1978 12.7399 24.592 13.2525 23.7299 13.2525C22.8911 13.2525 22.3086 12.7399 22.3086 11.8079ZM10.8998 26.1839L12.0182 21.9499H12.0183H16.5386L17.7036 26.2071C17.7267 26.3003 17.7968 26.3276 17.9131 26.3276H20.2432C20.3597 26.3276 20.383 26.2575 20.3597 26.1412L15.8629 10.8986C15.8394 10.7821 15.7928 10.7588 15.6996 10.7588H12.7406C12.6706 10.7588 12.624 10.8054 12.624 10.8986C12.6007 11.5976 12.5541 11.8182 12.4842 12.0745L8.47657 26.1179C8.45341 26.281 8.47657 26.3276 8.61609 26.3276H10.6902C10.8299 26.3276 10.8766 26.3003 10.8998 26.1839ZM15.5092 17.9442C15.6842 18.6111 15.8416 19.2106 15.955 19.6575H12.623L12.661 19.515C13.2374 17.3474 13.9576 14.6391 14.2541 13.0205H14.2774C14.5267 14.2012 15.0729 16.282 15.5092 17.9442ZM22.6299 14.8545C22.5134 14.8545 22.4668 14.9011 22.4668 15.0176V26.1417C22.4668 26.258 22.5134 26.3281 22.6532 26.3281H24.8455C24.9853 26.3281 25.0086 26.2815 25.0086 26.165V15.0176C25.0086 14.9011 24.962 14.8545 24.8455 14.8545H22.6299Z" fill="#DDC3F5"/>
</svg>
