<svg width="36" height="36" viewBox="0 0 36 36" fill="none" xmlns="http://www.w3.org/2000/svg">
<path fill-rule="evenodd" clip-rule="evenodd" d="M18 0C8.0589 0 0 8.0589 0 18C0 27.9411 8.0589 36 18 36C27.9411 36 36 27.9411 36 18C36 8.0589 27.9411 0 18 0ZM18 34.2C9.05301 34.2 1.8 26.947 1.8 18C1.8 9.05301 9.05301 1.8 18 1.8C26.947 1.8 34.2 9.05301 34.2 18C34.2 26.947 26.947 34.2 18 34.2Z" fill="#DDC3F5"/>
<path fill-rule="evenodd" clip-rule="evenodd" d="M9 10.4344C9 10.3404 9.20172 10.2698 9.31933 10.2698C10.2367 10.2227 11.5836 10.1992 12.9948 10.1992C16.9466 10.1992 18.4856 12.3633 18.4856 15.1389C18.4856 18.7613 15.8585 20.3138 12.636 20.3138C12.341 20.3138 12.1509 20.3068 11.978 20.3004H11.978H11.978C11.8338 20.2951 11.7016 20.2902 11.5304 20.2902V25.7673C11.5304 25.885 11.4834 25.9321 11.3658 25.9321H9.16466C9.04704 25.9321 9 25.885 9 25.7673V10.4344ZM11.5298 18.0087C11.8591 18.0321 12.1178 18.0321 12.6824 18.0321C14.3525 18.0321 15.921 17.444 15.921 15.1859C15.921 13.3745 14.7994 12.4573 12.8941 12.4573C12.3295 12.4573 11.7885 12.4807 11.5298 12.5043V18.0085V18.0087ZM22.2958 17.35C22.2958 16.8795 22.6722 16.315 23.8013 16.315C24.7188 16.315 25.653 16.5502 26.2879 16.9266C26.4291 16.9736 26.4996 16.9029 26.4996 16.7854V14.8326C26.4996 14.7386 26.4761 14.6211 26.3585 14.5504C25.888 14.3388 25.0244 14.1506 23.8013 14.1506C21.308 14.1506 19.8732 15.6797 19.8732 17.5145C19.8732 19.1609 20.72 20.1488 22.7429 21.1134C24.1778 21.866 24.5071 22.313 24.5071 22.8305C24.5071 23.4656 24.0366 23.9361 22.9076 23.9361C21.9665 23.9361 20.9291 23.6772 20.0353 23.0893C19.9412 23.0188 19.8706 23.0659 19.8706 23.207V25.3005C19.8706 25.4181 19.8941 25.4887 19.9882 25.5357C20.5998 25.8884 21.6609 26.1473 22.9076 26.1473C25.2598 26.1473 27.0004 24.9241 27.0004 22.6423C27.0004 21.1135 26.2948 20.0785 24.0601 18.9965C22.5546 18.2201 22.2958 17.8674 22.2958 17.35Z" fill="#DDC3F5"/>
</svg>
