<svg viewBox="0 0 12 10" fill="none" xmlns="http://www.w3.org/2000/svg">
  <path d="M10.844 2.6581L9.6451 0.587205C9.46631 0.278388 9.13651 0.0882416 8.77967 0.0882416H2.4478C2.09096 0.0882416 1.76116 0.278389 1.58237 0.587205L0.383433 2.6581C0.157141 3.04897 0.220934 3.543 0.539089 3.86357L4.90396 8.26151C5.29509 8.6556 5.93238 8.6556 6.32351 8.26151L10.6884 3.86357C11.0065 3.543 11.0703 3.04896 10.844 2.6581Z" fill="#FFE78C"/>
  <path d="M10.4073 5.47488C10.4686 5.29361 10.725 5.29361 10.7863 5.47488L10.9662 6.00702C10.9838 6.05912 11.0221 6.10167 11.072 6.12466L11.6054 6.37006C11.7606 6.44148 11.7606 6.66203 11.6054 6.73344L11.072 6.97885C11.0221 7.00184 10.9838 7.04439 10.9662 7.09649L10.7863 7.62863C10.725 7.80989 10.4686 7.80989 10.4073 7.62863L10.2274 7.09649C10.2098 7.04439 10.1715 7.00184 10.1216 6.97885L9.58823 6.73344C9.43303 6.66203 9.43303 6.44148 9.58823 6.37006L10.1216 6.12466C10.1715 6.10167 10.2098 6.05912 10.2274 6.00702L10.4073 5.47488Z" fill="#FFE78C"/>
  <path d="M1.68891 7.04159C1.75972 6.88451 1.98277 6.88451 2.05358 7.04159L2.36504 7.73259C2.38768 7.78282 2.43004 7.82149 2.48213 7.83946L3.19464 8.08535C3.37432 8.14736 3.37432 8.40146 3.19464 8.46347L2.48213 8.70935C2.43004 8.72733 2.38768 8.766 2.36504 8.81623L2.05358 9.50722C1.98277 9.66431 1.75972 9.66431 1.68891 9.50722L1.37745 8.81623C1.35481 8.766 1.31245 8.72733 1.26036 8.70935L0.547846 8.46347C0.368171 8.40146 0.368171 8.14736 0.547846 8.08535L1.26036 7.83946C1.31245 7.82149 1.35481 7.78282 1.37745 7.73259L1.68891 7.04159Z" fill="#FFE78C"/>
</svg>
