<svg viewBox="0 0 13 14" fill="none" xmlns="http://www.w3.org/2000/svg">
  <path d="M0.0209935 6.63516C0.0484983 7.91387 0.94745 8.97953 2.22515 9.03742C2.44009 9.04715 2.66835 9.05283 2.90848 9.05283C3.14862 9.05283 3.37688 9.04715 3.59182 9.03742C4.86952 8.97953 5.76847 7.91387 5.79597 6.63516C5.80802 6.07479 5.81638 5.39988 5.81638 4.60546C5.81638 3.81104 5.80802 3.13612 5.79597 2.57576C5.76847 1.29705 4.86952 0.231384 3.59182 0.173498C3.37688 0.163761 3.14862 0.158089 2.90848 0.158089C2.66835 0.158089 2.44008 0.163761 2.22514 0.173498C0.947449 0.231384 0.0484983 1.29705 0.0209935 2.57576C0.00894025 3.13612 0.000587456 3.81104 0.000587463 4.60546C0.000587471 5.39988 0.00894028 6.07479 0.0209935 6.63516Z" fill="#FFB36D"/>
  <path d="M4.11562 13.8267C5.04612 13.803 5.79812 13.2428 5.81446 12.3121C5.81548 12.254 5.81602 12.1938 5.81602 12.1314C5.81602 12.0689 5.81548 12.0087 5.81446 11.9506C5.79812 11.02 5.04612 10.4597 4.11562 10.436C3.76403 10.427 3.3583 10.4208 2.90812 10.4208C2.45795 10.4208 2.05222 10.427 1.70063 10.436C0.77012 10.4597 0.0181206 11.02 0.00178281 11.9506C0.000762859 12.0087 0.000227374 12.0689 0.000227377 12.1314C0.000227379 12.1938 0.00076287 12.254 0.00178235 12.3121C0.0181207 13.2428 0.77012 13.803 1.70063 13.8267C2.05222 13.8357 2.45795 13.8419 2.90812 13.8419C3.3583 13.8419 3.76403 13.8357 4.11562 13.8267Z" fill="#FFB36D"/>
  <path d="M12.9802 7.36503C12.9527 6.08632 12.0537 5.02065 10.776 4.96277C10.5611 4.95303 10.3328 4.94736 10.0927 4.94736C9.85256 4.94736 9.62429 4.95303 9.40935 4.96277C8.13166 5.02065 7.23271 6.08632 7.2052 7.36503C7.19315 7.92539 7.1848 8.60031 7.1848 9.39473C7.1848 10.1891 7.19315 10.8641 7.2052 11.4244C7.23271 12.7031 8.13166 13.7688 9.40935 13.8267C9.62429 13.8364 9.85256 13.8421 10.0927 13.8421C10.3328 13.8421 10.5611 13.8364 10.776 13.8267C12.0537 13.7688 12.9527 12.7031 12.9802 11.4244C12.9922 10.8641 13.0006 10.1891 13.0006 9.39473C13.0006 8.60031 12.9922 7.92539 12.9802 7.36503Z" fill="#FFB36D"/>
  <path d="M8.88556 0.173445C7.95505 0.197167 7.20305 0.757414 7.18671 1.68808C7.18569 1.74615 7.18516 1.80638 7.18516 1.86882C7.18516 1.93126 7.18569 1.99149 7.18671 2.04956C7.20305 2.98023 7.95505 3.54047 8.88556 3.5642C9.23715 3.57316 9.64288 3.57935 10.0931 3.57935C10.5432 3.57935 10.949 3.57316 11.3005 3.5642C12.2311 3.54047 12.9831 2.98023 12.9994 2.04956C13.0004 1.99149 13.0009 1.93126 13.0009 1.86882C13.0009 1.80638 13.0004 1.74615 12.9994 1.68808C12.9831 0.757414 12.2311 0.197167 11.3005 0.173445C10.949 0.164481 10.5432 0.158295 10.0931 0.158295C9.64288 0.158295 9.23715 0.164481 8.88556 0.173445Z" fill="#FFB36D"/>
</svg>
