<svg viewBox="0 0 16 16" fill="none" xmlns="http://www.w3.org/2000/svg">
  <path d="M15.0005 5.50057C15.0011 6.12054 14.7713 6.71863 14.3558 7.17873C13.9402 7.63883 13.3686 7.92811 12.7517 7.99042C12.1349 8.05273 11.5169 7.88361 11.0177 7.51591C10.5186 7.1482 10.1738 6.60814 10.0505 6.00057H9.73047C9.49937 6.0007 9.27546 6.08088 9.0968 6.22745C8.91814 6.37403 8.79576 6.57795 8.75047 6.80456L8.23047 9.39257C8.13991 9.84562 7.8953 10.2533 7.53818 10.5465C7.18107 10.8396 6.73348 11.0001 6.27147 11.0006H5.95047C5.82656 11.6076 5.48167 12.147 4.98267 12.5142C4.48367 12.8814 3.86611 13.0502 3.2497 12.9879C2.6333 12.9256 2.06198 12.6367 1.6465 12.1771C1.23102 11.7176 1.00098 11.1201 1.00098 10.5006C1.00098 9.88103 1.23102 9.28356 1.6465 8.82399C2.06198 8.36442 2.6333 8.07549 3.2497 8.01323C3.86611 7.95096 4.48367 8.11978 4.98267 8.48697C5.48167 8.85415 5.82656 9.39354 5.95047 10.0006H6.27047C6.50156 10.0004 6.72547 9.92025 6.90413 9.77368C7.08279 9.6271 7.20517 9.42318 7.25047 9.19657L7.76947 6.60856C7.86005 6.15534 8.10482 5.74749 8.46214 5.45434C8.81946 5.16119 9.26728 5.00084 9.72947 5.00057H10.0505C10.1738 4.39299 10.5186 3.85293 11.0177 3.48522C11.5169 3.11752 12.1349 2.9484 12.7517 3.01071C13.3686 3.07302 13.9402 3.3623 14.3558 3.8224C14.7713 4.2825 15.0011 4.88059 15.0005 5.50057Z" fill="#AED4FF"/>
</svg>
