<svg viewBox="0 0 16 16" fill="none" xmlns="http://www.w3.org/2000/svg">
  <path d="M5 8.17778C5 6.95643 5.90726 6.0406 7.12823 6.01019C7.38656 6.00375 7.67606 6 8 6C8.32394 6 8.61344 6.00375 8.87177 6.01019C10.0927 6.0406 11 6.95643 11 8.17778C11 8.49354 10.9836 8.75232 10.962 8.95654C10.9208 9.34594 10.6808 9.66703 10.3027 9.76881C9.87609 9.88363 9.15808 10 8 10C6.84192 10 6.12391 9.88363 5.69731 9.76881C5.31919 9.66703 5.07925 9.34594 5.03799 8.95654C5.01635 8.75232 5 8.49354 5 8.17778Z" fill="#B2FFC3"/>
  <circle cx="8" cy="4" r="2" fill="#B2FFC3"/>
  <path d="M6.55906 11.9272C6.18635 10.1924 6 8 6 8H10C10 8 9.81365 10.1924 9.44094 11.9272C9.33279 12.4306 8.99925 12.8694 8.49194 12.9576C8.34455 12.9832 8.17943 13 8 13C7.82057 13 7.65545 12.9832 7.50806 12.9576C7.00075 12.8694 6.66721 12.4306 6.55906 11.9272Z" fill="#B2FFC3"/>
  <path d="M1.01488 0.0663589C0.510879 0.114728 0.114737 0.510864 0.0663636 1.01487C-0.0758992 2.49712 0.043186 3.86628 0.121108 4.51727C0.151145 4.76822 0.309915 4.98645 0.556582 5.04152C0.774107 5.09008 1.06521 5.11912 1.37722 5.04965C1.62392 4.99473 1.78161 4.76824 1.81236 4.51738C1.90708 3.74463 1.938 2.84931 1.94809 2.3472C1.95247 2.1291 2.12913 1.95243 2.34723 1.94805C2.84934 1.93796 3.74465 1.90705 4.51737 1.81234C4.76824 1.7816 4.99473 1.6239 5.04966 1.3772C5.11912 1.06519 5.09008 0.774098 5.04152 0.556575C4.98645 0.309903 4.76822 0.151132 4.51727 0.121097C3.86627 0.0431812 2.49714 -0.0758927 1.01488 0.0663589Z" fill="#B2FFC3"/>
  <path d="M14.9851 0.0663589C15.4891 0.114728 15.8853 0.510864 15.9336 1.01487C16.0759 2.49712 15.9568 3.86628 15.8789 4.51727C15.8489 4.76822 15.6901 4.98645 15.4434 5.04152C15.2259 5.09008 14.9348 5.11912 14.6228 5.04965C14.3761 4.99473 14.2184 4.76824 14.1876 4.51738C14.0929 3.74463 14.062 2.84931 14.0519 2.3472C14.0475 2.1291 13.8709 1.95243 13.6528 1.94805C13.1507 1.93796 12.2554 1.90705 11.4826 1.81234C11.2318 1.7816 11.0053 1.6239 10.9503 1.3772C10.8809 1.06519 10.9099 0.774098 10.9585 0.556575C11.0136 0.309903 11.2318 0.151132 11.4827 0.121097C12.1337 0.0431812 13.5029 -0.0758927 14.9851 0.0663589Z" fill="#B2FFC3"/>
  <path d="M15.9336 14.9851C15.8853 15.4891 15.4891 15.8853 14.9851 15.9336C13.5029 16.0759 12.1337 15.9568 11.4827 15.8789C11.2318 15.8489 11.0136 15.6901 10.9585 15.4434C10.9099 15.2259 10.8809 14.9348 10.9503 14.6228C11.0053 14.3761 11.2318 14.2184 11.4826 14.1877C12.2554 14.0929 13.1507 14.062 13.6528 14.0519C13.8709 14.0476 14.0475 13.8709 14.0519 13.6528C14.062 13.1507 14.0929 12.2554 14.1876 11.4826C14.2184 11.2318 14.3761 11.0053 14.6228 10.9503C14.9348 10.8809 15.2259 10.9099 15.4434 10.9585C15.6901 11.0136 15.8489 11.2318 15.8789 11.4827C15.9568 12.1337 16.0759 13.5029 15.9336 14.9851Z" fill="#B2FFC3"/>
  <path d="M1.01488 15.9336C0.510879 15.8853 0.114737 15.4891 0.0663637 14.9851C-0.0758992 13.5029 0.0431859 12.1337 0.121107 11.4827C0.151145 11.2318 0.309914 11.0136 0.556582 10.9585C0.774107 10.9099 1.06521 10.8809 1.37722 10.9503C1.62392 11.0053 1.78161 11.2318 1.81236 11.4826C1.90708 12.2554 1.938 13.1507 1.94809 13.6528C1.95247 13.8709 2.12913 14.0476 2.34723 14.0519C2.84934 14.062 3.74465 14.0929 4.51737 14.1877C4.76824 14.2184 4.99473 14.3761 5.04966 14.6228C5.11912 14.9348 5.09008 15.2259 5.04152 15.4434C4.98645 15.6901 4.76822 15.8489 4.51727 15.8789C3.86627 15.9568 2.49714 16.0759 1.01488 15.9336Z" fill="#B2FFC3"/>
</svg>
