<svg width="116" height="116" viewBox="0 0 116 116" fill="none" xmlns="http://www.w3.org/2000/svg">
<path d="M96.332 29.2497C99.1112 29.2497 101.363 30.208 103.136 32.0768C104.957 34.0413 105.915 36.1976 105.915 38.833V91.5413C105.915 94.1768 104.957 96.333 103.136 98.2976C101.363 100.166 99.1112 101.125 96.332 101.125H19.6654C16.8862 101.125 14.6341 100.166 12.8612 98.2976C11.0404 96.333 10.082 94.1768 10.082 91.5413V38.833C10.082 36.1976 11.0404 34.0413 12.8612 32.0768C14.6341 30.208 16.8862 29.2497 19.6654 29.2497H38.832V19.6663C38.832 16.8872 39.7904 14.6351 41.6112 12.8622C43.3841 11.0413 45.6362 10.083 48.4154 10.083H67.582C70.3612 10.083 72.6133 11.0413 74.3862 12.8622C76.207 14.6351 77.1654 16.8872 77.1654 19.6663V29.2497H96.332ZM19.6654 38.833V91.5413H96.332V38.833H19.6654ZM67.582 29.2497V19.6663H48.4154V29.2497H67.582ZM57.9987 43.6247C60.8581 43.6247 63.6003 44.7606 65.6222 46.7824C67.6441 48.8043 68.78 51.5466 68.78 54.4059C68.78 60.3955 63.9404 65.1872 57.9987 65.1872C55.1393 65.1872 52.3971 64.0513 50.3752 62.0294C48.3533 60.0075 47.2175 57.2653 47.2175 54.4059C47.2175 48.4163 52.057 43.6247 57.9987 43.6247ZM79.5612 86.7497H36.4362V81.383C36.4362 75.3934 46.0195 70.6018 57.9987 70.6018C69.9779 70.6018 79.5612 75.3934 79.5612 81.383V86.7497Z" fill="url(#paint0_linear_5322_158663)"/>
<defs>
<linearGradient id="paint0_linear_5322_158663" x1="57.999" y1="-111" x2="57.9987" y2="101.125" gradientUnits="userSpaceOnUse">
<stop stop-color="white"/>
<stop offset="1" stop-color="white" stop-opacity="0"/>
</linearGradient>
</defs>
</svg>
