<svg width="113" height="113" viewBox="0 0 113 113" fill="none" xmlns="http://www.w3.org/2000/svg">
<path d="M84.75 84.75H84.0327C83.1867 80.6302 81.6969 76.8415 79.5635 73.3838C77.43 69.9261 74.8368 66.9466 71.7837 64.4453C68.7306 61.944 65.2913 59.9945 61.4658 58.5967C57.6403 57.1989 53.6309 56.5 49.4375 56.5C46.2005 56.5 43.0739 56.923 40.0576 57.769C37.0413 58.6151 34.2274 59.7922 31.6157 61.3003C29.0041 62.8084 26.6315 64.6476 24.498 66.8179C22.3646 68.9881 20.5254 71.3791 18.9805 73.9907C17.4355 76.6024 16.2401 79.4163 15.394 82.4326C14.548 85.4489 14.125 88.5755 14.125 91.8125H7.0625C7.0625 87.3984 7.70622 83.1499 8.99365 79.0669C10.2811 74.9839 12.1387 71.2135 14.5664 67.7559C16.9941 64.2982 19.8633 61.2267 23.1738 58.5415C26.4844 55.8563 30.2363 53.7412 34.4297 52.1963C30.2731 49.4743 27.0361 46.0534 24.7188 41.9336C22.4014 37.8138 21.2243 33.2526 21.1875 28.25C21.1875 24.3509 21.9232 20.6909 23.3945 17.27C24.8659 13.8491 26.8706 10.8512 29.4087 8.27637C31.9468 5.7015 34.9447 3.67839 38.4023 2.20703C41.86 0.735677 45.5384 0 49.4375 0C53.3366 0 56.9966 0.735677 60.4175 2.20703C63.8384 3.67839 66.8363 5.68311 69.4111 8.22119C71.986 10.7593 74.0091 13.7572 75.4805 17.2148C76.9518 20.6725 77.6875 24.3509 77.6875 28.25C77.6875 30.6777 77.3932 33.0503 76.8047 35.3677C76.2161 37.6851 75.3333 39.8737 74.1562 41.9336C72.9792 43.9935 71.5998 45.8879 70.0181 47.6167C68.4364 49.3455 66.5788 50.8721 64.4453 52.1963C68.5651 53.778 72.3538 55.9482 75.8115 58.707C79.2692 61.4658 82.2487 64.7028 84.75 68.418V84.75ZM28.25 28.25C28.25 31.1927 28.8018 33.9331 29.9053 36.4712C31.0088 39.0093 32.5169 41.2531 34.4297 43.2026C36.3424 45.1522 38.5863 46.6787 41.1611 47.7822C43.736 48.8857 46.4948 49.4375 49.4375 49.4375C52.3434 49.4375 55.0838 48.8857 57.6587 47.7822C60.2336 46.6787 62.4774 45.1706 64.3901 43.2578C66.3029 41.3451 67.8294 39.1012 68.9697 36.5264C70.11 33.9515 70.6618 31.1927 70.625 28.25C70.625 25.3441 70.0732 22.6037 68.9697 20.0288C67.8662 17.4539 66.3581 15.2101 64.4453 13.2974C62.5326 11.3846 60.2703 9.85807 57.6587 8.71777C55.047 7.57747 52.3066 7.02572 49.4375 7.0625C46.4948 7.0625 43.7544 7.61426 41.2163 8.71777C38.6782 9.82129 36.4344 11.3294 34.4849 13.2422C32.5353 15.1549 31.0088 17.4172 29.9053 20.0288C28.8018 22.6405 28.25 25.3809 28.25 28.25ZM98.875 91.8125H113V98.875H98.875V113H91.8125V98.875H77.6875V91.8125H91.8125V77.6875H98.875V91.8125Z" fill="url(#paint0_linear_5329_160732)"/>
<defs>
<linearGradient id="paint0_linear_5329_160732" x1="60.2549" y1="-126.87" x2="59.9329" y2="113" gradientUnits="userSpaceOnUse">
<stop stop-color="white"/>
<stop offset="1" stop-color="white" stop-opacity="0"/>
</linearGradient>
</defs>
</svg>
