<svg width="115" height="114" viewBox="0 0 115 114" fill="none" xmlns="http://www.w3.org/2000/svg">
<path d="M14.75 85.5H50.375V92.625H14.75V85.5ZM14.75 64.125H50.375V71.25H14.75V64.125ZM93.125 49.875H21.875C19.9853 49.875 18.1731 49.1243 16.8369 47.7881C15.5007 46.4519 14.75 44.6397 14.75 42.75V21.375C14.75 19.4853 15.5007 17.6731 16.8369 16.3369C18.1731 15.0007 19.9853 14.25 21.875 14.25H93.125C95.0147 14.25 96.8269 15.0007 98.1631 16.3369C99.4993 17.6731 100.25 19.4853 100.25 21.375V42.75C100.25 44.6397 99.4993 46.4519 98.1631 47.7881C96.8269 49.1243 95.0147 49.875 93.125 49.875ZM21.875 21.375V42.75H93.125V21.375H21.875ZM93.125 99.75H71.75C69.8603 99.75 68.0481 98.9993 66.7119 97.6631C65.3757 96.3269 64.625 94.5147 64.625 92.625V71.25C64.625 69.3603 65.3757 67.5481 66.7119 66.2119C68.0481 64.8757 69.8603 64.125 71.75 64.125H93.125C95.0147 64.125 96.8269 64.8757 98.1631 66.2119C99.4993 67.5481 100.25 69.3603 100.25 71.25V92.625C100.25 94.5147 99.4993 96.3269 98.1631 97.6631C96.8269 98.9993 95.0147 99.75 93.125 99.75ZM71.75 71.25V92.625H93.125V71.25H71.75Z" fill="url(#paint0_linear_5297_157643)"/>
<defs>
<linearGradient id="paint0_linear_5297_157643" x1="58" y1="-171" x2="57.5" y2="99.75" gradientUnits="userSpaceOnUse">
<stop stop-color="white"/>
<stop offset="1" stop-color="white" stop-opacity="0"/>
</linearGradient>
</defs>
</svg>
