<svg width="116" height="115" viewBox="0 0 116 115" fill="none" xmlns="http://www.w3.org/2000/svg">
<path d="M96.334 28.7507C99.1132 28.7507 101.365 29.709 103.138 31.5777C104.959 33.5423 105.917 35.6986 105.917 38.334V91.0423C105.917 93.6777 104.959 95.834 103.138 97.7986C101.365 99.6673 99.1132 100.626 96.334 100.626H19.6673C16.8882 100.626 14.6361 99.6673 12.8632 97.7986C11.0423 95.834 10.084 93.6777 10.084 91.0423V38.334C10.084 35.6986 11.0423 33.5423 12.8632 31.5777C14.6361 29.709 16.8882 28.7507 19.6673 28.7507H38.834V19.1673C38.834 16.3882 39.7923 14.1361 41.6132 12.3632C43.3861 10.5423 45.6382 9.58398 48.4173 9.58398H67.584C70.3632 9.58398 72.6152 10.5423 74.3882 12.3632C76.209 14.1361 77.1673 16.3882 77.1673 19.1673V28.7507H96.334ZM19.6673 38.334V91.0423H96.334V38.334H19.6673ZM67.584 28.7507V19.1673H48.4173V28.7507H67.584ZM58.0007 43.1256C60.86 43.1256 63.6023 44.2615 65.6241 46.2834C67.646 48.3053 68.7819 51.0475 68.7819 53.9069C68.7819 59.8965 63.9423 64.6881 58.0007 64.6881C55.1413 64.6881 52.399 63.5523 50.3772 61.5304C48.3553 59.5085 47.2194 56.7663 47.2194 53.9069C47.2194 47.9173 52.059 43.1256 58.0007 43.1256ZM79.5632 86.2506H36.4382V80.884C36.4382 74.8944 46.0215 70.1027 58.0007 70.1027C69.9798 70.1027 79.5632 74.8944 79.5632 80.884V86.2506Z" fill="url(#paint0_linear_39_4286)"/>
<defs>
<linearGradient id="paint0_linear_39_4286" x1="58.001" y1="-111.5" x2="58.0007" y2="100.626" gradientUnits="userSpaceOnUse">
<stop stop-color="white"/>
<stop offset="1" stop-color="white" stop-opacity="0"/>
</linearGradient>
</defs>
</svg>
