<svg width="96" height="96" viewBox="0 0 96 96" fill="none" xmlns="http://www.w3.org/2000/svg">
<circle cx="48" cy="48" r="48" fill="url(#paint0_linear_1376_45571)"/>
<path fill-rule="evenodd" clip-rule="evenodd" d="M51.2623 22.3815L31.0727 34.0492C30.731 34.2401 30.4465 34.5187 30.2484 34.8563C30.0503 35.1938 29.9459 35.5781 29.9459 35.9695V46.8156L51.2389 34.4013C51.5905 34.205 51.9865 34.1019 52.3892 34.1019C52.7919 34.1019 53.1879 34.205 53.5395 34.4013L59.6903 37.9462C60.1188 38.1985 60.6192 38.3009 61.1123 38.2371C61.6055 38.1733 62.0634 37.9471 62.4136 37.5941L66.7098 33.2745C66.9501 33.0279 67.1313 32.73 67.2397 32.4032C67.3482 32.0764 67.381 31.7293 67.3358 31.388C67.2906 31.0467 67.1685 30.72 66.9788 30.4328C66.789 30.1455 66.5365 29.905 66.2402 29.7295L53.5161 22.3815C53.1729 22.1852 52.7845 22.082 52.3892 22.082C51.9939 22.082 51.6055 22.1852 51.2623 22.3815ZM53.5155 72.6159L66.2867 65.2443C66.4638 65.1472 66.6226 65.0201 66.7562 64.8687C67.1734 64.4468 67.4074 63.8774 67.4074 63.284C67.4074 62.6907 67.1734 62.1213 66.7562 61.6994L62.4365 57.3797C62.0832 57.032 61.6258 56.8094 61.1341 56.7458C60.6425 56.6823 60.1435 56.7812 59.7133 57.0276L53.5155 60.596C53.1724 60.7922 52.784 60.8954 52.3887 60.8954C51.9934 60.8954 51.605 60.7922 51.2618 60.596L41.4722 54.9382C41.1289 54.7419 40.8438 54.4582 40.6459 54.116C40.4479 53.7737 40.3442 53.385 40.3453 52.9897V43.1296L29.9453 49.163V58.9996C29.9442 59.395 30.0479 59.7836 30.2459 60.1259C30.4438 60.4682 30.7289 60.7519 31.0722 60.9481L51.2618 72.6159C51.605 72.8121 51.9934 72.9153 52.3887 72.9153C52.784 72.9153 53.1724 72.8121 53.5155 72.6159Z" fill="black"/>
<defs>
<linearGradient id="paint0_linear_1376_45571" x1="0" y1="0" x2="78.5455" y2="112.364" gradientUnits="userSpaceOnUse">
<stop stop-color="#83EF9A"/>
<stop offset="1" stop-color="#166397"/>
</linearGradient>
</defs>
</svg>
