<svg width="115" height="115" viewBox="0 0 115 115" fill="none" xmlns="http://www.w3.org/2000/svg">
<path d="M52.75 67.085V57.585H62.25V67.085H52.75ZM33.75 67.085V57.585H43.25V67.085H33.75ZM71.75 67.085V57.585H81.25V67.085H71.75ZM52.75 86.085V76.585H62.25V86.085H52.75ZM33.75 86.085V76.585H43.25V86.085H33.75ZM71.75 86.085V76.585H81.25V86.085H71.75ZM14.75 105.085V19.585H29V10.085H38.5V19.585H76.5V10.085H86V19.585H100.25V105.085H14.75ZM24.25 95.585H90.75V48.085H24.25V95.585ZM24.25 38.585H90.75V29.085H24.25V38.585Z" fill="url(#paint0_linear_5297_157789)"/>
<defs>
<linearGradient id="paint0_linear_5297_157789" x1="57.5" y1="-262.165" x2="57.5" y2="105.085" gradientUnits="userSpaceOnUse">
<stop stop-color="white"/>
<stop offset="1" stop-color="white" stop-opacity="0"/>
</linearGradient>
</defs>
</svg>
