<svg width="114" height="113" viewBox="0 0 114 113" fill="none" xmlns="http://www.w3.org/2000/svg">
<path d="M9.91536 78.1113L26.8183 61.2083H71.1237C73.6212 61.2083 76.0163 60.2162 77.7823 58.4503C79.5483 56.6843 80.5404 54.2891 80.5404 51.7917V28.25C80.5404 25.7525 79.5483 23.3574 77.7823 21.5914C76.0163 19.8254 73.6212 18.8333 71.1237 18.8333H19.332C16.8346 18.8333 14.4394 19.8254 12.6734 21.5914C10.9075 23.3574 9.91536 25.7525 9.91536 28.25V78.1113ZM9.91536 84.75H5.20703V28.25C5.20703 24.5038 6.6952 20.9111 9.34415 18.2621C11.9931 15.6132 15.5858 14.125 19.332 14.125H71.1237C74.8699 14.125 78.4626 15.6132 81.1116 18.2621C83.7605 20.9111 85.2487 24.5038 85.2487 28.25V51.7917C85.2487 55.5379 83.7605 59.1306 81.1116 61.7796C78.4626 64.4285 74.8699 65.9167 71.1237 65.9167H28.7487L9.91536 84.75ZM99.3737 96.9446V47.0833C99.3737 44.5859 98.3816 42.1907 96.6156 40.4247C94.8497 38.6588 92.4545 37.6667 89.957 37.6667V32.9583C93.7032 32.9583 97.296 34.4465 99.9449 37.0955C102.594 39.7444 104.082 43.3372 104.082 47.0833V103.583H99.3737L80.5404 84.75H38.1654C32.327 84.75 27.3362 81.2188 25.1704 76.1808L28.937 72.4142C29.7374 76.7458 33.457 80.0417 38.1654 80.0417H82.4708L99.3737 96.9446Z" fill="url(#paint0_linear_5320_158420)"/>
<defs>
<linearGradient id="paint0_linear_5320_158420" x1="54.9987" y1="-118.5" x2="54.6445" y2="103.583" gradientUnits="userSpaceOnUse">
<stop stop-color="white"/>
<stop offset="1" stop-color="white" stop-opacity="0"/>
</linearGradient>
</defs>
</svg>
