<svg width="83" height="102" viewBox="0 0 83 102" fill="none" xmlns="http://www.w3.org/2000/svg">
<path d="M13 84.25V41.5C13 33.9413 16.0027 26.6922 21.3475 21.3475C26.6922 16.0027 33.9413 13 41.5 13C49.0587 13 56.3078 16.0027 61.6525 21.3475C66.9973 26.6922 70 33.9413 70 41.5V84.25M13 84.25H70M13 84.25H3.5M70 84.25H79.5M36.75 98.5H46.25" stroke="url(#paint0_linear_5068_144047)" stroke-width="7" stroke-linecap="round" stroke-linejoin="round"/>
<path d="M41.5 13C44.1234 13 46.25 10.8734 46.25 8.25C46.25 5.62665 44.1234 3.5 41.5 3.5C38.8766 3.5 36.75 5.62665 36.75 8.25C36.75 10.8734 38.8766 13 41.5 13Z" stroke="url(#paint1_linear_5068_144047)" stroke-width="7"/>
<defs>
<linearGradient id="paint0_linear_5068_144047" x1="41.5" y1="-66" x2="41.5" y2="98.5" gradientUnits="userSpaceOnUse">
<stop stop-color="white"/>
<stop offset="1" stop-color="white" stop-opacity="0"/>
</linearGradient>
<linearGradient id="paint1_linear_5068_144047" x1="41.5" y1="3.5" x2="41.5" y2="13" gradientUnits="userSpaceOnUse">
<stop stop-color="white"/>
<stop offset="1" stop-color="white" stop-opacity="0"/>
</linearGradient>
</defs>
</svg>
