<svg width="135" height="135" viewBox="0 0 135 135" fill="none" xmlns="http://www.w3.org/2000/svg">
<path d="M40.7813 33.75C39.6624 33.75 38.5893 34.1945 37.7981 34.9856C37.007 35.7768 36.5625 36.8499 36.5625 37.9688V80.1563C36.5625 81.2751 37.007 82.3482 37.7981 83.1394C38.5893 83.9305 39.6624 84.375 40.7813 84.375C41.9001 84.375 42.9732 83.9305 43.7644 83.1394C44.5555 82.3482 45 81.2751 45 80.1563V37.9688C45 36.8499 44.5555 35.7768 43.7644 34.9856C42.9732 34.1945 41.9001 33.75 40.7813 33.75ZM67.5 33.75C66.3811 33.75 65.3081 34.1945 64.5169 34.9856C63.7257 35.7768 63.2813 36.8499 63.2813 37.9688V63.2813C63.2813 64.4001 63.7257 65.4732 64.5169 66.2644C65.3081 67.0555 66.3811 67.5 67.5 67.5C68.6189 67.5 69.6919 67.0555 70.4831 66.2644C71.2743 65.4732 71.7188 64.4001 71.7188 63.2813V37.9688C71.7188 36.8499 71.2743 35.7768 70.4831 34.9856C69.6919 34.1945 68.6189 33.75 67.5 33.75ZM90 37.9688C90 36.8499 90.4445 35.7768 91.2356 34.9856C92.0268 34.1945 93.0999 33.75 94.2188 33.75C95.3376 33.75 96.4107 34.1945 97.2019 34.9856C97.993 35.7768 98.4375 36.8499 98.4375 37.9688V91.4063C98.4375 92.5251 97.993 93.5982 97.2019 94.3894C96.4107 95.1805 95.3376 95.625 94.2188 95.625C93.0999 95.625 92.0268 95.1805 91.2356 94.3894C90.4445 93.5982 90 92.5251 90 91.4063V37.9688Z" fill="url(#paint0_linear_5068_133861)" fill-opacity="0.1"/>
<path d="M21.0937 11.25H113.906C119.34 11.25 123.75 15.66 123.75 21.0937V113.906C123.75 116.517 122.713 119.021 120.867 120.867C119.021 122.713 116.517 123.75 113.906 123.75H21.0937C18.483 123.75 15.9792 122.713 14.1332 120.867C12.2871 119.021 11.25 116.517 11.25 113.906V21.0937C11.25 15.66 15.66 11.25 21.0937 11.25ZM19.6875 21.0937V113.906C19.6875 114.682 20.3175 115.312 21.0937 115.312H113.906C114.279 115.312 114.637 115.164 114.901 114.901C115.164 114.637 115.312 114.279 115.312 113.906V21.0937C115.312 20.7208 115.164 20.3631 114.901 20.0994C114.637 19.8357 114.279 19.6875 113.906 19.6875H21.0937C20.7208 19.6875 20.3631 19.8357 20.0994 20.0994C19.8357 20.3631 19.6875 20.7208 19.6875 21.0937Z" fill="url(#paint1_linear_5068_133861)" fill-opacity="0.1"/>
<defs>
<linearGradient id="paint0_linear_5068_133861" x1="67.5" y1="33.75" x2="67.5" y2="95.625" gradientUnits="userSpaceOnUse">
<stop stop-color="white"/>
<stop offset="1" stop-color="white" stop-opacity="0"/>
</linearGradient>
<linearGradient id="paint1_linear_5068_133861" x1="67.5" y1="11.25" x2="67.5" y2="207.5" gradientUnits="userSpaceOnUse">
<stop stop-color="white"/>
<stop offset="1" stop-color="white" stop-opacity="0"/>
</linearGradient>
</defs>
</svg>
