<svg width="113" height="114" viewBox="0 0 113 114" fill="none" xmlns="http://www.w3.org/2000/svg">
<path d="M109.2 31.0153C108.933 30.37 108.48 29.8184 107.9 29.4303C107.319 29.0422 106.636 28.8349 105.938 28.8348H92.506C90.628 25.6398 87.9553 22.9851 84.7477 21.1287C81.5401 19.2724 77.9067 18.2776 74.2009 18.241C71.4399 18.2048 68.6996 18.7212 66.1412 19.7597C63.5828 20.7982 61.2579 22.338 59.3034 24.2883C57.2918 26.2624 55.6951 28.6187 54.6074 31.2188C53.5196 33.8188 52.9626 36.6101 52.9692 39.4285V42.1167C35.1982 37.429 20.6627 22.9729 20.5082 22.8184C20.0344 22.3405 19.434 22.0078 18.7775 21.8597C18.1211 21.7116 17.4359 21.7541 16.8028 21.9823C16.1697 22.2105 15.615 22.6149 15.204 23.1477C14.793 23.6806 14.5429 24.3198 14.483 24.9901C12.5805 46.0849 18.7073 60.2011 24.1939 68.3274C26.8692 72.3446 30.1237 75.9442 33.8519 79.0094C27.1293 86.7473 16.5444 90.8126 16.4296 90.8568C15.9313 91.0434 15.4816 91.3402 15.1142 91.7251C14.7467 92.1099 14.471 92.5728 14.3076 93.0792C14.1442 93.5855 14.0973 94.1223 14.1705 94.6493C14.2437 95.1764 14.435 95.6801 14.7302 96.1228C15.0612 96.6171 16.3855 98.3519 19.621 99.9718C23.6201 101.976 28.9037 102.991 35.313 102.991C66.5071 102.991 92.5722 78.9697 95.2339 48.0624L108.436 34.8644C108.93 34.3703 109.266 33.7408 109.402 33.0557C109.538 32.3706 109.468 31.6605 109.2 31.0153ZM89.3367 43.9971C88.7312 44.604 88.3673 45.4104 88.3126 46.2659C86.5161 74.1142 63.2451 95.9285 35.313 95.9285C30.6517 95.9285 27.3676 95.3106 25.0635 94.569C30.1441 91.8102 37.2287 87.0651 41.784 80.2321C42.0513 79.8303 42.2335 79.378 42.3192 78.9031C42.4049 78.4281 42.3924 77.9407 42.2824 77.4708C42.1723 77.0009 41.9672 76.5585 41.6795 76.171C41.3918 75.7835 41.0278 75.4591 40.6098 75.2178C40.4024 75.0986 21.2277 63.5911 21.188 32.8428C28.2505 38.581 41.1616 47.4842 55.9134 49.9649C56.419 50.0501 56.937 50.0243 57.4316 49.8891C57.9262 49.7539 58.3854 49.5126 58.7773 49.182C59.1692 48.8514 59.4844 48.4395 59.7011 47.9748C59.9177 47.5101 60.0305 47.0038 60.0317 46.491V39.4285C60.0277 37.5448 60.4006 35.6794 61.1283 33.9419C61.8561 32.2044 62.924 30.6301 64.2692 29.3115C65.5588 28.0195 67.0943 26.9991 68.785 26.3107C70.4757 25.6223 72.2872 25.2798 74.1126 25.3035C79.7008 25.3742 84.9226 28.7818 87.1076 33.783C87.383 34.4117 87.8357 34.9466 88.4104 35.3221C88.985 35.6976 89.6566 35.8975 90.3431 35.8973H97.4056L89.3367 43.9971Z" fill="url(#paint0_linear_5297_157829)"/>
<defs>
<linearGradient id="paint0_linear_5297_157829" x1="62.0005" y1="-76.9152" x2="61.7992" y2="102.991" gradientUnits="userSpaceOnUse">
<stop stop-color="white"/>
<stop offset="1" stop-color="white" stop-opacity="0"/>
</linearGradient>
</defs>
</svg>
