<svg width="101" height="100" viewBox="0 0 101 100" fill="none" xmlns="http://www.w3.org/2000/svg">
<path d="M67.2682 56.25C69.0738 56.25 70.5668 55.6597 71.7474 54.4792C72.928 53.2986 73.5182 51.8056 73.5182 50C73.5182 48.1945 72.928 46.7014 71.7474 45.5208C70.5668 44.3403 69.0738 43.75 67.2682 43.75C65.4627 43.75 63.9696 44.3403 62.7891 45.5208C61.6085 46.7014 61.0182 48.1945 61.0182 50C61.0182 51.8056 61.6085 53.2986 62.7891 54.4792C63.9696 55.6597 65.4627 56.25 67.2682 56.25ZM21.4349 87.5C19.1432 87.5 17.1807 86.6833 15.5474 85.05C13.9141 83.4167 13.0988 81.4556 13.1016 79.1667V20.8333C13.1016 18.5417 13.9182 16.5792 15.5516 14.9458C17.1849 13.3125 19.146 12.4972 21.4349 12.5H79.7682C82.0599 12.5 84.0224 13.3167 85.6557 14.95C87.2891 16.5833 88.1043 18.5445 88.1016 20.8333V31.25H79.7682V20.8333H21.4349V79.1667H79.7682V68.75H88.1016V79.1667C88.1016 81.4583 87.2849 83.4208 85.6516 85.0542C84.0182 86.6875 82.0571 87.5028 79.7682 87.5H21.4349ZM54.7682 70.8333C52.4766 70.8333 50.5141 70.0167 48.8807 68.3833C47.2474 66.75 46.4321 64.7889 46.4349 62.5V37.5C46.4349 35.2083 47.2516 33.2458 48.8849 31.6125C50.5182 29.9792 52.4793 29.1639 54.7682 29.1667H83.9349C86.2266 29.1667 88.1891 29.9833 89.8224 31.6167C91.4557 33.25 92.271 35.2111 92.2682 37.5V62.5C92.2682 64.7917 91.4516 66.7542 89.8182 68.3875C88.1849 70.0208 86.2238 70.8361 83.9349 70.8333H54.7682ZM83.9349 62.5V37.5H54.7682V62.5H83.9349Z" fill="url(#paint0_linear_5297_157870)"/>
<defs>
<linearGradient id="paint0_linear_5297_157870" x1="52.999" y1="-88" x2="52.6849" y2="87.5" gradientUnits="userSpaceOnUse">
<stop stop-color="white"/>
<stop offset="1" stop-color="white" stop-opacity="0"/>
</linearGradient>
</defs>
</svg>
