<svg viewBox="0 0 16 16" fill="none" xmlns="http://www.w3.org/2000/svg">
  <path d="M7.5 3.50001C6.94 3.50001 6.417 3.65301 5.97 3.92001C5.92181 3.4072 5.75768 2.91206 5.49 2.47201C6.13831 2.14822 6.85523 1.9858 7.57978 1.99854C8.30433 2.01129 9.01509 2.19883 9.65161 2.54522C10.2881 2.89161 10.8316 3.3866 11.2357 3.98809C11.6399 4.58958 11.8928 5.27979 11.973 6.00001H13.251C14.217 6.00001 15.001 6.78401 15.001 7.75001V12.25C15.001 12.4799 14.9557 12.7075 14.8677 12.9199C14.7797 13.1323 14.6507 13.3253 14.4881 13.4878C14.3255 13.6503 14.1324 13.7792 13.92 13.8671C13.7076 13.955 13.4799 14.0001 13.25 14H8.75C8.28587 14 7.84075 13.8156 7.51256 13.4874C7.18437 13.1593 7 12.7141 7 12.25V10.973C6.65333 10.9345 6.31235 10.8557 5.984 10.738C5.994 10.502 6 10.256 6 10V9.92001C6 9.68001 6 9.39701 5.99 9.09301C6.30165 9.27553 6.64388 9.39989 7 9.46001V7.75001C7 6.78401 7.784 6.00001 8.75 6.00001H10.459C10.3408 5.3008 9.97876 4.66606 9.43709 4.20841C8.89541 3.75076 8.20913 3.49978 7.5 3.50001ZM11.889 7.50001C11.7 8.32646 11.2818 9.08285 10.6823 9.68233C10.0828 10.2818 9.32645 10.7 8.5 10.889V12.25C8.5 12.388 8.612 12.5 8.75 12.5H13.25C13.3163 12.5 13.3799 12.4737 13.4268 12.4268C13.4737 12.3799 13.5 12.3163 13.5 12.25V7.75001C13.5 7.6837 13.4737 7.62011 13.4268 7.57323C13.3799 7.52634 13.3163 7.50001 13.25 7.50001H11.889ZM10.329 7.50001H8.75C8.6837 7.50001 8.62011 7.52634 8.57322 7.57323C8.52634 7.62011 8.5 7.6837 8.5 7.75001V9.33001C8.922 9.1804 9.30528 8.93847 9.62187 8.62188C9.93847 8.30528 10.1804 7.922 10.33 7.50001H10.329ZM3.581 1.12501C3.664 1.19761 3.72068 1.29561 3.7422 1.40377C3.76372 1.51192 3.74889 1.62416 3.7 1.72301C3.69153 1.75226 3.68716 1.78255 3.687 1.81301C3.687 1.87601 3.703 1.99601 3.854 2.14601C3.927 2.21901 3.983 2.27101 4.044 2.32801C4.094 2.37401 4.147 2.42201 4.214 2.48801C4.344 2.61201 4.481 2.75801 4.604 2.94101C4.859 3.32401 5 3.80301 5 4.50001C5 5.33201 4.7 6.04301 4.228 6.49201C4.52 6.78801 4.69 7.17501 4.795 7.56201C5 8.31401 5 9.24401 5 9.96301V10C5 12.058 4.615 13.28 4.179 14.007C4.01429 14.2933 3.79797 14.5465 3.541 14.754C3.43923 14.8334 3.32847 14.9005 3.211 14.954C3.211 14.954 3.084 15 3 15C2.92791 14.9943 2.85693 14.9788 2.789 14.954C2.67153 14.9005 2.56077 14.8334 2.459 14.754C2.20203 14.5465 1.98571 14.2933 1.821 14.007C1.385 13.281 1 12.058 1 10V9.96401C1 9.24401 1 8.31501 1.205 7.56101C1.31 7.17501 1.48 6.78801 1.772 6.49101C1.3 6.04401 1 5.33201 1 4.50001C1 4.17401 1.087 3.78501 1.207 3.42601C1.327 3.06601 1.495 2.69401 1.689 2.39401C1.92 2.00401 2.245 1.67701 2.497 1.45701C2.63516 1.3355 2.77934 1.22102 2.929 1.11401L2.959 1.09401L2.968 1.08701L2.971 1.08501L2.973 1.08401C3.0647 1.02288 3.17402 0.993765 3.28397 1.00118C3.39392 1.00859 3.49834 1.05212 3.581 1.12501Z" fill="#E6CCFF"/>
</svg>
