<svg width="48" height="48" viewBox="0 0 48 48" fill="none" xmlns="http://www.w3.org/2000/svg">
<circle cx="24" cy="24" r="24" fill="url(#paint0_linear_2978_85697)"/>
<path fill-rule="evenodd" clip-rule="evenodd" d="M25.6312 11.1917L15.5364 17.0256C15.3655 17.121 15.2232 17.2603 15.1242 17.4291C15.0251 17.5979 14.9729 17.79 14.9729 17.9857V23.4088L25.6194 17.2016C25.7952 17.1035 25.9932 17.0519 26.1946 17.0519C26.396 17.0519 26.594 17.1035 26.7698 17.2016L29.8452 18.9741C30.0594 19.1002 30.3096 19.1514 30.5562 19.1195C30.8027 19.0876 31.0317 18.9745 31.2068 18.798L33.3549 16.6382C33.475 16.5149 33.5656 16.366 33.6199 16.2026C33.6741 16.0392 33.6905 15.8656 33.6679 15.695C33.6453 15.5243 33.5843 15.361 33.4894 15.2174C33.3945 15.0737 33.2682 14.9535 33.1201 14.8657L26.758 11.1917C26.5865 11.0936 26.3922 11.042 26.1946 11.042C25.997 11.042 25.8027 11.0936 25.6312 11.1917ZM26.7578 36.3089L33.1433 32.6231C33.2319 32.5746 33.3113 32.511 33.3781 32.4353C33.5867 32.2244 33.7037 31.9397 33.7037 31.643C33.7037 31.3463 33.5867 31.0616 33.3781 30.8507L31.2183 28.6908C31.0416 28.517 30.8129 28.4057 30.5671 28.3739C30.3212 28.3421 30.0717 28.3916 29.8566 28.5148L26.7578 30.299C26.5862 30.3971 26.392 30.4487 26.1943 30.4487C25.9967 30.4487 25.8025 30.3971 25.6309 30.299L20.7361 27.4701C20.5645 27.3719 20.4219 27.2301 20.3229 27.059C20.224 26.8878 20.1721 26.6935 20.1727 26.4958V21.5658L14.9727 24.5825V29.5008C14.9721 29.6985 15.024 29.8928 15.1229 30.0639C15.2219 30.2351 15.3645 30.3769 15.5361 30.475L25.6309 36.3089C25.8025 36.407 25.9967 36.4586 26.1943 36.4586C26.392 36.4586 26.5862 36.407 26.7578 36.3089Z" fill="black"/>
<defs>
<linearGradient id="paint0_linear_2978_85697" x1="0" y1="0" x2="39.2727" y2="56.1818" gradientUnits="userSpaceOnUse">
<stop stop-color="#83EF9A"/>
<stop offset="1" stop-color="#166397"/>
</linearGradient>
</defs>
</svg>
