<svg width="20" height="20" viewBox="0 0 20 20" fill="none" xmlns="http://www.w3.org/2000/svg">
<path d="M7.5013 18.3327H12.5013C16.668 18.3327 18.3346 16.666 18.3346 12.4993V7.49935C18.3346 3.33268 16.668 1.66602 12.5013 1.66602H7.5013C3.33464 1.66602 1.66797 3.33268 1.66797 7.49935V12.4993C1.66797 16.666 3.33464 18.3327 7.5013 18.3327Z" stroke="white" strokeWidth="1.5" stroke-linecap="round" strokeLinejoin="round"/>
<path d="M7.4987 8.33333C8.41917 8.33333 9.16536 7.58714 9.16536 6.66667C9.16536 5.74619 8.41917 5 7.4987 5C6.57822 5 5.83203 5.74619 5.83203 6.66667C5.83203 7.58714 6.57822 8.33333 7.4987 8.33333Z" stroke="white" strokeWidth="1.5" stroke-linecap="round" strokeLinejoin="round"/>
<path d="M2.22461 15.7918L6.33294 13.0335C6.99128 12.5918 7.94128 12.6418 8.53294 13.1501L8.80794 13.3918C9.45794 13.9501 10.5079 13.9501 11.1579 13.3918L14.6246 10.4168C15.2746 9.85846 16.3246 9.85846 16.9746 10.4168L18.3329 11.5835" stroke="white" strokeWidth="1.5" stroke-linecap="round" strokeLinejoin="round"/>
</svg>
