<svg width="20" height="20" viewBox="0 0 20 20" fill="none" xmlns="http://www.w3.org/2000/svg">
<path d="M8.2246 4.72525L5.37461 6.45859L4.07461 4.32526C3.59961 3.54193 3.84961 2.5086 4.63294 2.0336C5.41627 1.5586 6.44961 1.80858 6.92461 2.59191L8.2246 4.72525Z" stroke="#B2FFC3" strokeWidth="1.5" stroke-linecap="round" strokeLinejoin="round"/>
<path d="M9.85059 7.63333L7.21725 9.23336C5.68392 10.1667 5.21724 12.05 5.95891 13.55L7.66725 17.0333C8.21725 18.1583 9.55059 18.55 10.6173 17.8917L15.9756 14.6333C17.0506 13.9833 17.3089 12.625 16.5673 11.6167L14.2589 8.50002C13.2589 7.15002 11.3839 6.69999 9.85059 7.63333Z" stroke="#B2FFC3" strokeWidth="1.5" stroke-linecap="round" strokeLinejoin="round"/>
<path d="M8.96386 4.24813L4.69336 6.84863L6.42703 9.69563L10.6975 7.09513L8.96386 4.24813Z" stroke="#B2FFC3" strokeWidth="1.5" stroke-linecap="round" strokeLinejoin="round"/>
<path d="M11.9258 14.0088L13.3008 16.2671" stroke="#B2FFC3" strokeWidth="1.5" stroke-linecap="round" strokeLinejoin="round"/>
<path d="M9.79297 15.3086L11.168 17.5669" stroke="#B2FFC3" strokeWidth="1.5" stroke-linecap="round" strokeLinejoin="round"/>
<path d="M14.0586 12.709L15.4336 14.9673" stroke="#B2FFC3" strokeWidth="1.5" stroke-linecap="round" strokeLinejoin="round"/>
</svg>
