<svg width="292" height="130" viewBox="0 0 292 130" fill="none" xmlns="http://www.w3.org/2000/svg">
<line x1="16.4521" y1="0.639539" x2="289.992" y2="0.639539" stroke="#2B2E31" stroke-width="0.536353" stroke-dasharray="1.07 1.07"/>
<line x1="16" y1="21.7318" x2="289.54" y2="21.7318" stroke="#2B2E31" stroke-width="0.536353" stroke-dasharray="1.07 1.07"/>
<line x1="17.5264" y1="43.5477" x2="291.066" y2="43.5477" stroke="#2B2E31" stroke-width="0.536353" stroke-dasharray="1.07 1.07"/>
<line x1="16.4521" y1="65.0028" x2="289.992" y2="65.0028" stroke="#2B2E31" stroke-width="0.536353" stroke-dasharray="1.07 1.07"/>
<line x1="17.5264" y1="86.4555" x2="291.066" y2="86.4555" stroke="#2B2E31" stroke-width="0.536353" stroke-dasharray="1.07 1.07"/>
<line x1="17.5264" y1="107.911" x2="291.066" y2="107.911" stroke="#2B2E31" stroke-width="0.536353" stroke-dasharray="1.07 1.07"/>
<path d="M59.6122 43.7476C42.8442 43.7476 37.3465 64.8675 18.1045 64.8675V108.177H290.516V64.8675C290.516 64.8675 270.449 22.3604 256.705 22.3604C242.961 22.3603 234.164 64.8675 221.245 64.8675C208.325 64.8675 212.173 43.7476 192.657 43.7476C173.14 43.7476 177.263 64.8675 157.471 64.8675C137.68 64.8675 147.575 22.3603 126.409 22.3604C105.243 22.3604 108.267 64.8675 94.2477 64.8675C80.2285 64.8675 76.3802 43.7476 59.6122 43.7476Z" fill="url(#paint0_linear_4020_97520)" fill-opacity="0.5"/>
<path d="M18.1045 64.7333C37.3659 64.7333 42.8692 43.5474 59.6541 43.5474C76.439 43.5474 80.2913 64.7333 94.3246 64.7333C108.358 64.7333 105.331 22.0933 126.519 22.0933C147.706 22.0932 137.8 64.7333 157.612 64.7333C177.424 64.7333 173.296 43.5474 192.833 43.5474C212.369 43.5474 208.517 64.7333 221.45 64.7333C234.383 64.7333 243.188 22.0932 256.946 22.0933C270.704 22.0933 290.791 64.7333 290.791 64.7333" stroke="#B2FFC3" stroke-width="0.804529"/>
<path d="M21.3662 126.41C21.4012 126.47 21.4312 126.534 21.4563 126.601C21.4838 126.666 21.5101 126.733 21.5351 126.8C21.5601 126.73 21.5864 126.664 21.614 126.601C21.6415 126.536 21.6728 126.471 21.7078 126.406L23.5287 123.098C23.5613 123.041 23.5951 123.006 23.6301 122.993C23.6652 122.981 23.7152 122.974 23.7803 122.974H24.3172V128.355H23.6789V124.401C23.6789 124.349 23.6802 124.292 23.6827 124.232C23.6852 124.172 23.6889 124.111 23.6939 124.048L21.8505 127.412C21.7879 127.525 21.7003 127.581 21.5877 127.581H21.4826C21.3699 127.581 21.2823 127.525 21.2197 127.412L19.335 124.037C19.3425 124.102 19.3475 124.166 19.35 124.228C19.355 124.291 19.3575 124.349 19.3575 124.401V128.355H18.7193V122.974H19.2562C19.3212 122.974 19.3713 122.981 19.4063 122.993C19.4414 123.006 19.4752 123.041 19.5077 123.098L21.3662 126.41Z" fill="#52585E"/>
<path d="M28.3151 128.355H28.0185C27.9534 128.355 27.9009 128.345 27.8608 128.325C27.8208 128.304 27.7945 128.262 27.782 128.197L27.7069 127.844C27.6068 127.934 27.5091 128.015 27.414 128.088C27.3189 128.158 27.2188 128.218 27.1137 128.268C27.0085 128.316 26.8959 128.352 26.7758 128.377C26.6581 128.402 26.5267 128.415 26.3816 128.415C26.2339 128.415 26.095 128.395 25.9648 128.355C25.8372 128.312 25.7258 128.249 25.6307 128.167C25.5355 128.084 25.4592 127.98 25.4016 127.855C25.3466 127.728 25.319 127.577 25.319 127.405C25.319 127.254 25.3603 127.111 25.4429 126.973C25.5255 126.833 25.6582 126.709 25.8409 126.601C26.0261 126.494 26.2677 126.406 26.5655 126.338C26.8634 126.268 27.2276 126.228 27.6581 126.218V125.922C27.6581 125.626 27.5942 125.404 27.4666 125.253C27.3414 125.101 27.155 125.024 26.9072 125.024C26.7445 125.024 26.6068 125.046 26.4942 125.088C26.3841 125.128 26.2877 125.175 26.2051 125.227C26.125 125.277 26.0549 125.323 25.9948 125.366C25.9373 125.406 25.8797 125.426 25.8221 125.426C25.7771 125.426 25.737 125.415 25.702 125.392C25.6695 125.367 25.6432 125.337 25.6231 125.302L25.503 125.088C25.7133 124.885 25.9398 124.734 26.1826 124.634C26.4254 124.534 26.6944 124.484 26.9898 124.484C27.2025 124.484 27.3915 124.519 27.5567 124.589C27.7219 124.659 27.8608 124.757 27.9734 124.882C28.0861 125.007 28.1712 125.158 28.2288 125.336C28.2863 125.514 28.3151 125.709 28.3151 125.922V128.355ZM26.5805 127.945C26.6982 127.945 26.8058 127.934 26.9034 127.912C27.001 127.886 27.0924 127.853 27.1775 127.81C27.2651 127.765 27.3477 127.711 27.4253 127.649C27.5054 127.586 27.583 127.515 27.6581 127.435V126.643C27.3502 126.653 27.0886 126.678 26.8734 126.718C26.6581 126.755 26.4829 126.805 26.3478 126.868C26.2126 126.93 26.1137 127.004 26.0512 127.089C25.9911 127.174 25.9611 127.27 25.9611 127.375C25.9611 127.475 25.9773 127.561 26.0099 127.634C26.0424 127.706 26.0862 127.766 26.1413 127.814C26.1963 127.859 26.2614 127.893 26.3365 127.915C26.4116 127.935 26.4929 127.945 26.5805 127.945Z" fill="#52585E"/>
<path d="M30.3253 129.477C30.3028 129.527 30.274 129.567 30.239 129.597C30.2064 129.627 30.1551 129.642 30.085 129.642H29.5895L30.284 128.133L28.7147 124.551H29.2928C29.3504 124.551 29.3955 124.566 29.428 124.596C29.4605 124.624 29.4843 124.655 29.4993 124.69L30.5168 127.086C30.5393 127.141 30.5581 127.196 30.5731 127.251C30.5906 127.306 30.6057 127.362 30.6182 127.42C30.6357 127.362 30.6532 127.306 30.6707 127.251C30.6883 127.196 30.7083 127.139 30.7308 127.082L31.7182 124.69C31.7333 124.65 31.7583 124.618 31.7933 124.593C31.8309 124.565 31.8709 124.551 31.9135 124.551H32.4466L30.3253 129.477Z" fill="#52585E"/>
<path d="M35.034 127.844H36.1904V124.176C36.1904 124.066 36.1942 123.954 36.2017 123.842L35.2405 124.664C35.2155 124.684 35.1905 124.699 35.1654 124.709C35.1404 124.716 35.1166 124.72 35.0941 124.72C35.0565 124.72 35.0228 124.713 34.9927 124.698C34.9627 124.68 34.9402 124.66 34.9251 124.638L34.7149 124.349L36.3143 122.963H36.8587V127.844H37.9174V128.355H35.034V127.844Z" fill="#52585E"/>
<path d="M53.0932 126.41C53.1283 126.47 53.1583 126.534 53.1833 126.601C53.2109 126.666 53.2371 126.733 53.2622 126.8C53.2872 126.73 53.3135 126.664 53.341 126.601C53.3686 126.536 53.3998 126.471 53.4349 126.406L55.2558 123.098C55.2883 123.041 55.3221 123.006 55.3572 122.993C55.3922 122.981 55.4423 122.974 55.5073 122.974H56.0442V128.355H55.406V124.401C55.406 124.349 55.4072 124.292 55.4097 124.232C55.4122 124.172 55.416 124.111 55.421 124.048L53.5775 127.412C53.515 127.525 53.4274 127.581 53.3147 127.581H53.2096C53.097 127.581 53.0094 127.525 52.9468 127.412L51.0621 124.037C51.0696 124.102 51.0746 124.166 51.0771 124.228C51.0821 124.291 51.0846 124.349 51.0846 124.401V128.355H50.4463V122.974H50.9832C51.0483 122.974 51.0984 122.981 51.1334 122.993C51.1684 123.006 51.2022 123.041 51.2348 123.098L53.0932 126.41Z" fill="#52585E"/>
<path d="M60.0422 128.355H59.7456C59.6805 128.355 59.6279 128.345 59.5879 128.325C59.5478 128.304 59.5215 128.262 59.509 128.197L59.4339 127.844C59.3338 127.934 59.2362 128.015 59.1411 128.088C59.046 128.158 58.9459 128.218 58.8407 128.268C58.7356 128.316 58.623 128.352 58.5028 128.377C58.3852 128.402 58.2538 128.415 58.1086 128.415C57.9609 128.415 57.822 128.395 57.6919 128.355C57.5642 128.312 57.4528 128.249 57.3577 128.167C57.2626 128.084 57.1863 127.98 57.1287 127.855C57.0736 127.728 57.0461 127.577 57.0461 127.405C57.0461 127.254 57.0874 127.111 57.17 126.973C57.2526 126.833 57.3852 126.709 57.568 126.601C57.7532 126.494 57.9947 126.406 58.2926 126.338C58.5904 126.268 58.9546 126.228 59.3851 126.218V125.922C59.3851 125.626 59.3213 125.404 59.1936 125.253C59.0685 125.101 58.882 125.024 58.6342 125.024C58.4715 125.024 58.3339 125.046 58.2212 125.088C58.1111 125.128 58.0147 125.175 57.9321 125.227C57.8521 125.277 57.782 125.323 57.7219 125.366C57.6643 125.406 57.6068 125.426 57.5492 125.426C57.5041 125.426 57.4641 125.415 57.429 125.392C57.3965 125.367 57.3702 125.337 57.3502 125.302L57.2301 125.088C57.4403 124.885 57.6668 124.734 57.9096 124.634C58.1524 124.534 58.4215 124.484 58.7168 124.484C58.9296 124.484 59.1186 124.519 59.2838 124.589C59.449 124.659 59.5879 124.757 59.7005 124.882C59.8131 125.007 59.8982 125.158 59.9558 125.336C60.0134 125.514 60.0422 125.709 60.0422 125.922V128.355ZM58.3076 127.945C58.4252 127.945 58.5329 127.934 58.6305 127.912C58.7281 127.886 58.8195 127.853 58.9046 127.81C58.9922 127.765 59.0748 127.711 59.1524 127.649C59.2324 127.586 59.31 127.515 59.3851 127.435V126.643C59.0773 126.653 58.8157 126.678 58.6004 126.718C58.3852 126.755 58.21 126.805 58.0748 126.868C57.9397 126.93 57.8408 127.004 57.7782 127.089C57.7181 127.174 57.6881 127.27 57.6881 127.375C57.6881 127.475 57.7044 127.561 57.7369 127.634C57.7695 127.706 57.8133 127.766 57.8683 127.814C57.9234 127.859 57.9885 127.893 58.0636 127.915C58.1386 127.935 58.22 127.945 58.3076 127.945Z" fill="#52585E"/>
<path d="M62.0524 129.477C62.0299 129.527 62.0011 129.567 61.966 129.597C61.9335 129.627 61.8822 129.642 61.8121 129.642H61.3165L62.0111 128.133L60.4417 124.551H61.0199C61.0775 124.551 61.1225 124.566 61.1551 124.596C61.1876 124.624 61.2114 124.655 61.2264 124.69L62.2439 127.086C62.2664 127.141 62.2852 127.196 62.3002 127.251C62.3177 127.306 62.3327 127.362 62.3452 127.42C62.3628 127.362 62.3803 127.306 62.3978 127.251C62.4153 127.196 62.4353 127.139 62.4579 127.082L63.4453 124.69C63.4603 124.65 63.4853 124.618 63.5204 124.593C63.5579 124.565 63.598 124.551 63.6405 124.551H64.1737L62.0524 129.477Z" fill="#52585E"/>
<path d="M67.94 122.914C68.1678 122.914 68.3805 122.948 68.5782 123.016C68.776 123.083 68.9462 123.182 69.0888 123.312C69.234 123.44 69.3479 123.596 69.4305 123.782C69.5131 123.967 69.5544 124.177 69.5544 124.412C69.5544 124.613 69.5244 124.798 69.4643 124.968C69.4042 125.138 69.3229 125.302 69.2203 125.46C69.1176 125.615 68.9987 125.766 68.8636 125.914C68.7309 126.059 68.5895 126.208 68.4393 126.361L67.0239 127.81C67.124 127.783 67.2254 127.761 67.328 127.746C67.4306 127.729 67.5295 127.72 67.6246 127.72H69.4267C69.4993 127.72 69.5569 127.741 69.5994 127.784C69.642 127.826 69.6633 127.881 69.6633 127.949V128.355H66.074V128.126C66.074 128.078 66.0828 128.029 66.1003 127.979C66.1203 127.929 66.1516 127.883 66.1941 127.84L67.9174 126.109C68.0601 125.964 68.1903 125.825 68.3079 125.693C68.4256 125.557 68.5257 125.422 68.6083 125.287C68.6934 125.152 68.7585 125.016 68.8035 124.878C68.8486 124.738 68.8711 124.589 68.8711 124.431C68.8711 124.273 68.8461 124.136 68.796 124.018C68.7459 123.898 68.6771 123.799 68.5895 123.722C68.5019 123.644 68.3993 123.586 68.2816 123.549C68.164 123.509 68.0376 123.489 67.9024 123.489C67.7673 123.489 67.6421 123.509 67.527 123.549C67.4118 123.589 67.3092 123.645 67.2191 123.718C67.1315 123.788 67.0564 123.872 66.9939 123.969C66.9338 124.067 66.8912 124.175 66.8662 124.292C66.8462 124.365 66.8161 124.417 66.7761 124.45C66.736 124.482 66.6835 124.499 66.6184 124.499C66.6059 124.499 66.5921 124.499 66.5771 124.499C66.5646 124.496 66.5496 124.494 66.5321 124.491L66.1829 124.431C66.2179 124.186 66.2855 123.969 66.3856 123.782C66.4857 123.591 66.6121 123.432 66.7648 123.305C66.92 123.177 67.0965 123.081 67.2942 123.016C67.4944 122.948 67.7097 122.914 67.94 122.914Z" fill="#52585E"/>
<path d="M87.8051 122.974V128.355H87.1668V124.401C87.1668 124.349 87.1681 124.292 87.1706 124.232C87.1756 124.172 87.1806 124.111 87.1856 124.048L85.3384 127.412C85.2808 127.525 85.1932 127.581 85.0756 127.581H84.9705C84.8528 127.581 84.7652 127.525 84.7076 127.412L82.8229 124.033C82.8379 124.166 82.8454 124.288 82.8454 124.401V128.355H82.2072V122.974H82.7441C82.8091 122.974 82.8592 122.981 82.8942 122.993C82.9293 123.006 82.9631 123.041 82.9956 123.098L84.8541 126.41C84.8841 126.47 84.9129 126.532 84.9404 126.597C84.9705 126.663 84.998 126.729 85.023 126.796C85.048 126.729 85.0743 126.663 85.1019 126.597C85.1294 126.53 85.1594 126.466 85.192 126.406L87.0166 123.098C87.0467 123.041 87.0792 123.006 87.1143 122.993C87.1518 122.981 87.2031 122.974 87.2682 122.974H87.8051Z" fill="#52585E"/>
<path d="M90.9743 126.643C90.6665 126.653 90.4036 126.678 90.1859 126.718C89.9706 126.755 89.7942 126.805 89.6565 126.868C89.5213 126.93 89.4225 127.004 89.3599 127.089C89.2998 127.174 89.2698 127.27 89.2698 127.375C89.2698 127.475 89.2861 127.561 89.3186 127.634C89.3511 127.706 89.3949 127.766 89.45 127.814C89.5076 127.859 89.5739 127.893 89.649 127.915C89.7266 127.935 89.8092 127.945 89.8968 127.945C90.0144 127.945 90.1221 127.934 90.2197 127.912C90.3173 127.886 90.4087 127.851 90.4938 127.806C90.5814 127.761 90.664 127.708 90.7415 127.645C90.8216 127.582 90.8992 127.511 90.9743 127.431V126.643ZM88.8155 125.088C89.0257 124.885 89.2523 124.734 89.4951 124.634C89.7379 124.534 90.0069 124.484 90.3023 124.484C90.515 124.484 90.704 124.519 90.8692 124.589C91.0344 124.659 91.1733 124.757 91.2859 124.882C91.3986 125.007 91.4837 125.158 91.5412 125.336C91.5988 125.514 91.6276 125.709 91.6276 125.922V128.355H91.331C91.2659 128.355 91.2159 128.345 91.1808 128.325C91.1458 128.302 91.1182 128.259 91.0982 128.197L91.0231 127.836C90.923 127.929 90.8254 128.012 90.7303 128.084C90.6352 128.154 90.535 128.214 90.4299 128.264C90.3248 128.312 90.2122 128.348 90.092 128.373C89.9744 128.401 89.843 128.415 89.6978 128.415C89.5501 128.415 89.4112 128.395 89.2811 128.355C89.1509 128.312 89.037 128.249 88.9394 128.167C88.8443 128.084 88.7679 127.98 88.7104 127.855C88.6553 127.728 88.6278 127.577 88.6278 127.405C88.6278 127.254 88.6691 127.111 88.7517 126.973C88.8343 126.833 88.9682 126.709 89.1534 126.601C89.3386 126.494 89.5802 126.406 89.878 126.338C90.1759 126.268 90.5413 126.228 90.9743 126.218V125.922C90.9743 125.626 90.9105 125.404 90.7828 125.253C90.6552 125.101 90.4687 125.024 90.2234 125.024C90.0582 125.024 89.9193 125.046 89.8067 125.088C89.6965 125.128 89.6002 125.175 89.5176 125.227C89.4375 125.277 89.3674 125.323 89.3073 125.366C89.2498 125.406 89.1922 125.426 89.1346 125.426C89.0896 125.426 89.0508 125.415 89.0182 125.392C88.9857 125.367 88.9582 125.337 88.9356 125.302L88.8155 125.088Z" fill="#52585E"/>
<path d="M95.839 124.551L93.7177 129.477C93.6952 129.527 93.6664 129.567 93.6314 129.597C93.5988 129.627 93.5475 129.642 93.4774 129.642H92.9818L93.6764 128.133L92.1071 124.551H92.6852C92.7428 124.551 92.7879 124.566 92.8204 124.596C92.8554 124.624 92.8792 124.655 92.8917 124.69L93.9092 127.086C93.9493 127.191 93.983 127.301 94.0106 127.416C94.0456 127.298 94.0832 127.187 94.1232 127.082L95.1106 124.69C95.1257 124.65 95.1507 124.618 95.1857 124.593C95.2233 124.565 95.2646 124.551 95.3096 124.551H95.839Z" fill="#52585E"/>
<path d="M98.3093 124.431C98.3444 124.186 98.4119 123.969 98.5121 123.782C98.6122 123.591 98.7386 123.432 98.8913 123.305C99.0465 123.177 99.2229 123.081 99.4206 123.016C99.6209 122.948 99.8361 122.914 100.066 122.914C100.294 122.914 100.504 122.947 100.697 123.012C100.89 123.077 101.055 123.17 101.193 123.29C101.333 123.41 101.442 123.555 101.519 123.725C101.597 123.895 101.636 124.084 101.636 124.292C101.636 124.462 101.613 124.615 101.568 124.75C101.526 124.883 101.463 124.999 101.38 125.099C101.3 125.2 101.203 125.285 101.088 125.355C100.972 125.425 100.844 125.482 100.701 125.527C101.051 125.618 101.314 125.773 101.489 125.993C101.667 126.211 101.756 126.484 101.756 126.811C101.756 127.059 101.708 127.282 101.613 127.48C101.521 127.677 101.393 127.846 101.23 127.987C101.068 128.124 100.877 128.231 100.66 128.306C100.444 128.378 100.213 128.415 99.965 128.415C99.6797 128.415 99.4357 128.38 99.2329 128.309C99.0302 128.237 98.8587 128.138 98.7186 128.013C98.5784 127.888 98.4633 127.74 98.3731 127.57C98.283 127.397 98.2067 127.211 98.1441 127.01L98.4332 126.89C98.5083 126.858 98.5809 126.849 98.651 126.864C98.7236 126.879 98.7761 126.92 98.8087 126.988C98.8412 127.058 98.8813 127.142 98.9288 127.239C98.9789 127.337 99.0464 127.431 99.1315 127.521C99.2166 127.611 99.3243 127.688 99.4544 127.75C99.5871 127.813 99.7548 127.844 99.9575 127.844C100.145 127.844 100.309 127.814 100.449 127.754C100.592 127.691 100.71 127.611 100.802 127.514C100.897 127.416 100.969 127.307 101.016 127.187C101.064 127.067 101.088 126.948 101.088 126.83C101.088 126.685 101.069 126.552 101.031 126.432C100.994 126.312 100.924 126.208 100.821 126.121C100.718 126.033 100.577 125.964 100.397 125.914C100.219 125.864 99.9901 125.839 99.7097 125.839V125.355C99.94 125.352 100.135 125.327 100.295 125.28C100.458 125.232 100.59 125.167 100.69 125.084C100.792 125.002 100.866 124.903 100.911 124.788C100.959 124.673 100.983 124.545 100.983 124.405C100.983 124.25 100.957 124.115 100.907 123.999C100.86 123.884 100.794 123.789 100.708 123.714C100.623 123.639 100.522 123.583 100.404 123.545C100.289 123.508 100.164 123.489 100.029 123.489C99.8937 123.489 99.7673 123.509 99.6497 123.549C99.5345 123.589 99.4319 123.645 99.3418 123.718C99.2542 123.788 99.1804 123.872 99.1203 123.969C99.0602 124.067 99.0177 124.175 98.9926 124.292C98.9601 124.38 98.9188 124.439 98.8687 124.469C98.8212 124.496 98.7511 124.504 98.6585 124.491L98.3093 124.431Z" fill="#52585E"/>
<path d="M116.547 126.41C116.582 126.47 116.612 126.534 116.637 126.601C116.665 126.666 116.691 126.733 116.716 126.8C116.741 126.73 116.768 126.664 116.795 126.601C116.823 126.536 116.854 126.471 116.889 126.406L118.71 123.098C118.742 123.041 118.776 123.006 118.811 122.993C118.846 122.981 118.896 122.974 118.961 122.974H119.498V128.355H118.86V124.401C118.86 124.349 118.861 124.292 118.864 124.232C118.866 124.172 118.87 124.111 118.875 124.048L117.032 127.412C116.969 127.525 116.881 127.581 116.769 127.581H116.664C116.551 127.581 116.463 127.525 116.401 127.412L114.516 124.037C114.524 124.102 114.529 124.166 114.531 124.228C114.536 124.291 114.539 124.349 114.539 124.401V128.355H113.9V122.974H114.437C114.502 122.974 114.552 122.981 114.587 122.993C114.623 123.006 114.656 123.041 114.689 123.098L116.547 126.41Z" fill="#52585E"/>
<path d="M123.496 128.355H123.2C123.135 128.355 123.082 128.345 123.042 128.325C123.002 128.304 122.976 128.262 122.963 128.197L122.888 127.844C122.788 127.934 122.69 128.015 122.595 128.088C122.5 128.158 122.4 128.218 122.295 128.268C122.19 128.316 122.077 128.352 121.957 128.377C121.839 128.402 121.708 128.415 121.563 128.415C121.415 128.415 121.276 128.395 121.146 128.355C121.018 128.312 120.907 128.249 120.812 128.167C120.717 128.084 120.64 127.98 120.583 127.855C120.528 127.728 120.5 127.577 120.5 127.405C120.5 127.254 120.541 127.111 120.624 126.973C120.707 126.833 120.839 126.709 121.022 126.601C121.207 126.494 121.449 126.406 121.747 126.338C122.045 126.268 122.409 126.228 122.839 126.218V125.922C122.839 125.626 122.775 125.404 122.648 125.253C122.523 125.101 122.336 125.024 122.088 125.024C121.926 125.024 121.788 125.046 121.675 125.088C121.565 125.128 121.469 125.175 121.386 125.227C121.306 125.277 121.236 125.323 121.176 125.366C121.118 125.406 121.061 125.426 121.003 125.426C120.958 125.426 120.918 125.415 120.883 125.392C120.851 125.367 120.824 125.337 120.804 125.302L120.684 125.088C120.894 124.885 121.121 124.734 121.364 124.634C121.607 124.534 121.876 124.484 122.171 124.484C122.384 124.484 122.573 124.519 122.738 124.589C122.903 124.659 123.042 124.757 123.155 124.882C123.267 125.007 123.352 125.158 123.41 125.336C123.467 125.514 123.496 125.709 123.496 125.922V128.355ZM121.762 127.945C121.879 127.945 121.987 127.934 122.085 127.912C122.182 127.886 122.274 127.853 122.359 127.81C122.446 127.765 122.529 127.711 122.606 127.649C122.687 127.586 122.764 127.515 122.839 127.435V126.643C122.531 126.653 122.27 126.678 122.055 126.718C121.839 126.755 121.664 126.805 121.529 126.868C121.394 126.93 121.295 127.004 121.232 127.089C121.172 127.174 121.142 127.27 121.142 127.375C121.142 127.475 121.158 127.561 121.191 127.634C121.224 127.706 121.267 127.766 121.322 127.814C121.377 127.859 121.443 127.893 121.518 127.915C121.593 127.935 121.674 127.945 121.762 127.945Z" fill="#52585E"/>
<path d="M125.506 129.477C125.484 129.527 125.455 129.567 125.42 129.597C125.388 129.627 125.336 129.642 125.266 129.642H124.771L125.465 128.133L123.896 124.551H124.474C124.532 124.551 124.577 124.566 124.609 124.596C124.642 124.624 124.665 124.655 124.681 124.69L125.698 127.086C125.72 127.141 125.739 127.196 125.754 127.251C125.772 127.306 125.787 127.362 125.799 127.42C125.817 127.362 125.834 127.306 125.852 127.251C125.869 127.196 125.889 127.139 125.912 127.082L126.899 124.69C126.914 124.65 126.939 124.618 126.974 124.593C127.012 124.565 127.052 124.551 127.095 124.551H127.628L125.506 129.477Z" fill="#52585E"/>
<path d="M132.528 126.413H133.343V126.796C133.343 126.836 133.33 126.87 133.305 126.898C133.283 126.925 133.246 126.939 133.196 126.939H132.528V128.355H131.938V126.939H129.554C129.504 126.939 129.461 126.925 129.423 126.898C129.388 126.868 129.365 126.831 129.355 126.789L129.288 126.447L131.905 122.974H132.528V126.413ZM131.938 124.195C131.938 124.13 131.94 124.059 131.942 123.984C131.947 123.909 131.956 123.832 131.969 123.752L130.012 126.413H131.938V124.195Z" fill="#52585E"/>
<path d="M151.259 122.974V128.355H150.621V124.401C150.621 124.349 150.622 124.292 150.625 124.232C150.63 124.172 150.635 124.111 150.64 124.048L148.792 127.412C148.735 127.525 148.647 127.581 148.53 127.581H148.425C148.307 127.581 148.219 127.525 148.162 127.412L146.277 124.033C146.292 124.166 146.3 124.288 146.3 124.401V128.355H145.661V122.974H146.198C146.263 122.974 146.313 122.981 146.348 122.993C146.383 123.006 146.417 123.041 146.45 123.098L148.308 126.41C148.338 126.47 148.367 126.532 148.395 126.597C148.425 126.663 148.452 126.729 148.477 126.796C148.502 126.729 148.528 126.663 148.556 126.597C148.584 126.53 148.614 126.466 148.646 126.406L150.471 123.098C150.501 123.041 150.533 123.006 150.568 122.993C150.606 122.981 150.657 122.974 150.722 122.974H151.259Z" fill="#52585E"/>
<path d="M154.428 126.643C154.121 126.653 153.858 126.678 153.64 126.718C153.425 126.755 153.248 126.805 153.111 126.868C152.975 126.93 152.877 127.004 152.814 127.089C152.754 127.174 152.724 127.27 152.724 127.375C152.724 127.475 152.74 127.561 152.773 127.634C152.805 127.706 152.849 127.766 152.904 127.814C152.962 127.859 153.028 127.893 153.103 127.915C153.181 127.935 153.263 127.945 153.351 127.945C153.469 127.945 153.576 127.934 153.674 127.912C153.771 127.886 153.863 127.851 153.948 127.806C154.035 127.761 154.118 127.708 154.196 127.645C154.276 127.582 154.353 127.511 154.428 127.431V126.643ZM152.27 125.088C152.48 124.885 152.706 124.734 152.949 124.634C153.192 124.534 153.461 124.484 153.756 124.484C153.969 124.484 154.158 124.519 154.323 124.589C154.488 124.659 154.627 124.757 154.74 124.882C154.853 125.007 154.938 125.158 154.995 125.336C155.053 125.514 155.082 125.709 155.082 125.922V128.355H154.785C154.72 128.355 154.67 128.345 154.635 128.325C154.6 128.302 154.572 128.259 154.552 128.197L154.477 127.836C154.377 127.929 154.28 128.012 154.184 128.084C154.089 128.154 153.989 128.214 153.884 128.264C153.779 128.312 153.666 128.348 153.546 128.373C153.428 128.401 153.297 128.415 153.152 128.415C153.004 128.415 152.865 128.395 152.735 128.355C152.605 128.312 152.491 128.249 152.393 128.167C152.298 128.084 152.222 127.98 152.164 127.855C152.109 127.728 152.082 127.577 152.082 127.405C152.082 127.254 152.123 127.111 152.206 126.973C152.288 126.833 152.422 126.709 152.607 126.601C152.793 126.494 153.034 126.406 153.332 126.338C153.63 126.268 153.995 126.228 154.428 126.218V125.922C154.428 125.626 154.365 125.404 154.237 125.253C154.109 125.101 153.923 125.024 153.678 125.024C153.512 125.024 153.373 125.046 153.261 125.088C153.151 125.128 153.054 125.175 152.972 125.227C152.892 125.277 152.822 125.323 152.761 125.366C152.704 125.406 152.646 125.426 152.589 125.426C152.544 125.426 152.505 125.415 152.472 125.392C152.44 125.367 152.412 125.337 152.39 125.302L152.27 125.088Z" fill="#52585E"/>
<path d="M159.293 124.551L157.172 129.477C157.149 129.527 157.121 129.567 157.085 129.597C157.053 129.627 157.002 129.642 156.932 129.642H156.436L157.131 128.133L155.561 124.551H156.139C156.197 124.551 156.242 124.566 156.275 124.596C156.31 124.624 156.333 124.655 156.346 124.69L157.363 127.086C157.403 127.191 157.437 127.301 157.465 127.416C157.5 127.298 157.537 127.187 157.577 127.082L158.565 124.69C158.58 124.65 158.605 124.618 158.64 124.593C158.677 124.565 158.719 124.551 158.764 124.551H159.293Z" fill="#52585E"/>
<path d="M162.634 125.006C162.915 124.945 163.173 124.915 163.408 124.915C163.688 124.915 163.936 124.957 164.151 125.039C164.367 125.122 164.545 125.236 164.688 125.381C164.833 125.526 164.942 125.698 165.015 125.895C165.09 126.093 165.127 126.308 165.127 126.541C165.127 126.826 165.077 127.084 164.977 127.315C164.88 127.545 164.743 127.743 164.568 127.908C164.395 128.07 164.191 128.196 163.956 128.283C163.721 128.371 163.467 128.415 163.194 128.415C163.036 128.415 162.885 128.398 162.74 128.366C162.594 128.336 162.458 128.294 162.33 128.242C162.205 128.189 162.089 128.129 161.981 128.062C161.874 127.994 161.778 127.923 161.696 127.848L161.902 127.562C161.947 127.497 162.006 127.465 162.079 127.465C162.129 127.465 162.185 127.485 162.248 127.525C162.31 127.562 162.387 127.605 162.477 127.652C162.567 127.7 162.672 127.744 162.792 127.784C162.915 127.821 163.06 127.84 163.228 127.84C163.415 127.84 163.584 127.81 163.735 127.75C163.885 127.69 164.014 127.605 164.121 127.495C164.229 127.382 164.311 127.248 164.369 127.093C164.427 126.938 164.455 126.764 164.455 126.571C164.455 126.403 164.43 126.252 164.38 126.117C164.333 125.982 164.259 125.867 164.159 125.771C164.061 125.676 163.939 125.603 163.791 125.55C163.643 125.497 163.47 125.471 163.273 125.471C163.138 125.471 162.996 125.482 162.848 125.505C162.703 125.527 162.554 125.564 162.402 125.614L161.981 125.49L162.413 122.974H164.962V123.267C164.962 123.362 164.932 123.441 164.872 123.504C164.815 123.564 164.714 123.594 164.572 123.594H162.882L162.634 125.006Z" fill="#52585E"/>
<path d="M182.986 122.974V128.355H182.348V124.401C182.348 124.349 182.349 124.292 182.352 124.232C182.357 124.172 182.362 124.111 182.367 124.048L180.52 127.412C180.462 127.525 180.374 127.581 180.257 127.581H180.152C180.034 127.581 179.946 127.525 179.889 127.412L178.004 124.033C178.019 124.166 178.027 124.288 178.027 124.401V128.355H177.388V122.974H177.925C177.99 122.974 178.04 122.981 178.075 122.993C178.11 123.006 178.144 123.041 178.177 123.098L180.035 126.41C180.065 126.47 180.094 126.532 180.122 126.597C180.152 126.663 180.179 126.729 180.204 126.796C180.229 126.729 180.255 126.663 180.283 126.597C180.311 126.53 180.341 126.466 180.373 126.406L182.198 123.098C182.228 123.041 182.26 123.006 182.295 122.993C182.333 122.981 182.384 122.974 182.449 122.974H182.986Z" fill="#52585E"/>
<path d="M186.155 126.643C185.848 126.653 185.585 126.678 185.367 126.718C185.152 126.755 184.975 126.805 184.838 126.868C184.703 126.93 184.604 127.004 184.541 127.089C184.481 127.174 184.451 127.27 184.451 127.375C184.451 127.475 184.467 127.561 184.5 127.634C184.532 127.706 184.576 127.766 184.631 127.814C184.689 127.859 184.755 127.893 184.83 127.915C184.908 127.935 184.99 127.945 185.078 127.945C185.196 127.945 185.303 127.934 185.401 127.912C185.498 127.886 185.59 127.851 185.675 127.806C185.763 127.761 185.845 127.708 185.923 127.645C186.003 127.582 186.08 127.511 186.155 127.431V126.643ZM183.997 125.088C184.207 124.885 184.433 124.734 184.676 124.634C184.919 124.534 185.188 124.484 185.483 124.484C185.696 124.484 185.885 124.519 186.05 124.589C186.216 124.659 186.354 124.757 186.467 124.882C186.58 125.007 186.665 125.158 186.722 125.336C186.78 125.514 186.809 125.709 186.809 125.922V128.355H186.512C186.447 128.355 186.397 128.345 186.362 128.325C186.327 128.302 186.299 128.259 186.279 128.197L186.204 127.836C186.104 127.929 186.007 128.012 185.911 128.084C185.816 128.154 185.716 128.214 185.611 128.264C185.506 128.312 185.393 128.348 185.273 128.373C185.156 128.401 185.024 128.415 184.879 128.415C184.731 128.415 184.592 128.395 184.462 128.355C184.332 128.312 184.218 128.249 184.121 128.167C184.025 128.084 183.949 127.98 183.892 127.855C183.836 127.728 183.809 127.577 183.809 127.405C183.809 127.254 183.85 127.111 183.933 126.973C184.015 126.833 184.149 126.709 184.335 126.601C184.52 126.494 184.761 126.406 185.059 126.338C185.357 126.268 185.722 126.228 186.155 126.218V125.922C186.155 125.626 186.092 125.404 185.964 125.253C185.836 125.101 185.65 125.024 185.405 125.024C185.239 125.024 185.1 125.046 184.988 125.088C184.878 125.128 184.781 125.175 184.699 125.227C184.619 125.277 184.549 125.323 184.488 125.366C184.431 125.406 184.373 125.426 184.316 125.426C184.271 125.426 184.232 125.415 184.199 125.392C184.167 125.367 184.139 125.337 184.117 125.302L183.997 125.088Z" fill="#52585E"/>
<path d="M191.02 124.551L188.899 129.477C188.876 129.527 188.848 129.567 188.813 129.597C188.78 129.627 188.729 129.642 188.659 129.642H188.163L188.858 128.133L187.288 124.551H187.866C187.924 124.551 187.969 124.566 188.002 124.596C188.037 124.624 188.06 124.655 188.073 124.69L189.09 127.086C189.13 127.191 189.164 127.301 189.192 127.416C189.227 127.298 189.264 127.187 189.304 127.082L190.292 124.69C190.307 124.65 190.332 124.618 190.367 124.593C190.404 124.565 190.446 124.551 190.491 124.551H191.02Z" fill="#52585E"/>
<path d="M195.172 127.859C195.353 127.859 195.515 127.83 195.661 127.773C195.808 127.715 195.933 127.635 196.036 127.532C196.141 127.43 196.221 127.308 196.276 127.168C196.334 127.028 196.363 126.875 196.363 126.71C196.363 126.535 196.335 126.377 196.28 126.237C196.225 126.094 196.146 125.974 196.044 125.877C195.943 125.776 195.823 125.7 195.683 125.648C195.543 125.595 195.389 125.569 195.221 125.569C195.041 125.569 194.878 125.6 194.733 125.663C194.588 125.723 194.464 125.805 194.362 125.91C194.261 126.013 194.184 126.133 194.129 126.271C194.076 126.406 194.05 126.547 194.05 126.695C194.05 126.868 194.075 127.025 194.125 127.168C194.175 127.311 194.248 127.433 194.343 127.536C194.44 127.639 194.558 127.719 194.696 127.776C194.836 127.831 194.995 127.859 195.172 127.859ZM194.782 124.991C194.734 125.051 194.688 125.109 194.643 125.167C194.601 125.222 194.559 125.277 194.519 125.332C194.647 125.245 194.787 125.177 194.94 125.129C195.092 125.082 195.259 125.058 195.439 125.058C195.657 125.058 195.862 125.094 196.055 125.167C196.248 125.237 196.415 125.341 196.558 125.479C196.703 125.614 196.818 125.781 196.903 125.982C196.988 126.179 197.031 126.406 197.031 126.661C197.031 126.909 196.986 127.139 196.896 127.352C196.806 127.565 196.679 127.75 196.517 127.908C196.356 128.065 196.162 128.189 195.935 128.279C195.709 128.37 195.46 128.415 195.188 128.415C194.917 128.415 194.672 128.372 194.452 128.287C194.231 128.199 194.044 128.077 193.888 127.919C193.736 127.759 193.617 127.566 193.532 127.341C193.449 127.113 193.408 126.859 193.408 126.579C193.408 126.343 193.459 126.093 193.562 125.828C193.667 125.56 193.833 125.275 194.061 124.972L195.428 123.136C195.463 123.091 195.51 123.053 195.57 123.023C195.633 122.991 195.704 122.974 195.784 122.974H196.378L194.782 124.991Z" fill="#52585E"/>
<path d="M214.713 122.974V128.355H214.075V124.401C214.075 124.349 214.076 124.292 214.079 124.232C214.084 124.172 214.089 124.111 214.094 124.048L212.247 127.412C212.189 127.525 212.101 127.581 211.984 127.581H211.879C211.761 127.581 211.673 127.525 211.616 127.412L209.731 124.033C209.746 124.166 209.754 124.288 209.754 124.401V128.355H209.115V122.974H209.652C209.717 122.974 209.767 122.981 209.802 122.993C209.837 123.006 209.871 123.041 209.904 123.098L211.762 126.41C211.792 126.47 211.821 126.532 211.849 126.597C211.879 126.663 211.906 126.729 211.931 126.796C211.956 126.729 211.983 126.663 212.01 126.597C212.038 126.53 212.068 126.466 212.1 126.406L213.925 123.098C213.955 123.041 213.987 123.006 214.022 122.993C214.06 122.981 214.111 122.974 214.176 122.974H214.713Z" fill="#52585E"/>
<path d="M217.883 126.643C217.575 126.653 217.312 126.678 217.094 126.718C216.879 126.755 216.702 126.805 216.565 126.868C216.43 126.93 216.331 127.004 216.268 127.089C216.208 127.174 216.178 127.27 216.178 127.375C216.178 127.475 216.194 127.561 216.227 127.634C216.259 127.706 216.303 127.766 216.358 127.814C216.416 127.859 216.482 127.893 216.557 127.915C216.635 127.935 216.717 127.945 216.805 127.945C216.923 127.945 217.03 127.934 217.128 127.912C217.226 127.886 217.317 127.851 217.402 127.806C217.49 127.761 217.572 127.708 217.65 127.645C217.73 127.582 217.807 127.511 217.883 127.431V126.643ZM215.724 125.088C215.934 124.885 216.16 124.734 216.403 124.634C216.646 124.534 216.915 124.484 217.21 124.484C217.423 124.484 217.612 124.519 217.777 124.589C217.943 124.659 218.082 124.757 218.194 124.882C218.307 125.007 218.392 125.158 218.449 125.336C218.507 125.514 218.536 125.709 218.536 125.922V128.355H218.239C218.174 128.355 218.124 128.345 218.089 128.325C218.054 128.302 218.026 128.259 218.006 128.197L217.931 127.836C217.831 127.929 217.734 128.012 217.638 128.084C217.543 128.154 217.443 128.214 217.338 128.264C217.233 128.312 217.12 128.348 217 128.373C216.883 128.401 216.751 128.415 216.606 128.415C216.458 128.415 216.319 128.395 216.189 128.355C216.059 128.312 215.945 128.249 215.848 128.167C215.752 128.084 215.676 127.98 215.619 127.855C215.564 127.728 215.536 127.577 215.536 127.405C215.536 127.254 215.577 127.111 215.66 126.973C215.742 126.833 215.876 126.709 216.062 126.601C216.247 126.494 216.488 126.406 216.786 126.338C217.084 126.268 217.45 126.228 217.883 126.218V125.922C217.883 125.626 217.819 125.404 217.691 125.253C217.563 125.101 217.377 125.024 217.132 125.024C216.966 125.024 216.828 125.046 216.715 125.088C216.605 125.128 216.508 125.175 216.426 125.227C216.346 125.277 216.276 125.323 216.216 125.366C216.158 125.406 216.1 125.426 216.043 125.426C215.998 125.426 215.959 125.415 215.926 125.392C215.894 125.367 215.866 125.337 215.844 125.302L215.724 125.088Z" fill="#52585E"/>
<path d="M222.747 124.551L220.626 129.477C220.603 129.527 220.575 129.567 220.54 129.597C220.507 129.627 220.456 129.642 220.386 129.642H219.89L220.585 128.133L219.015 124.551H219.593C219.651 124.551 219.696 124.566 219.729 124.596C219.764 124.624 219.787 124.655 219.8 124.69L220.817 127.086C220.857 127.191 220.891 127.301 220.919 127.416C220.954 127.298 220.991 127.187 221.031 127.082L222.019 124.69C222.034 124.65 222.059 124.618 222.094 124.593C222.131 124.565 222.173 124.551 222.218 124.551H222.747Z" fill="#52585E"/>
<path d="M228.788 122.974V123.275C228.788 123.36 228.778 123.43 228.758 123.485C228.74 123.54 228.723 123.586 228.705 123.624L226.475 128.118C226.443 128.183 226.398 128.239 226.34 128.287C226.283 128.332 226.206 128.355 226.111 128.355H225.631L227.891 123.917C227.923 123.854 227.957 123.797 227.992 123.744C228.027 123.692 228.065 123.641 228.105 123.594H225.296C225.254 123.594 225.216 123.578 225.184 123.545C225.151 123.51 225.135 123.471 225.135 123.429V122.974H228.788Z" fill="#52585E"/>
<path d="M246.44 122.974V128.355H245.802V124.401C245.802 124.349 245.803 124.292 245.806 124.232C245.811 124.172 245.816 124.111 245.821 124.048L243.974 127.412C243.916 127.525 243.828 127.581 243.711 127.581H243.606C243.488 127.581 243.4 127.525 243.343 127.412L241.458 124.033C241.473 124.166 241.481 124.288 241.481 124.401V128.355H240.842V122.974H241.379C241.444 122.974 241.494 122.981 241.529 122.993C241.565 123.006 241.598 123.041 241.631 123.098L243.489 126.41C243.519 126.47 243.548 126.532 243.576 126.597C243.606 126.663 243.633 126.729 243.658 126.796C243.683 126.729 243.71 126.663 243.737 126.597C243.765 126.53 243.795 126.466 243.827 126.406L245.652 123.098C245.682 123.041 245.714 123.006 245.75 122.993C245.787 122.981 245.838 122.974 245.903 122.974H246.44Z" fill="#52585E"/>
<path d="M249.61 126.643C249.302 126.653 249.039 126.678 248.821 126.718C248.606 126.755 248.429 126.805 248.292 126.868C248.157 126.93 248.058 127.004 247.995 127.089C247.935 127.174 247.905 127.27 247.905 127.375C247.905 127.475 247.921 127.561 247.954 127.634C247.986 127.706 248.03 127.766 248.085 127.814C248.143 127.859 248.209 127.893 248.284 127.915C248.362 127.935 248.444 127.945 248.532 127.945C248.65 127.945 248.757 127.934 248.855 127.912C248.953 127.886 249.044 127.851 249.129 127.806C249.217 127.761 249.299 127.708 249.377 127.645C249.457 127.582 249.534 127.511 249.61 127.431V126.643ZM247.451 125.088C247.661 124.885 247.888 124.734 248.13 124.634C248.373 124.534 248.642 124.484 248.938 124.484C249.15 124.484 249.339 124.519 249.504 124.589C249.67 124.659 249.809 124.757 249.921 124.882C250.034 125.007 250.119 125.158 250.177 125.336C250.234 125.514 250.263 125.709 250.263 125.922V128.355H249.966C249.901 128.355 249.851 128.345 249.816 128.325C249.781 128.302 249.753 128.259 249.733 128.197L249.658 127.836C249.558 127.929 249.461 128.012 249.366 128.084C249.27 128.154 249.17 128.214 249.065 128.264C248.96 128.312 248.847 128.348 248.727 128.373C248.61 128.401 248.478 128.415 248.333 128.415C248.185 128.415 248.046 128.395 247.916 128.355C247.786 128.312 247.672 128.249 247.575 128.167C247.48 128.084 247.403 127.98 247.346 127.855C247.291 127.728 247.263 127.577 247.263 127.405C247.263 127.254 247.304 127.111 247.387 126.973C247.47 126.833 247.603 126.709 247.789 126.601C247.974 126.494 248.215 126.406 248.513 126.338C248.811 126.268 249.177 126.228 249.61 126.218V125.922C249.61 125.626 249.546 125.404 249.418 125.253C249.29 125.101 249.104 125.024 248.859 125.024C248.693 125.024 248.555 125.046 248.442 125.088C248.332 125.128 248.235 125.175 248.153 125.227C248.073 125.277 248.003 125.323 247.943 125.366C247.885 125.406 247.827 125.426 247.77 125.426C247.725 125.426 247.686 125.415 247.654 125.392C247.621 125.367 247.593 125.337 247.571 125.302L247.451 125.088Z" fill="#52585E"/>
<path d="M254.474 124.551L252.353 129.477C252.33 129.527 252.302 129.567 252.267 129.597C252.234 129.627 252.183 129.642 252.113 129.642H251.617L252.312 128.133L250.742 124.551H251.321C251.378 124.551 251.423 124.566 251.456 124.596C251.491 124.624 251.514 124.655 251.527 124.69L252.544 127.086C252.585 127.191 252.618 127.301 252.646 127.416C252.681 127.298 252.718 127.187 252.758 127.082L253.746 124.69C253.761 124.65 253.786 124.618 253.821 124.593C253.859 124.565 253.9 124.551 253.945 124.551H254.474Z" fill="#52585E"/>
<path d="M258.634 127.881C258.809 127.881 258.966 127.858 259.103 127.81C259.244 127.76 259.361 127.691 259.456 127.604C259.554 127.514 259.628 127.407 259.678 127.285C259.73 127.159 259.757 127.022 259.757 126.872C259.757 126.686 259.725 126.529 259.663 126.398C259.603 126.266 259.52 126.158 259.415 126.076C259.312 125.993 259.194 125.933 259.058 125.895C258.923 125.855 258.782 125.835 258.634 125.835C258.486 125.835 258.345 125.855 258.21 125.895C258.075 125.933 257.955 125.993 257.849 126.076C257.747 126.158 257.664 126.266 257.602 126.398C257.542 126.529 257.512 126.686 257.512 126.872C257.512 127.022 257.537 127.159 257.587 127.285C257.639 127.407 257.713 127.514 257.808 127.604C257.906 127.691 258.023 127.76 258.161 127.81C258.301 127.858 258.459 127.881 258.634 127.881ZM258.634 123.432C258.474 123.432 258.332 123.456 258.21 123.504C258.09 123.551 257.988 123.616 257.906 123.699C257.826 123.782 257.764 123.878 257.722 123.988C257.682 124.098 257.662 124.216 257.662 124.341C257.662 124.464 257.679 124.583 257.714 124.698C257.749 124.813 257.806 124.915 257.883 125.006C257.961 125.093 258.061 125.165 258.184 125.22C258.309 125.272 258.459 125.298 258.634 125.298C258.809 125.298 258.958 125.272 259.081 125.22C259.206 125.165 259.307 125.093 259.385 125.006C259.463 124.915 259.519 124.813 259.554 124.698C259.589 124.583 259.607 124.464 259.607 124.341C259.607 124.216 259.585 124.098 259.543 123.988C259.503 123.878 259.441 123.782 259.359 123.699C259.279 123.616 259.177 123.551 259.055 123.504C258.934 123.456 258.794 123.432 258.634 123.432ZM259.404 125.55C259.739 125.645 259.997 125.804 260.177 126.027C260.357 126.25 260.448 126.535 260.448 126.883C260.448 127.118 260.402 127.331 260.312 127.521C260.225 127.709 260.101 127.869 259.941 128.002C259.783 128.134 259.593 128.237 259.37 128.309C259.147 128.38 258.902 128.415 258.634 128.415C258.366 128.415 258.121 128.38 257.898 128.309C257.675 128.237 257.484 128.134 257.324 128.002C257.164 127.869 257.04 127.709 256.952 127.521C256.864 127.331 256.821 127.118 256.821 126.883C256.821 126.535 256.911 126.25 257.091 126.027C257.271 125.804 257.529 125.645 257.864 125.55C257.582 125.445 257.368 125.288 257.222 125.081C257.08 124.87 257.008 124.62 257.008 124.33C257.008 124.132 257.047 123.947 257.125 123.774C257.202 123.601 257.313 123.451 257.455 123.324C257.598 123.196 257.768 123.096 257.966 123.023C258.166 122.951 258.389 122.914 258.634 122.914C258.877 122.914 259.098 122.951 259.299 123.023C259.499 123.096 259.67 123.196 259.813 123.324C259.956 123.451 260.066 123.601 260.143 123.774C260.221 123.947 260.26 124.132 260.26 124.33C260.26 124.62 260.187 124.87 260.042 125.081C259.899 125.288 259.687 125.445 259.404 125.55Z" fill="#52585E"/>
<path d="M275.183 126.41C275.218 126.47 275.248 126.534 275.273 126.601C275.3 126.666 275.327 126.733 275.352 126.8C275.377 126.73 275.403 126.664 275.43 126.601C275.458 126.536 275.489 126.471 275.524 126.406L277.345 123.098C277.378 123.041 277.411 123.006 277.447 122.993C277.482 122.981 277.532 122.974 277.597 122.974H278.134V128.355H277.495V124.401C277.495 124.349 277.497 124.292 277.499 124.232C277.502 124.172 277.505 124.111 277.51 124.048L275.667 127.412C275.604 127.525 275.517 127.581 275.404 127.581H275.299C275.186 127.581 275.099 127.525 275.036 127.412L273.151 124.037C273.159 124.102 273.164 124.166 273.166 124.228C273.171 124.291 273.174 124.349 273.174 124.401V128.355H272.536V122.974H273.073C273.138 122.974 273.188 122.981 273.223 122.993C273.258 123.006 273.292 123.041 273.324 123.098L275.183 126.41Z" fill="#52585E"/>
<path d="M282.132 128.355H281.835C281.77 128.355 281.717 128.345 281.677 128.325C281.637 128.304 281.611 128.262 281.598 128.197L281.523 127.844C281.423 127.934 281.326 128.015 281.23 128.088C281.135 128.158 281.035 128.218 280.93 128.268C280.825 128.316 280.712 128.352 280.592 128.377C280.475 128.402 280.343 128.415 280.198 128.415C280.05 128.415 279.911 128.395 279.781 128.355C279.654 128.312 279.542 128.249 279.447 128.167C279.352 128.084 279.276 127.98 279.218 127.855C279.163 127.728 279.135 127.577 279.135 127.405C279.135 127.254 279.177 127.111 279.259 126.973C279.342 126.833 279.475 126.709 279.657 126.601C279.843 126.494 280.084 126.406 280.382 126.338C280.68 126.268 281.044 126.228 281.474 126.218V125.922C281.474 125.626 281.411 125.404 281.283 125.253C281.158 125.101 280.971 125.024 280.724 125.024C280.561 125.024 280.423 125.046 280.311 125.088C280.2 125.128 280.104 125.175 280.022 125.227C279.941 125.277 279.871 125.323 279.811 125.366C279.754 125.406 279.696 125.426 279.639 125.426C279.593 125.426 279.553 125.415 279.518 125.392C279.486 125.367 279.46 125.337 279.44 125.302L279.319 125.088C279.53 124.885 279.756 124.734 279.999 124.634C280.242 124.534 280.511 124.484 280.806 124.484C281.019 124.484 281.208 124.519 281.373 124.589C281.538 124.659 281.677 124.757 281.79 124.882C281.902 125.007 281.988 125.158 282.045 125.336C282.103 125.514 282.132 125.709 282.132 125.922V128.355ZM280.397 127.945C280.515 127.945 280.622 127.934 280.72 127.912C280.817 127.886 280.909 127.853 280.994 127.81C281.082 127.765 281.164 127.711 281.242 127.649C281.322 127.586 281.399 127.515 281.474 127.435V126.643C281.167 126.653 280.905 126.678 280.69 126.718C280.475 126.755 280.299 126.805 280.164 126.868C280.029 126.93 279.93 127.004 279.868 127.089C279.808 127.174 279.777 127.27 279.777 127.375C279.777 127.475 279.794 127.561 279.826 127.634C279.859 127.706 279.903 127.766 279.958 127.814C280.013 127.859 280.078 127.893 280.153 127.915C280.228 127.935 280.309 127.945 280.397 127.945Z" fill="#52585E"/>
<path d="M284.142 129.477C284.119 129.527 284.09 129.567 284.055 129.597C284.023 129.627 283.972 129.642 283.901 129.642H283.406L284.1 128.133L282.531 124.551H283.109C283.167 124.551 283.212 124.566 283.244 124.596C283.277 124.624 283.301 124.655 283.316 124.69L284.333 127.086C284.356 127.141 284.375 127.196 284.39 127.251C284.407 127.306 284.422 127.362 284.435 127.42C284.452 127.362 284.47 127.306 284.487 127.251C284.505 127.196 284.525 127.139 284.547 127.082L285.535 124.69C285.55 124.65 285.575 124.618 285.61 124.593C285.647 124.565 285.687 124.551 285.73 124.551H286.263L284.142 129.477Z" fill="#52585E"/>
<path d="M289.834 126.147C289.631 126.147 289.439 126.113 289.256 126.046C289.076 125.978 288.917 125.879 288.779 125.749C288.641 125.616 288.531 125.455 288.449 125.265C288.369 125.072 288.329 124.852 288.329 124.604C288.329 124.369 288.372 124.148 288.46 123.943C288.548 123.738 288.67 123.559 288.828 123.406C288.986 123.253 289.173 123.133 289.391 123.046C289.609 122.958 289.848 122.914 290.108 122.914C290.366 122.914 290.6 122.957 290.81 123.042C291.021 123.127 291.201 123.246 291.351 123.399C291.501 123.551 291.616 123.734 291.696 123.947C291.779 124.16 291.82 124.395 291.82 124.653C291.82 124.808 291.805 124.956 291.775 125.096C291.748 125.233 291.706 125.368 291.651 125.501C291.596 125.634 291.53 125.766 291.452 125.899C291.377 126.029 291.291 126.164 291.193 126.305L289.883 128.197C289.85 128.244 289.804 128.283 289.744 128.313C289.684 128.341 289.615 128.355 289.538 128.355H288.922L290.559 126.211C290.614 126.138 290.665 126.069 290.713 126.004C290.76 125.939 290.805 125.874 290.848 125.809C290.71 125.919 290.555 126.003 290.382 126.061C290.21 126.118 290.027 126.147 289.834 126.147ZM291.178 124.574C291.178 124.406 291.151 124.255 291.096 124.12C291.043 123.982 290.969 123.865 290.874 123.77C290.779 123.675 290.665 123.603 290.532 123.553C290.402 123.5 290.258 123.474 290.101 123.474C289.935 123.474 289.784 123.501 289.646 123.556C289.511 123.609 289.395 123.683 289.297 123.778C289.202 123.873 289.128 123.987 289.076 124.12C289.023 124.252 288.997 124.397 288.997 124.555C288.997 124.725 289.021 124.878 289.068 125.013C289.118 125.146 289.188 125.258 289.278 125.351C289.371 125.444 289.482 125.514 289.613 125.561C289.745 125.609 289.893 125.633 290.056 125.633C290.236 125.633 290.395 125.604 290.532 125.546C290.673 125.486 290.79 125.407 290.885 125.31C290.98 125.212 291.053 125.099 291.103 124.972C291.153 124.844 291.178 124.711 291.178 124.574Z" fill="#52585E"/>
<path d="M3.07396 5.03474C3.25418 5.03474 3.41687 5.00596 3.56205 4.94839C3.70972 4.89082 3.83487 4.81073 3.93749 4.7081C4.04262 4.60548 4.12271 4.48409 4.17778 4.34392C4.23535 4.20375 4.26413 4.05107 4.26413 3.88588C4.26413 3.71067 4.2366 3.55298 4.18153 3.41281C4.12647 3.27014 4.04762 3.15 3.945 3.05238C3.84488 2.95226 3.72474 2.87592 3.58457 2.82336C3.44441 2.7708 3.29047 2.74452 3.12277 2.74452C2.94256 2.74452 2.77986 2.7758 2.63469 2.83838C2.48952 2.89845 2.36562 2.98105 2.263 3.08617C2.16288 3.1888 2.08529 3.30894 2.03022 3.4466C1.97766 3.58176 1.95138 3.72318 1.95138 3.87086C1.95138 4.04356 1.97641 4.20125 2.02647 4.34392C2.07653 4.48659 2.14911 4.60924 2.24423 4.71186C2.34184 4.81448 2.45948 4.89458 2.59715 4.95214C2.73731 5.00721 2.89625 5.03474 3.07396 5.03474ZM2.6835 2.16633C2.63594 2.2264 2.58964 2.28522 2.54458 2.34279C2.50203 2.39785 2.46073 2.45292 2.42069 2.50799C2.54834 2.42038 2.68851 2.3528 2.84119 2.30524C2.99387 2.25769 3.16032 2.23391 3.34053 2.23391C3.55829 2.23391 3.76354 2.2702 3.95626 2.34279C4.14899 2.41287 4.31669 2.51675 4.45936 2.65441C4.60454 2.78957 4.71967 2.95727 4.80477 3.15751C4.88988 3.35524 4.93243 3.58176 4.93243 3.83707C4.93243 4.08486 4.88737 4.31514 4.79727 4.52789C4.70716 4.74064 4.58076 4.92586 4.41806 5.08355C4.25787 5.24124 4.06389 5.36514 3.83612 5.45524C3.61085 5.54535 3.36181 5.5904 3.08898 5.5904C2.81866 5.5904 2.57337 5.54785 2.35311 5.46275C2.13284 5.37515 1.94512 5.2525 1.78994 5.09481C1.63725 4.93462 1.51836 4.74189 1.43326 4.51663C1.35066 4.28885 1.30936 4.0348 1.30936 3.75447C1.30936 3.51919 1.36068 3.26889 1.4633 3.00358C1.56842 2.73576 1.73487 2.45042 1.96264 2.14756L3.32927 0.311621C3.36431 0.266567 3.41187 0.229022 3.47194 0.198987C3.53451 0.166448 3.60585 0.150179 3.68594 0.150179H4.27915L2.6835 2.16633Z" fill="#52585E"/>
<path d="M6.46108 0V3.25512H6.63379C6.68385 3.25512 6.72515 3.24887 6.75768 3.23635C6.79273 3.22133 6.82902 3.19255 6.86656 3.15L8.06799 1.86222C8.10304 1.81967 8.13933 1.78713 8.17687 1.7646C8.21692 1.73957 8.26948 1.72706 8.33456 1.72706H8.93903L7.53861 3.21758C7.47103 3.30268 7.39845 3.36901 7.32086 3.41657C7.36591 3.4466 7.40596 3.48164 7.441 3.52169C7.47854 3.55924 7.51358 3.60304 7.54612 3.6531L9.03289 5.53033H8.43593C8.37836 5.53033 8.3283 5.52157 8.28575 5.50405C8.24571 5.48403 8.21066 5.44899 8.18063 5.39893L6.93039 3.84082C6.89285 3.78826 6.8553 3.75447 6.81776 3.73945C6.78271 3.72193 6.72765 3.71317 6.65256 3.71317H6.46108V5.53033H5.78903V0H6.46108Z" fill="#52585E"/>
<path d="M2.263 24.0538C2.54333 23.9937 2.80114 23.9637 3.03642 23.9637C3.31675 23.9637 3.56455 24.005 3.7798 24.0876C3.99506 24.1702 4.17402 24.2841 4.31669 24.4293C4.46187 24.5744 4.57075 24.7459 4.64333 24.9436C4.71842 25.1414 4.75597 25.3566 4.75597 25.5894C4.75597 25.8747 4.70591 26.1325 4.60579 26.3628C4.50817 26.5931 4.37176 26.7908 4.19655 26.956C4.02385 27.1187 3.81985 27.2439 3.58457 27.3315C3.34929 27.4191 3.09524 27.4629 2.82242 27.4629C2.66473 27.4629 2.5133 27.4466 2.36812 27.4141C2.22295 27.384 2.08654 27.3427 1.95889 27.2902C1.83374 27.2376 1.71735 27.1775 1.60972 27.1099C1.50209 27.0424 1.40698 26.971 1.32438 26.8959L1.53088 26.6106C1.57593 26.5455 1.63475 26.513 1.70734 26.513C1.7574 26.513 1.81371 26.533 1.87629 26.5731C1.93886 26.6106 2.0152 26.6532 2.10531 26.7007C2.19542 26.7483 2.30054 26.7921 2.42069 26.8321C2.54333 26.8697 2.68851 26.8884 2.85621 26.8884C3.04393 26.8884 3.21288 26.8584 3.36306 26.7983C3.51324 26.7383 3.64214 26.6532 3.74977 26.543C3.8574 26.4304 3.94 26.2965 3.99756 26.1413C4.05513 25.9861 4.08392 25.8122 4.08392 25.6194C4.08392 25.4517 4.05889 25.3003 4.00883 25.1651C3.96127 25.03 3.88743 24.9148 3.78731 24.8197C3.6897 24.7246 3.56705 24.6508 3.41938 24.5982C3.2717 24.5456 3.09899 24.5194 2.90126 24.5194C2.7661 24.5194 2.62468 24.5306 2.477 24.5532C2.33183 24.5757 2.1829 24.612 2.03022 24.662L1.60972 24.5381L2.04149 22.0226H4.59077V22.3155C4.59077 22.4106 4.56073 22.4894 4.50066 22.552C4.44309 22.6121 4.34298 22.6421 4.20031 22.6421H2.51079L2.263 24.0538Z" fill="#52585E"/>
<path d="M6.46108 21.8725V25.1276H6.63379C6.68385 25.1276 6.72515 25.1213 6.75768 25.1088C6.79273 25.0938 6.82902 25.065 6.86656 25.0225L8.06799 23.7347C8.10304 23.6921 8.13933 23.6596 8.17687 23.6371C8.21692 23.612 8.26948 23.5995 8.33456 23.5995H8.93903L7.53861 25.09C7.47103 25.1751 7.39845 25.2415 7.32086 25.289C7.36591 25.3191 7.40596 25.3541 7.441 25.3942C7.47854 25.4317 7.51358 25.4755 7.54612 25.5256L9.03289 27.4028H8.43593C8.37836 27.4028 8.3283 27.394 8.28575 27.3765C8.24571 27.3565 8.21066 27.3214 8.18063 27.2714L6.93039 25.7133C6.89285 25.6607 6.8553 25.6269 6.81776 25.6119C6.78271 25.5944 6.72765 25.5856 6.65256 25.5856H6.46108V27.4028H5.78903V21.8725H6.46108Z" fill="#52585E"/>
<path d="M3.64464 47.3342V45.1153C3.64464 45.0502 3.64715 44.9789 3.65215 44.9013C3.65716 44.8237 3.66467 44.7449 3.67468 44.6648L1.71485 47.3342H3.64464ZM5.04506 47.3342V47.7172C5.04506 47.7572 5.03255 47.791 5.00752 47.8185C4.98499 47.8461 4.9487 47.8598 4.89864 47.8598H4.23034V49.2753H3.64464V47.8598H1.2568C1.20674 47.8598 1.16294 47.8461 1.1254 47.8185C1.09035 47.7885 1.06783 47.7522 1.05781 47.7096L0.990234 47.368L3.6071 43.8951H4.23034V47.3342H5.04506Z" fill="#52585E"/>
<path d="M6.46108 43.7449V47H6.63379C6.68385 47 6.72515 46.9938 6.75768 46.9813C6.79273 46.9663 6.82902 46.9375 6.86656 46.8949L8.06799 45.6071C8.10304 45.5646 8.13933 45.5321 8.17687 45.5095C8.21692 45.4845 8.26948 45.472 8.33456 45.472H8.93903L7.53861 46.9625C7.47103 47.0476 7.39845 47.1139 7.32086 47.1615C7.36591 47.1915 7.40596 47.2266 7.441 47.2666C7.47854 47.3042 7.51358 47.348 7.54612 47.398L9.03289 49.2753H8.43593C8.37836 49.2753 8.3283 49.2665 8.28575 49.249C8.24571 49.229 8.21066 49.1939 8.18063 49.1439L6.93039 47.5857C6.89285 47.5332 6.8553 47.4994 6.81776 47.4844C6.78271 47.4669 6.72765 47.4581 6.65256 47.4581H6.46108V49.2753H5.78903V43.7449H6.46108Z" fill="#52585E"/>
<path d="M1.39196 67.2243C1.427 66.979 1.49458 66.7625 1.5947 66.5748C1.69482 66.3845 1.82122 66.2256 1.97391 66.098C2.12909 65.9703 2.30555 65.8739 2.50329 65.8089C2.70352 65.7413 2.91878 65.7075 3.14905 65.7075C3.37683 65.7075 3.58708 65.74 3.7798 65.8051C3.97253 65.8702 4.13773 65.9628 4.27539 66.0829C4.41556 66.2031 4.52444 66.3483 4.60203 66.5185C4.67963 66.6887 4.71842 66.8776 4.71842 67.0854C4.71842 67.2556 4.6959 67.4083 4.65084 67.5434C4.60829 67.6761 4.54572 67.7925 4.46312 67.8926C4.38302 67.9927 4.28541 68.0778 4.17027 68.1479C4.05513 68.218 3.92623 68.2755 3.78356 68.3206C4.13398 68.4107 4.39679 68.5659 4.572 68.7862C4.74971 69.0039 4.83857 69.2767 4.83857 69.6046C4.83857 69.8524 4.79101 70.0752 4.69589 70.2729C4.60328 70.4707 4.47563 70.6396 4.31294 70.7798C4.15025 70.9174 3.96002 71.0238 3.74226 71.0989C3.527 71.1715 3.29548 71.2078 3.04768 71.2078C2.76234 71.2078 2.5183 71.1727 2.31556 71.1027C2.11282 71.0301 1.94137 70.9312 1.8012 70.8061C1.66103 70.6809 1.5459 70.5332 1.45579 70.363C1.36568 70.1903 1.28934 70.0039 1.22677 69.8036L1.51586 69.6835C1.59095 69.6509 1.66354 69.6422 1.73362 69.6572C1.80621 69.6722 1.85877 69.7135 1.89131 69.7811C1.92385 69.8512 1.96389 69.935 2.01145 70.0326C2.06151 70.1303 2.12909 70.2241 2.21419 70.3142C2.29929 70.4043 2.40692 70.4807 2.53708 70.5433C2.66973 70.6058 2.83743 70.6371 3.04017 70.6371C3.2279 70.6371 3.39184 70.6071 3.53201 70.547C3.67468 70.4844 3.79232 70.4043 3.88493 70.3067C3.98004 70.2091 4.05138 70.1002 4.09893 69.9801C4.14649 69.8599 4.17027 69.741 4.17027 69.6234C4.17027 69.4782 4.1515 69.3456 4.11395 69.2254C4.07641 69.1053 4.00632 69.0014 3.9037 68.9138C3.80108 68.8262 3.65966 68.7574 3.47945 68.7073C3.30174 68.6573 3.07271 68.6322 2.79238 68.6322V68.1479C3.02265 68.1454 3.21789 68.1204 3.37808 68.0728C3.54077 68.0253 3.67218 67.9602 3.7723 67.8776C3.87492 67.795 3.94876 67.6961 3.99381 67.581C4.04137 67.4658 4.06514 67.3382 4.06514 67.198C4.06514 67.0428 4.04011 66.9077 3.99005 66.7925C3.9425 66.6774 3.87617 66.5823 3.79107 66.5072C3.70597 66.4321 3.6046 66.3758 3.48696 66.3382C3.37182 66.3007 3.24667 66.2819 3.11151 66.2819C2.97635 66.2819 2.84995 66.3019 2.73231 66.342C2.61717 66.382 2.51455 66.4384 2.42444 66.5109C2.33684 66.581 2.263 66.6649 2.20293 66.7625C2.14286 66.8601 2.10031 66.9677 2.07528 67.0854C2.04274 67.173 2.00144 67.2318 1.95138 67.2618C1.90382 67.2894 1.83374 67.2969 1.74113 67.2844L1.39196 67.2243Z" fill="#52585E"/>
<path d="M6.46108 65.6174V68.8725H6.63379C6.68385 68.8725 6.72515 68.8663 6.75768 68.8537C6.79273 68.8387 6.82902 68.8099 6.86656 68.7674L8.06799 67.4796C8.10304 67.437 8.13933 67.4045 8.17687 67.382C8.21692 67.357 8.26948 67.3444 8.33456 67.3444H8.93903L7.53861 68.835C7.47103 68.9201 7.39845 68.9864 7.32086 69.034C7.36591 69.064 7.40596 69.099 7.441 69.1391C7.47854 69.1766 7.51358 69.2204 7.54612 69.2705L9.03289 71.1477H8.43593C8.37836 71.1477 8.3283 71.139 8.28575 71.1214C8.24571 71.1014 8.21066 71.0664 8.18063 71.0163L6.93039 69.4582C6.89285 69.4056 6.8553 69.3719 6.81776 69.3568C6.78271 69.3393 6.72765 69.3306 6.65256 69.3306H6.46108V71.1477H5.78903V65.6174H6.46108Z" fill="#52585E"/>
<path d="M3.16032 87.58C3.38809 87.58 3.60084 87.6137 3.79858 87.6813C3.99631 87.7489 4.16652 87.8478 4.30919 87.9779C4.45436 88.1056 4.56824 88.262 4.65084 88.4472C4.73344 88.6325 4.77474 88.8427 4.77474 89.078C4.77474 89.2782 4.7447 89.4634 4.68463 89.6336C4.62456 89.8038 4.54321 89.9678 4.44059 90.1255C4.33797 90.2807 4.21908 90.4321 4.08392 90.5798C3.95126 90.7249 3.80984 90.8739 3.65966 91.0266L2.24423 92.4758C2.34435 92.4482 2.44572 92.427 2.54834 92.412C2.65096 92.3944 2.74983 92.3857 2.84494 92.3857H4.64709C4.71967 92.3857 4.77724 92.407 4.81979 92.4495C4.86234 92.4921 4.88362 92.5471 4.88362 92.6147V93.0202H1.29435V92.7912C1.29435 92.7436 1.30311 92.6948 1.32063 92.6447C1.34065 92.5947 1.37194 92.5484 1.41449 92.5058L3.13779 90.775C3.28046 90.6298 3.41062 90.4909 3.52826 90.3583C3.6459 90.2231 3.74601 90.0879 3.82861 89.9528C3.91371 89.8176 3.97879 89.6812 4.02385 89.5435C4.0689 89.4034 4.09143 89.2544 4.09143 89.0968C4.09143 88.9391 4.0664 88.8014 4.01634 88.6838C3.96628 88.5636 3.89744 88.4648 3.80984 88.3872C3.72224 88.3096 3.61961 88.252 3.50197 88.2145C3.38433 88.1744 3.25793 88.1544 3.12277 88.1544C2.98761 88.1544 2.86246 88.1744 2.74733 88.2145C2.63219 88.2545 2.52957 88.3108 2.43946 88.3834C2.35186 88.4535 2.27677 88.5373 2.21419 88.635C2.15412 88.7326 2.11157 88.8402 2.08654 88.9578C2.06652 89.0304 2.03648 89.083 1.99643 89.1155C1.95638 89.1481 1.90382 89.1643 1.83874 89.1643C1.82623 89.1643 1.81246 89.1643 1.79745 89.1643C1.78493 89.1618 1.76991 89.1593 1.75239 89.1568L1.40323 89.0968C1.43827 88.8515 1.50585 88.635 1.60597 88.4472C1.70609 88.257 1.83249 88.0981 1.98517 87.9704C2.14035 87.8428 2.31681 87.7464 2.51455 87.6813C2.71479 87.6137 2.93004 87.58 3.16032 87.58Z" fill="#52585E"/>
<path d="M6.50238 87.4898V90.745H6.67509C6.72515 90.745 6.76645 90.7387 6.79898 90.7262C6.83152 90.7112 6.86782 90.6824 6.90786 90.6398L8.10929 89.3521C8.14684 89.312 8.18438 89.2795 8.22193 89.2544C8.25947 89.2294 8.30953 89.2169 8.37211 89.2169H8.98033L7.57991 90.7074C7.54487 90.75 7.50983 90.7875 7.47479 90.8201C7.44225 90.8526 7.4047 90.8814 7.36215 90.9064C7.40721 90.9364 7.44726 90.9715 7.4823 91.0115C7.51984 91.0491 7.55488 91.0929 7.58742 91.1429L9.07419 93.0202H8.47348C8.41841 93.0202 8.37085 93.0102 8.33081 92.9901C8.29326 92.9676 8.25697 92.9338 8.22193 92.8888L6.97169 91.3307C6.93414 91.2781 6.8966 91.2443 6.85906 91.2293C6.82151 91.2118 6.76519 91.203 6.6901 91.203H6.50238V93.0202H5.83033V87.4898H6.50238Z" fill="#52585E"/>
<path d="M4.72593 114.382V114.893H1.8425V114.382H2.99512V110.714C2.99512 110.604 2.99888 110.492 3.00638 110.38L2.04899 111.202C2.01646 111.23 1.98392 111.247 1.95138 111.255C1.91884 111.26 1.8888 111.26 1.86127 111.255C1.83374 111.25 1.80746 111.24 1.78243 111.225C1.7599 111.209 1.74238 111.193 1.72986 111.176L1.51961 110.887L3.12277 109.501H3.66717V114.382H4.72593Z" fill="#52585E"/>
<path d="M6.46108 109.362V112.617H6.63379C6.68385 112.617 6.72515 112.611 6.75768 112.599C6.79273 112.584 6.82902 112.555 6.86656 112.512L8.06799 111.225C8.10304 111.182 8.13933 111.149 8.17687 111.127C8.21692 111.102 8.26948 111.089 8.33456 111.089H8.93903L7.53861 112.58C7.47103 112.665 7.39845 112.731 7.32086 112.779C7.36591 112.809 7.40596 112.844 7.441 112.884C7.47854 112.922 7.51358 112.965 7.54612 113.015L9.03289 114.893H8.43593C8.37836 114.893 8.3283 114.884 8.28575 114.866C8.24571 114.846 8.21066 114.811 8.18063 114.761L6.93039 113.203C6.89285 113.151 6.8553 113.117 6.81776 113.102C6.78271 113.084 6.72765 113.075 6.65256 113.075H6.46108V114.893H5.78903V109.362H6.46108Z" fill="#52585E"/>
<rect x="79.21" y="40.063" width="33.3291" height="12.8725" rx="6.43623" fill="#2B2E31"/>
<path d="M89.4007 45.605L87.8989 47.1068L87.3268 46.2486L86.1826 47.3928" stroke="#B2FFC3" stroke-width="0.804529" stroke-linecap="round" stroke-linejoin="round"/>
<path d="M88.6855 45.605H89.4007V46.3201" stroke="#B2FFC3" stroke-width="0.804529" stroke-linecap="round" stroke-linejoin="round"/>
<path d="M86.7188 50.0747H88.8642C90.6521 50.0747 91.3672 49.3596 91.3672 47.5717V45.4263C91.3672 43.6385 90.6521 42.9233 88.8642 42.9233H86.7188C84.931 42.9233 84.2158 43.6385 84.2158 45.4263V47.5717C84.2158 49.3596 84.931 50.0747 86.7188 50.0747Z" stroke="#B2FFC3" stroke-width="0.804529" stroke-linecap="round" stroke-linejoin="round"/>
<path d="M97.8281 46.916H96.2963V48.5304H95.7519V46.916H94.2275V46.4091H95.7519V44.806H96.2963V46.4091H97.8281V46.916Z" fill="#B2FFC3"/>
<path d="M99.5632 45.8347C99.8436 45.7746 100.101 45.7446 100.337 45.7446C100.617 45.7446 100.865 45.7859 101.08 45.8685C101.295 45.9511 101.474 46.065 101.617 46.2102C101.762 46.3553 101.871 46.5268 101.944 46.7245C102.019 46.9223 102.056 47.1375 102.056 47.3703C102.056 47.6556 102.006 47.9134 101.906 48.1437C101.808 48.374 101.672 48.5717 101.497 48.7369C101.324 48.8996 101.12 49.0248 100.885 49.1124C100.65 49.2 100.395 49.2438 100.123 49.2438C99.965 49.2438 99.8135 49.2275 99.6684 49.195C99.5232 49.1649 99.3868 49.1236 99.2591 49.0711C99.134 49.0185 99.0176 48.9584 98.9099 48.8908C98.8023 48.8233 98.7072 48.7519 98.6246 48.6768L98.8311 48.3915C98.8762 48.3264 98.935 48.2939 99.0076 48.2939C99.0576 48.2939 99.1139 48.3139 99.1765 48.354C99.2391 48.3915 99.3154 48.4341 99.4055 48.4816C99.4956 48.5292 99.6008 48.573 99.7209 48.613C99.8436 48.6506 99.9887 48.6693 100.156 48.6693C100.344 48.6693 100.513 48.6393 100.663 48.5792C100.813 48.5192 100.942 48.4341 101.05 48.3239C101.158 48.2113 101.24 48.0774 101.298 47.9222C101.355 47.767 101.384 47.593 101.384 47.4003C101.384 47.2326 101.359 47.0812 101.309 46.946C101.261 46.8109 101.188 46.6957 101.088 46.6006C100.99 46.5055 100.867 46.4317 100.72 46.3791C100.572 46.3265 100.399 46.3003 100.201 46.3003C100.066 46.3003 99.9249 46.3115 99.7772 46.3341C99.6321 46.3566 99.4831 46.3929 99.3304 46.4429L98.9099 46.319L99.3417 43.8035H101.891V44.0964C101.891 44.1915 101.861 44.2703 101.801 44.3329C101.743 44.393 101.643 44.423 101.501 44.423H99.811L99.5632 45.8347Z" fill="#B2FFC3"/>
<path d="M105.271 45.1026C105.271 45.3128 105.238 45.5018 105.173 45.6695C105.108 45.8347 105.02 45.9749 104.91 46.09C104.803 46.2026 104.676 46.289 104.531 46.3491C104.388 46.4091 104.237 46.4392 104.077 46.4392C103.909 46.4392 103.753 46.4091 103.607 46.3491C103.462 46.289 103.336 46.2026 103.228 46.09C103.123 45.9749 103.04 45.8347 102.98 45.6695C102.92 45.5018 102.89 45.3128 102.89 45.1026C102.89 44.8873 102.92 44.6959 102.98 44.5282C103.04 44.3605 103.123 44.219 103.228 44.1039C103.336 43.9888 103.462 43.9012 103.607 43.8411C103.753 43.781 103.909 43.751 104.077 43.751C104.247 43.751 104.405 43.781 104.55 43.8411C104.695 43.9012 104.821 43.9888 104.929 44.1039C105.037 44.219 105.12 44.3605 105.18 44.5282C105.241 44.6959 105.271 44.8873 105.271 45.1026ZM104.752 45.1026C104.752 44.9374 104.735 44.7972 104.7 44.6821C104.665 44.5669 104.616 44.4731 104.554 44.4005C104.493 44.3254 104.422 44.2716 104.339 44.2391C104.257 44.2065 104.169 44.1902 104.077 44.1902C103.984 44.1902 103.898 44.2065 103.818 44.2391C103.738 44.2716 103.667 44.3254 103.607 44.4005C103.547 44.4731 103.5 44.5669 103.465 44.6821C103.43 44.7972 103.412 44.9374 103.412 45.1026C103.412 45.2653 103.43 45.4042 103.465 45.5193C103.5 45.632 103.547 45.7246 103.607 45.7972C103.667 45.8672 103.738 45.9186 103.818 45.9511C103.898 45.9811 103.984 45.9961 104.077 45.9961C104.169 45.9961 104.257 45.9811 104.339 45.9511C104.422 45.9186 104.493 45.8672 104.554 45.7972C104.616 45.7246 104.665 45.632 104.7 45.5193C104.735 45.4042 104.752 45.2653 104.752 45.1026ZM107.174 43.9162C107.199 43.8861 107.228 43.8599 107.26 43.8373C107.296 43.8148 107.342 43.8035 107.399 43.8035H107.884L103.949 49.0748C103.927 49.1074 103.898 49.1336 103.863 49.1537C103.828 49.1737 103.785 49.1837 103.735 49.1837H103.243L107.174 43.9162ZM108.248 47.9147C108.248 48.1249 108.215 48.3127 108.15 48.4779C108.085 48.643 107.998 48.7832 107.887 48.8984C107.78 49.011 107.653 49.0973 107.508 49.1574C107.366 49.2175 107.214 49.2475 107.054 49.2475C106.884 49.2475 106.726 49.2175 106.581 49.1574C106.438 49.0973 106.313 49.011 106.205 48.8984C106.1 48.7832 106.018 48.643 105.958 48.4779C105.898 48.3127 105.868 48.1249 105.868 47.9147C105.868 47.6994 105.898 47.5079 105.958 47.3402C106.018 47.17 106.1 47.0274 106.205 46.9122C106.313 46.7971 106.438 46.7095 106.581 46.6494C106.726 46.5894 106.884 46.5593 107.054 46.5593C107.222 46.5593 107.378 46.5894 107.523 46.6494C107.671 46.7095 107.797 46.7971 107.902 46.9122C108.01 47.0274 108.094 47.17 108.154 47.3402C108.217 47.5079 108.248 47.6994 108.248 47.9147ZM107.73 47.9147C107.73 47.7495 107.712 47.6093 107.677 47.4942C107.642 47.3765 107.593 47.2814 107.531 47.2088C107.471 47.1363 107.399 47.0837 107.317 47.0512C107.234 47.0186 107.147 47.0023 107.054 47.0023C106.961 47.0023 106.874 47.0186 106.791 47.0512C106.711 47.0837 106.641 47.1363 106.581 47.2088C106.521 47.2814 106.473 47.3765 106.438 47.4942C106.406 47.6093 106.389 47.7495 106.389 47.9147C106.389 48.0774 106.406 48.215 106.438 48.3277C106.473 48.4403 106.521 48.5329 106.581 48.6055C106.641 48.6756 106.711 48.7269 106.791 48.7594C106.874 48.7895 106.961 48.8045 107.054 48.8045C107.147 48.8045 107.234 48.7895 107.317 48.7594C107.399 48.7269 107.471 48.6756 107.531 48.6055C107.593 48.5329 107.642 48.4403 107.677 48.3277C107.712 48.215 107.73 48.0774 107.73 47.9147Z" fill="#B2FFC3"/>
<path d="M93.9609 107.91V64.7339" stroke="#B2FFC3" stroke-width="0.536353" stroke-dasharray="2.15 2.15"/>
<defs>
<linearGradient id="paint0_linear_4020_97520" x1="154.296" y1="-5.52998" x2="154.296" y2="96.377" gradientUnits="userSpaceOnUse">
<stop stop-color="#AED4FF"/>
<stop offset="1" stop-color="#1F2123" stop-opacity="0"/>
</linearGradient>
</defs>
</svg>
