<svg width="140" height="140" viewBox="0 0 140 140" fill="none" xmlns="http://www.w3.org/2000/svg">
<path d="M65.4946 119.186C65.258 120.132 64.7118 120.973 63.9429 121.573C63.174 122.174 62.2264 122.5 61.2508 122.5C60.8822 122.502 60.5148 122.458 60.1571 122.369L42.6571 117.994C42.1699 117.871 41.7074 117.666 41.2899 117.387L28.1649 108.637C27.1996 107.993 26.5297 106.992 26.3026 105.854C26.0754 104.716 26.3096 103.534 26.9535 102.569C27.5975 101.604 28.5986 100.934 29.7365 100.707C30.8743 100.48 32.0559 100.714 33.0211 101.358L45.5117 109.687L62.2789 113.881C62.8391 114.017 63.367 114.262 63.8322 114.603C64.2973 114.943 64.6906 115.372 64.9894 115.865C65.2882 116.358 65.4867 116.905 65.5734 117.475C65.6601 118.045 65.6333 118.626 65.4946 119.186ZM138.059 66.4343C137.7 67.5247 137.129 68.5331 136.378 69.4014C135.627 70.2696 134.712 70.9805 133.684 71.4929L120.734 77.9679L90.6125 108.095C90.0779 108.629 89.4141 109.016 88.6857 109.217C87.9573 109.418 87.1892 109.427 86.4563 109.244L51.4563 100.494C50.924 100.36 50.4214 100.128 49.9742 99.8101L19.6117 78.132L6.33362 71.4929C4.25843 70.4555 2.68017 68.6364 1.9459 66.4357C1.21162 64.2349 1.38143 61.8326 2.418 59.757L16.0078 32.5827C17.0452 30.5076 18.8643 28.9293 21.0651 28.195C23.2659 27.4607 25.6682 27.6306 27.7438 28.6671L39.8078 34.6827L68.7922 26.4031C69.5785 26.1781 70.4121 26.1781 71.1985 26.4031L100.183 34.6827L112.247 28.6671C114.323 27.6306 116.725 27.4607 118.926 28.195C121.126 28.9293 122.945 30.5076 123.983 32.5827L137.573 59.757C138.091 60.7826 138.401 61.9008 138.484 63.0469C138.568 64.193 138.424 65.3444 138.059 66.4343ZM112.805 73.5109L97.9242 43.7499H80.5227L56.8758 66.7187C63.7992 71.1429 74.6547 72.3624 84.3946 62.546C85.1552 61.7793 86.1726 61.321 87.2509 61.2594C88.3292 61.1979 89.3922 61.5373 90.2352 62.2124L109.053 77.2898L112.805 73.5109ZM10.2438 63.6671L19.918 68.507L33.5078 41.3327L23.8336 36.4929L10.2438 63.6671ZM102.813 83.4859L87.6594 71.3507C76.9735 80.1007 63.4055 81.2546 52.1617 74.0851C51.0557 73.3815 50.1219 72.4385 49.4293 71.3256C48.7367 70.2127 48.3029 68.9584 48.1601 67.6554C48.0173 66.3524 48.1691 65.0339 48.6043 63.7974C49.0394 62.561 49.7469 61.438 50.6742 60.5117C50.6874 60.4957 50.7021 60.4811 50.718 60.4679L75.2508 36.6734L70.0008 35.1749L42.4274 43.0554L27.4594 72.9859L54.3657 92.2085L86.161 100.155L102.813 83.4859ZM129.741 63.6671L116.168 36.4929L106.494 41.3327L120.084 68.507L129.741 63.6671Z" fill="url(#paint0_linear_5068_142769)"/>
<defs>
<linearGradient id="paint0_linear_5068_142769" x1="70.0007" y1="-136.5" x2="70.0018" y2="122.5" gradientUnits="userSpaceOnUse">
<stop stop-color="white"/>
<stop offset="1" stop-color="white" stop-opacity="0"/>
</linearGradient>
</defs>
</svg>
