<svg width="16" height="16" viewBox="0 0 16 16" fill="none" xmlns="http://www.w3.org/2000/svg">
<path d="M7.99423 0.839466C8.41423 0.839466 8.82756 0.979465 9.15423 1.25947L10.2076 2.15947C10.3142 2.2528 10.5809 2.34613 10.7209 2.34613H11.8876C12.8742 2.34613 13.6742 3.14613 13.6742 4.1328V5.2728C13.6742 5.4128 13.7676 5.67947 13.8542 5.77947L14.7609 6.84613C15.3076 7.4928 15.3076 8.50613 14.7609 9.15947L13.8542 10.2261C13.7676 10.3261 13.6742 10.5928 13.6742 10.7328V11.8661C13.6742 12.8528 12.8742 13.6528 11.8876 13.6528H10.7342C10.5942 13.6528 10.3342 13.7528 10.2209 13.8461L9.16756 14.7461C8.51423 15.2995 7.49423 15.2995 6.8409 14.7461L5.78756 13.8461C5.6809 13.7528 5.40756 13.6595 5.26756 13.6595H4.13423C3.14757 13.6595 2.34757 12.8595 2.34757 11.8728V10.7395C2.34757 10.5995 2.24756 10.3395 2.15423 10.2261L1.25423 9.1728C0.694231 8.5128 0.700898 7.4928 1.25423 6.84613L2.15423 5.7928C2.24756 5.67947 2.3409 5.41947 2.3409 5.27947V4.14613C2.3409 3.15947 3.1409 2.35947 4.12757 2.35947H5.2609C5.4009 2.35947 5.6609 2.25947 5.7809 2.16613L6.83423 1.26613C7.1609 0.979465 7.5809 0.839466 7.99423 0.839466ZM11.8876 12.6528C12.3209 12.6528 12.6742 12.2995 12.6742 11.8661V10.7328C12.6742 10.3528 12.8476 9.8728 13.0942 9.57947L14.0009 8.5128C14.2276 8.23947 14.2276 7.75947 14.0009 7.4928L13.1009 6.4328C12.8609 6.15947 12.6809 5.65947 12.6809 5.27947V4.13947C12.6809 3.70613 12.3276 3.3528 11.8942 3.3528H10.7342C10.3609 3.3528 9.86756 3.1728 9.57423 2.92613L8.51423 2.01947C8.2409 1.78613 7.7609 1.78613 7.48756 2.01947L6.43423 2.91947C6.13423 3.1728 5.64756 3.34613 5.27423 3.34613H4.1409C3.70756 3.34613 3.35423 3.69947 3.35423 4.1328V5.26613C3.35423 5.63947 3.17423 6.12613 2.92756 6.42613L2.0209 7.48613C1.78757 7.75947 1.78757 8.23947 2.0209 8.5128L2.9209 9.56613C3.17423 9.86613 3.34757 10.3528 3.34757 10.7261V11.8661C3.34757 12.2995 3.7009 12.6528 4.13423 12.6528H5.26756C5.64756 12.6528 6.1409 12.8328 6.43423 13.0795L7.49423 13.9861C7.76756 14.2195 8.2409 14.2195 8.5209 13.9861L9.56757 13.0795C9.86757 12.8328 10.3542 12.6528 10.7342 12.6528H11.8876Z" fill="#F9F9F9"/>
<path d="M8.00033 4.7526C8.36699 4.7526 8.66699 5.0526 8.66699 5.41927C8.66699 5.78594 8.37366 6.08594 8.00033 6.08594C7.63366 6.08594 7.33366 5.78594 7.33366 5.41927C7.33366 5.0526 7.62699 4.7526 8.00033 4.7526Z" fill="#F9F9F9"/>
<path d="M8 6.85439C8.27333 6.85439 8.5 7.08105 8.5 7.35439V10.5811C8.5 10.8544 8.27333 11.0811 8 11.0811C7.72667 11.0811 7.5 10.8544 7.5 10.5811V7.36105C7.5 7.08105 7.72 6.85439 8 6.85439Z" fill="#F9F9F9"/>
</svg>
