<svg width="15" height="9" viewBox="0 0 15 9" fill="none" xmlns="http://www.w3.org/2000/svg">
<path fill-rule="evenodd" clip-rule="evenodd" d="M13.3108 0.194338L6.96139 6.78655L4.72497 4.47127C4.47434 4.21105 4.06947 4.21105 3.81883 4.47127C3.5682 4.73149 3.5682 5.15184 3.81883 5.41206L6.50511 8.20107C6.75574 8.46129 7.16061 8.46129 7.41124 8.20107L14.2169 1.1418C14.4675 0.881582 14.4675 0.461229 14.2169 0.20101H14.2105C13.9663 -0.0658808 13.5614 -0.0658808 13.3108 0.194338ZM10.5854 0.202977C10.3347 -0.0572422 9.92986 -0.0572422 9.67923 0.202977L6.05469 3.96614L6.96082 4.90693L10.5854 1.1371C10.8296 0.883549 10.8296 0.456523 10.5854 0.202977ZM2.87425 8.20508L0.187975 5.41606C-0.0626583 5.15585 -0.0626583 4.72882 0.187975 4.4686C0.438608 4.20838 0.843477 4.20838 1.09411 4.4686L4.23024 7.73802L3.78038 8.20508C3.52975 8.46529 3.12488 8.46529 2.87425 8.20508Z" fill="#C0C0C0"/>
</svg>
