<svg width="36" height="36" viewBox="0 0 36 36" fill="none" xmlns="http://www.w3.org/2000/svg">
<path d="M0 18C0 8.05887 8.05887 0 18 0C27.9411 0 36 8.05887 36 18C36 27.9411 27.9411 36 18 36C8.05887 36 0 27.9411 0 18Z" fill="#2B2E31"/>
<path d="M17.4609 14.6314L17.4987 15.2542L16.8691 15.178C14.5776 14.8856 12.5757 13.8942 10.876 12.229L10.045 11.4028L9.83098 12.0129C9.37772 13.373 9.6673 14.8094 10.6116 15.7754C11.1152 16.3093 11.0019 16.3855 10.1332 16.0678C9.83098 15.9661 9.56658 15.8898 9.5414 15.9279C9.45326 16.0169 9.75544 17.1736 9.99466 17.6312C10.322 18.2668 10.9893 18.8896 11.7196 19.2582L12.3365 19.5506L11.6063 19.5633C10.9012 19.5633 10.876 19.576 10.9515 19.8429C11.2034 20.6691 12.198 21.5462 13.306 21.9275L14.0866 22.1945L13.4067 22.6012C12.3995 23.1859 11.216 23.5164 10.0324 23.5418C9.46585 23.5546 9 23.6054 9 23.6435C9 23.7706 10.5361 24.4825 11.43 24.7621C14.1118 25.5883 17.2972 25.2324 19.6894 23.8215C21.3892 22.8173 23.0889 20.8217 23.8821 18.8896C24.3102 17.86 24.7383 15.9788 24.7383 15.0763C24.7383 14.4916 24.7761 14.4153 25.4811 13.7162C25.8966 13.3095 26.2869 12.8646 26.3625 12.7375C26.4884 12.496 26.4758 12.496 25.8337 12.712C24.7635 13.0934 24.6124 13.0425 25.1412 12.4705C25.5315 12.0638 25.9973 11.3265 25.9973 11.1105C25.9973 11.0723 25.8085 11.1359 25.5944 11.2503C25.3678 11.3774 24.8642 11.568 24.4865 11.6824L23.8066 11.8985L23.1896 11.4791C22.8497 11.2503 22.3712 10.9961 22.1194 10.9198C21.4773 10.7418 20.4952 10.7673 19.9161 10.9706C18.3422 11.5426 17.3476 13.0171 17.4609 14.6314Z" fill="#AED4FF"/>
</svg>
