<svg width="100" height="104" viewBox="0 0 100 104" fill="none" xmlns="http://www.w3.org/2000/svg">
<g clip-path="url(#clip0_5068_140489)">
<path d="M30.6875 47.75C29.4443 47.75 28.252 48.2439 27.3729 49.1229C26.4939 50.002 26 51.1943 26 52.4375C26 53.6807 26.4939 54.873 27.3729 55.7521C28.252 56.6311 29.4443 57.125 30.6875 57.125H58.8125C60.0557 57.125 61.248 56.6311 62.1271 55.7521C63.0061 54.873 63.5 53.6807 63.5 52.4375C63.5 51.1943 63.0061 50.002 62.1271 49.1229C61.248 48.2439 60.0557 47.75 58.8125 47.75H30.6875ZM32.25 33.6875C32.25 32.4443 32.7439 31.252 33.6229 30.3729C34.502 29.4939 35.6943 29 36.9375 29H71.3125C72.5557 29 73.748 29.4939 74.6271 30.3729C75.5061 31.252 76 32.4443 76 33.6875C76 34.9307 75.5061 36.123 74.6271 37.0021C73.748 37.8811 72.5557 38.375 71.3125 38.375H36.9375C35.6943 38.375 34.502 37.8811 33.6229 37.0021C32.7439 36.123 32.25 34.9307 32.25 33.6875ZM43.1875 66.5C41.9443 66.5 40.752 66.9939 39.8729 67.8729C38.9939 68.752 38.5 69.9443 38.5 71.1875C38.5 72.4307 38.9939 73.623 39.8729 74.5021C40.752 75.3811 41.9443 75.875 43.1875 75.875H71.3125C72.5557 75.875 73.748 75.3811 74.6271 74.5021C75.5061 73.623 76 72.4307 76 71.1875C76 69.9443 75.5061 68.752 74.6271 67.8729C73.748 66.9939 72.5557 66.5 71.3125 66.5H43.1875Z" fill="url(#paint0_linear_5068_140489)"/>
<path d="M1 14.9375C1 8.9 5.9 4 11.9375 4H90.0625C96.1 4 101 8.9 101 14.9375V93.0625C101 95.9633 99.8477 98.7453 97.7965 100.796C95.7453 102.848 92.9633 104 90.0625 104H11.9375C9.03669 104 6.2547 102.848 4.20352 100.796C2.15234 98.7453 1 95.9633 1 93.0625L1 14.9375ZM11.9375 13.375C11.5231 13.375 11.1257 13.5396 10.8326 13.8326C10.5396 14.1257 10.375 14.5231 10.375 14.9375V93.0625C10.375 93.925 11.075 94.625 11.9375 94.625H90.0625C90.4769 94.625 90.8743 94.4604 91.1674 94.1674C91.4604 93.8743 91.625 93.4769 91.625 93.0625V14.9375C91.625 14.5231 91.4604 14.1257 91.1674 13.8326C90.8743 13.5396 90.4769 13.375 90.0625 13.375H11.9375Z" fill="url(#paint1_linear_5068_140489)"/>
</g>
<defs>
<linearGradient id="paint0_linear_5068_140489" x1="50.5" y1="-35.5" x2="51" y2="75.875" gradientUnits="userSpaceOnUse">
<stop stop-color="white"/>
<stop offset="1" stop-color="white" stop-opacity="0"/>
</linearGradient>
<linearGradient id="paint1_linear_5068_140489" x1="51" y1="4" x2="51" y2="104" gradientUnits="userSpaceOnUse">
<stop stop-color="#FFF8F8" stop-opacity="0.76"/>
<stop offset="1" stop-color="white" stop-opacity="0"/>
</linearGradient>
<clipPath id="clip0_5068_140489">
<rect width="100" height="104" fill="white"/>
</clipPath>
</defs>
</svg>
