<svg width="101" height="104" viewBox="0 0 101 104" fill="none" xmlns="http://www.w3.org/2000/svg">
<g clip-path="url(#clip0_5324_159176)">
<path d="M31.1875 47.75C29.9443 47.75 28.752 48.2439 27.8729 49.1229C26.9939 50.002 26.5 51.1943 26.5 52.4375C26.5 53.6807 26.9939 54.873 27.8729 55.7521C28.752 56.6311 29.9443 57.125 31.1875 57.125H59.3125C60.5557 57.125 61.748 56.6311 62.6271 55.7521C63.5061 54.873 64 53.6807 64 52.4375C64 51.1943 63.5061 50.002 62.6271 49.1229C61.748 48.2439 60.5557 47.75 59.3125 47.75H31.1875ZM32.75 33.6875C32.75 32.4443 33.2439 31.252 34.1229 30.3729C35.002 29.4939 36.1943 29 37.4375 29H71.8125C73.0557 29 74.248 29.4939 75.1271 30.3729C76.0061 31.252 76.5 32.4443 76.5 33.6875C76.5 34.9307 76.0061 36.123 75.1271 37.0021C74.248 37.8811 73.0557 38.375 71.8125 38.375H37.4375C36.1943 38.375 35.002 37.8811 34.1229 37.0021C33.2439 36.123 32.75 34.9307 32.75 33.6875ZM43.6875 66.5C42.4443 66.5 41.252 66.9939 40.3729 67.8729C39.4939 68.752 39 69.9443 39 71.1875C39 72.4307 39.4939 73.623 40.3729 74.5021C41.252 75.3811 42.4443 75.875 43.6875 75.875H71.8125C73.0557 75.875 74.248 75.3811 75.1271 74.5021C76.0061 73.623 76.5 72.4307 76.5 71.1875C76.5 69.9443 76.0061 68.752 75.1271 67.8729C74.248 66.9939 73.0557 66.5 71.8125 66.5H43.6875Z" fill="url(#paint0_linear_5324_159176)"/>
<path d="M1.5 14.9375C1.5 8.9 6.4 4 12.4375 4H90.5625C96.6 4 101.5 8.9 101.5 14.9375V93.0625C101.5 95.9633 100.348 98.7453 98.2965 100.796C96.2453 102.848 93.4633 104 90.5625 104H12.4375C9.53669 104 6.7547 102.848 4.70352 100.796C2.65234 98.7453 1.5 95.9633 1.5 93.0625L1.5 14.9375ZM12.4375 13.375C12.0231 13.375 11.6257 13.5396 11.3326 13.8326C11.0396 14.1257 10.875 14.5231 10.875 14.9375V93.0625C10.875 93.925 11.575 94.625 12.4375 94.625H90.5625C90.9769 94.625 91.3743 94.4604 91.6674 94.1674C91.9604 93.8743 92.125 93.4769 92.125 93.0625V14.9375C92.125 14.5231 91.9604 14.1257 91.6674 13.8326C91.3743 13.5396 90.9769 13.375 90.5625 13.375H12.4375Z" fill="url(#paint1_linear_5324_159176)"/>
</g>
<defs>
<linearGradient id="paint0_linear_5324_159176" x1="51" y1="-35.5" x2="51.5" y2="75.875" gradientUnits="userSpaceOnUse">
<stop stop-color="white"/>
<stop offset="1" stop-color="white" stop-opacity="0"/>
</linearGradient>
<linearGradient id="paint1_linear_5324_159176" x1="51.5" y1="4" x2="51.5" y2="104" gradientUnits="userSpaceOnUse">
<stop stop-color="#FFF8F8" stop-opacity="0.76"/>
<stop offset="1" stop-color="white" stop-opacity="0"/>
</linearGradient>
<clipPath id="clip0_5324_159176">
<rect width="100" height="104" fill="white" transform="translate(0.5)"/>
</clipPath>
</defs>
</svg>
