<svg>

    <symbol id="behance" viewBox="0 0 20 12" xmlns="http://www.w3.org/2000/svg">
        <path 
            fill-rule="evenodd" 
            clip-rule="evenodd" 
            d="M9.75124 3.31794C9.75124 2.65715 9.56949 2.09076 9.20712 1.61665C8.60316 0.844488 7.57927 0.448863 6.13204 0.428711H0.398438V11.5762H5.74483C6.34765 11.5762 6.90532 11.5274 7.42122 11.4267C7.93712 11.3248 8.38303 11.1392 8.76121 10.8666C9.09761 10.629 9.37758 10.3363 9.6011 9.98947C9.95444 9.4655 10.1305 8.8726 10.1305 8.21181C10.1305 7.57117 9.97589 7.02599 9.66883 6.5784C9.35839 6.12974 8.90232 5.802 8.29724 5.59411C8.69573 5.40319 8.99714 5.19106 9.2026 4.95983C9.56949 4.54618 9.75124 3.99782 9.75124 3.31794ZM17.7516 2.33577H12.6671V0.948433H17.7516V2.33577ZM13.2598 6.63885C13.3433 6.10216 13.5477 5.67684 13.8717 5.36288C14.1957 5.04893 14.654 4.89195 15.241 4.89195C15.7829 4.89195 16.2355 5.03938 16.6036 5.33531C16.9671 5.63335 17.1725 6.0661 17.2143 6.63885H13.2598ZM17.3032 3.50047C17.9162 3.75715 18.4208 4.16444 18.8182 4.72022C19.1805 5.21025 19.4131 5.77876 19.5192 6.4247C19.5813 6.80229 19.6061 7.34959 19.596 8.06129H13.2031C13.2415 8.88754 13.544 9.46772 14.122 9.79971C14.472 10.0065 14.893 10.1105 15.3875 10.1105C15.9079 10.1105 16.3335 9.98426 16.6597 9.73288C16.8392 9.59606 16.9973 9.40726 17.1327 9.16543H19.4752C19.4131 9.65333 19.1286 10.1508 18.6251 10.6557C17.8394 11.4565 16.7388 11.8574 15.3243 11.8574C14.1559 11.8574 13.1252 11.5201 12.2345 10.8434C11.3393 10.1678 10.8945 9.06679 10.8945 7.54369C10.8945 6.11499 11.2975 5.01933 12.1024 4.25672C12.9096 3.49622 13.9538 3.11333 15.2396 3.11333C16.0039 3.11333 16.6913 3.24273 17.3032 3.50047ZM2.76345 9.64157V6.66855H5.685C6.193 6.67279 6.58924 6.73643 6.87146 6.85735C7.37607 7.07478 7.62668 7.47253 7.62668 8.05377C7.62668 8.73895 7.36704 9.2014 6.84662 9.44535C6.56101 9.57581 6.15913 9.64157 5.64436 9.64157H2.76345ZM2.76345 2.36441V4.82407H5.64888C6.16252 4.82407 6.58133 4.73179 6.90419 4.54724C7.2248 4.36269 7.38623 4.036 7.38623 3.56931C7.38623 3.04853 7.174 2.70594 6.74954 2.53836C6.38152 2.42274 5.91416 2.36441 5.34633 2.36441H2.76345Z"
         />  
    </symbol>

    <symbol id="dribbble" viewBox="0 0 20 19" xmlns="http://www.w3.org/2000/svg">
        <path 
            fill-rule="evenodd" 
            clip-rule="evenodd" 
            d="M19.5984 9.13018C19.5984 9.74849 19.5323 10.3659 19.4025 10.9678C19.2759 11.5554 19.0884 12.1323 18.8428 12.6837C18.6028 13.2254 18.3051 13.7474 17.9573 14.2342C17.6146 14.718 17.2199 15.1718 16.7863 15.5855C16.3517 15.9974 15.8736 16.3723 15.3659 16.7C14.8531 17.029 14.3042 17.3121 13.7351 17.5417C13.1552 17.7744 12.5481 17.9527 11.9317 18.0731C11.2989 18.197 10.6482 18.2603 9.99801 18.2603C9.34735 18.2603 8.6967 18.197 8.06479 18.0731C7.44743 17.9527 6.84036 17.7744 6.26095 17.5417C5.69187 17.3121 5.14244 17.029 4.62961 16.7C4.12193 16.3723 3.64378 15.9974 3.21017 15.5855C2.77609 15.1718 2.38136 14.718 2.03823 14.2342C1.69227 13.7474 1.39411 13.2254 1.15318 12.6837C0.907509 12.1323 0.719557 11.5554 0.592514 10.9678C0.464082 10.3659 0.398438 9.74849 0.398438 9.13018C0.398438 8.5114 0.464044 7.89263 0.592552 7.29207C0.719594 6.70449 0.907546 6.12674 1.15321 5.57618C1.39415 5.03409 1.69231 4.51161 2.03826 4.02477C2.3814 3.54064 2.77613 3.08767 3.2102 2.67351C3.64382 2.26156 4.12197 1.88756 4.62965 1.56034C5.14248 1.22998 5.69191 0.946927 6.26098 0.716868C6.8404 0.483665 7.44743 0.304922 8.06483 0.185462C8.69673 0.0624281 9.34739 0 9.99804 0C10.6482 0 11.2989 0.0624281 11.9317 0.185462C12.5481 0.304958 13.1552 0.483701 13.7351 0.716868C14.3042 0.946891 14.8531 1.22998 15.3659 1.56034C15.8736 1.88756 16.3518 2.26156 16.7863 2.67351C17.22 3.08767 17.6147 3.54064 17.9573 4.02477C18.3051 4.51161 18.6028 5.03412 18.8428 5.57618C19.0884 6.12674 19.2759 6.70449 19.4025 7.29207C19.5323 7.89263 19.5984 8.5114 19.5984 9.13018ZM6.5 2.07792C4.21377 3.10464 2.50743 5.10809 1.97536 7.5226L1.98324 7.52267C2.26343 7.52513 5.64933 7.55494 9.54421 6.57078C8.12525 4.17321 6.60923 2.21661 6.5 2.07792ZM1.80616 8.88143C1.95147 8.88676 6.00217 8.97324 10.2235 7.77138C10.4583 8.20916 10.6829 8.6532 10.8887 9.09631C10.7809 9.12572 10.6721 9.15605 10.5652 9.18993C6.14093 10.5505 3.89734 14.3359 3.90016 14.3399C2.59415 12.9592 1.79959 11.1332 1.79959 9.13018C1.79959 9.07236 1.80159 9.01582 1.80361 8.95881C1.80452 8.93317 1.80543 8.90743 1.80616 8.88143ZM15.4124 3.27849C13.969 2.06809 12.0737 1.33389 9.99801 1.33389C9.33187 1.33389 8.68542 1.41058 8.06618 1.55234L8.07951 1.56933C8.27364 1.81661 9.76752 3.71948 11.131 6.10044C14.1992 5.00656 15.3729 3.33465 15.4116 3.27952L15.4124 3.27849ZM11.4275 10.3943L11.4474 10.3882C12.6011 13.2396 13.0773 15.6274 13.1987 16.3086C12.2148 16.7066 11.1333 16.9265 9.998 16.9265C8.09665 16.9265 6.35094 16.3054 4.95912 15.2761C4.97621 15.2408 6.55586 12.0089 11.3931 10.4052C11.4044 10.4012 11.4159 10.3978 11.4275 10.3943ZM14.5793 15.5962C16.4202 14.4148 17.7276 12.5389 18.0923 10.3659C17.9236 10.3142 15.6298 9.62364 12.9836 10.0271C14.059 12.8375 14.4959 15.1263 14.5793 15.5962ZM12.3064 8.39292C12.1363 8.0126 11.952 7.63417 11.7617 7.26235C14.9779 6.01319 16.2966 4.22137 16.3285 4.17798L16.329 4.17736C17.4793 5.5054 18.1746 7.20171 18.1933 9.05C18.191 9.04956 18.1878 9.04891 18.1836 9.04808C17.9684 9.00546 15.2461 8.46623 12.4836 8.79682C12.426 8.66311 12.3669 8.52935 12.3064 8.39292Z" 
        />
    </symbol>

    <symbol id="twitter" viewBox="0 0 16 16" xmlns="http://www.w3.org/2000/svg">
        <path 
            d="M16 2.97281C15.4 3.29588 14.8 3.40358 14.1 3.51127C14.8 3.0805 15.3 2.43434 15.5 1.57281C14.9 2.00358 14.2 2.21896 13.4 2.43435C12.8 1.78819 11.9 1.35742 11 1.35742C8.9 1.35742 7.3 3.51127 7.8 5.66511C5.1 5.55742 2.7 4.15742 1 2.00358C0.1 3.61896 0.6 5.66511 2 6.74204C1.5 6.74204 1 6.52665 0.5 6.31127C0.5 7.92665 1.6 9.43434 3.1 9.86511C2.6 9.97281 2.1 10.0805 1.6 9.97281C2 11.3728 3.2 12.4497 4.7 12.4497C3.5 13.419 1.7 13.9574 0 13.742C1.5 14.7113 3.2 15.3574 5 15.3574C11.1 15.3574 14.5 9.86511 14.3 4.80358C15 4.37281 15.6 3.72665 16 2.97281Z"
        />
    </symbol>

    <symbol id="discord" viewBox="0 0 14 17" xmlns="http://www.w3.org/2000/svg">
        <path 
            d="M5.552 7.56942C5.096 7.56942 4.736 7.96942 4.736 8.45742C4.736 8.94542 5.104 9.34542 5.552 9.34542C6.008 9.34542 6.368 8.94542 6.368 8.45742C6.376 7.96942 6.008 7.56942 5.552 7.56942ZM8.472 7.56942C8.016 7.56942 7.656 7.96942 7.656 8.45742C7.656 8.94542 8.024 9.34542 8.472 9.34542C8.928 9.34542 9.288 8.94542 9.288 8.45742C9.288 7.96942 8.928 7.56942 8.472 7.56942Z" 
        />
        <path 
            d="M12.36 0.857422H1.64C0.736 0.857422 0 1.59342 0 2.50542V13.3214C0 14.2334 0.736 14.9694 1.64 14.9694H10.712L10.288 13.4894L11.312 14.4414L12.28 15.3374L14 16.8574V2.50542C14 1.59342 13.264 0.857422 12.36 0.857422ZM9.272 11.3054C9.272 11.3054 8.984 10.9614 8.744 10.6574C9.792 10.3614 10.192 9.70542 10.192 9.70542C9.864 9.92142 9.552 10.0734 9.272 10.1774C8.872 10.3454 8.488 10.4574 8.112 10.5214C7.344 10.6654 6.64 10.6254 6.04 10.5134C5.584 10.4254 5.192 10.2974 4.864 10.1694C4.68 10.0974 4.48 10.0094 4.28 9.89742C4.256 9.88142 4.232 9.87342 4.208 9.85742C4.192 9.84942 4.184 9.84142 4.176 9.83342C4.032 9.75342 3.952 9.69742 3.952 9.69742C3.952 9.69742 4.336 10.3374 5.352 10.6414C5.112 10.9454 4.816 11.3054 4.816 11.3054C3.048 11.2494 2.376 10.0894 2.376 10.0894C2.376 7.51342 3.528 5.42542 3.528 5.42542C4.68 4.56142 5.776 4.58542 5.776 4.58542L5.856 4.68142C4.416 5.09742 3.752 5.72942 3.752 5.72942C3.752 5.72942 3.928 5.63342 4.224 5.49742C5.08 5.12142 5.76 5.01742 6.04 4.99342C6.088 4.98542 6.128 4.97742 6.176 4.97742C6.664 4.91342 7.216 4.89742 7.792 4.96142C8.552 5.04942 9.368 5.27342 10.2 5.72942C10.2 5.72942 9.568 5.12942 8.208 4.71342L8.32 4.58542C8.32 4.58542 9.416 4.56142 10.568 5.42542C10.568 5.42542 11.72 7.51342 11.72 10.0894C11.72 10.0894 11.04 11.2494 9.272 11.3054Z" 
        />
    </symbol>

    <symbol id="profile-add" fill="none" viewBox="0 0 21 21" xmlns="http://www.w3.org/2000/svg">
        <path 
            d="M15.9154 16.5361H12.582" 
            stroke-width="1.5" 
            stroke-linecap="round" 
            stroke-linejoin="round"
        />
        <path 
            d="M14.25 18.2025V14.8691" 
            stroke-width="1.5" 
            stroke-linecap="round" 
            stroke-linejoin="round"
        />
        <path 
            d="M10.6341 9.34479C10.5508 9.33646 10.4508 9.33646 10.3591 9.34479C8.37581 9.27813 6.80081 7.65313 6.80081 5.65313C6.79248 3.61146 8.45081 1.95312 10.4925 1.95312C12.5341 1.95312 14.1925 3.61146 14.1925 5.65313C14.1925 7.65313 12.6091 9.27813 10.6341 9.34479Z"  
            stroke-width="1.5" 
            stroke-linecap="round" 
            stroke-linejoin="round"
        />
        <path 
            d="M10.4922 18.4612C8.97552 18.4612 7.46719 18.0779 6.31719 17.3112C4.30052 15.9612 4.30052 13.7612 6.31719 12.4195C8.60885 10.8862 12.3672 10.8862 14.6589 12.4195" 
            stroke-width="1.5" 
            stroke-linecap="round" 
            stroke-linejoin="round"
        />
    </symbol>

    <symbol id="site" viewBox="0 0 18 18" xmlns="http://www.w3.org/2000/svg">
        <g clip-path="url(#clip0_5074_89280)">
            <path 
                d="M9 0.571289C6.61305 0.571289 4.32387 1.47435 2.63604 3.0818C0.948212 4.68926 0 6.86943 0 9.14272C0 11.416 0.948212 13.5962 2.63604 15.2036C4.32387 16.8111 6.61305 17.7141 9 17.7141C11.3869 17.7141 13.6761 16.8111 15.364 15.2036C17.0518 13.5962 18 11.416 18 9.14272C18 6.86943 17.0518 4.68926 15.364 3.0818C13.6761 1.47435 11.3869 0.571289 9 0.571289V0.571289ZM1.11 9.79034H3.62C3.66 10.657 3.787 11.518 4 12.3618H1.84C1.43721 11.5531 1.18996 10.6822 1.11 9.79034V9.79034ZM9.68 4.64748V1.70462C10.6437 2.05341 11.4356 2.73283 11.9 3.60938C12.105 3.93986 12.286 4.28367 12.44 4.63796L9.68 4.64748V4.64748ZM12.9 5.93319C13.132 6.77415 13.27 7.63605 13.31 8.50462H9.68V5.93319H12.9V5.93319ZM8.32 1.70462V4.64748H5.56C5.71426 4.2929 5.89471 3.94919 6.1 3.61891C6.56247 2.73877 7.35459 2.05573 8.32 1.70462V1.70462ZM8.32 5.93319V8.50462H4.7C4.74 7.63605 4.878 6.77415 5.11 5.93319H8.32V5.93319ZM3.62 8.4951H1.11C1.18996 7.60328 1.43721 6.73235 1.84 5.92367H4C3.78659 6.76714 3.65933 7.62829 3.62 8.4951V8.4951ZM4.7 9.79034H8.32V12.3618H5.11C4.87804 11.5209 4.7406 10.6589 4.7 9.79034V9.79034ZM8.33 13.5999V16.5427C7.36632 16.1939 6.57445 15.5145 6.11 14.638C5.90471 14.3077 5.72426 13.964 5.57 13.6094L8.33 13.5999V13.5999ZM9.68 16.5427V13.6475H12.44C12.2857 14.0021 12.1053 14.3458 11.9 14.6761C11.4356 15.5526 10.6437 16.232 9.68 16.5808V16.5427V16.5427ZM9.68 12.3141V9.74272H13.3C13.2594 10.6113 13.122 11.4733 12.89 12.3141H9.68ZM14.39 9.74272H16.9C16.82 10.6345 16.5728 11.5055 16.17 12.3141H14C14.21 11.4856 14.337 10.6408 14.38 9.79034L14.39 9.74272V9.74272ZM14.39 8.457C14.3442 7.60587 14.2136 6.7608 14 5.93319H16.16C16.563 6.74272 16.81 7.61319 16.89 8.50462L14.39 8.457ZM15.39 4.64748H13.6C13.2761 3.7811 12.8067 2.97055 12.21 2.24748C13.4544 2.77946 14.5353 3.60562 15.35 4.64748H15.39V4.64748ZM5.79 2.24748C5.19332 2.97055 4.72388 3.7811 4.4 4.64748H2.65C3.46472 3.60562 4.54562 2.77946 5.79 2.24748V2.24748ZM2.64 13.6761H4.4C4.72388 14.5424 5.19332 15.353 5.79 16.0761C4.54218 15.5361 3.46095 14.6998 2.65 13.6475L2.64 13.6761V13.6761ZM12.2 16.0761C12.7967 15.353 13.2661 14.5424 13.59 13.6761H15.35C14.5303 14.704 13.4498 15.5167 12.21 16.038L12.2 16.0761Z" 
            />
        </g>
        <defs>
            <clipPath id="clip0_5074_89280">
                <rect width="18" height="17.1429" fill="white" transform="translate(0 0.571289)"/>
            </clipPath>
        </defs>
    </symbol>

    <symbol id="linkedIn" viewBox="0 0 20 19" xmlns="http://www.w3.org/2000/svg">
        <path 
            fill-rule="evenodd" 
            clip-rule="evenodd" 
            d="M4.98751 2.11702C4.98751 3.29385 4.10168 4.23551 2.67933 4.23551H2.65326C1.28378 4.23551 0.398438 3.29385 0.398438 2.11702C0.398438 0.915302 1.31075 0 2.70621 0C4.10168 0 4.96103 0.915302 4.98751 2.11702ZM4.71884 5.90839V18.1647H0.639651V5.90839H4.71884ZM19.4298 18.1647L19.43 11.1373C19.43 7.37269 17.4176 5.62058 14.7333 5.62058C12.5675 5.62058 11.5979 6.81019 11.0564 7.64471V5.90871H6.97676C7.03053 7.05878 6.97676 18.165 6.97676 18.165H11.0564V11.3201C11.0564 10.9538 11.0829 10.5884 11.1908 10.3261C11.4856 9.59433 12.1569 8.83667 13.2838 8.83667C14.7605 8.83667 15.3508 9.96054 15.3508 11.6076V18.1647H19.4298Z" 
        />
    </symbol>

    <symbol id="github" viewBox="0 0 36 36" xmlns="http://www.w3.org/2000/svg">
        <path 
            d="M18.0001 0C8.06024 0 0 8.26271 0 18.4557C0 26.6099 5.15759 33.5279 12.3096 35.9683C13.2092 36.1391 13.5395 35.5679 13.5395 35.0805C13.5395 34.6404 13.5228 33.1865 13.515 31.6444C8.50736 32.7608 7.45068 29.4669 7.45068 29.4669C6.63187 27.3336 5.45209 26.7664 5.45209 26.7664C3.81894 25.6209 5.57519 25.6445 5.57519 25.6445C7.38272 25.7747 8.33447 27.5463 8.33447 27.5463C9.93991 30.3678 12.5454 29.5521 13.5725 29.0805C13.7341 27.8877 14.2006 27.0736 14.7154 26.6127C10.7173 26.146 6.51443 24.5635 6.51443 17.4918C6.51443 15.4768 7.21759 13.8305 8.36905 12.538C8.18216 12.0732 7.56604 10.1961 8.54342 7.65392C8.54342 7.65392 10.055 7.1579 13.4947 9.5457C14.9306 9.13678 16.4704 8.93171 18.0001 8.92468C19.5299 8.93171 21.0709 9.13678 22.5094 9.5457C25.945 7.1579 27.4545 7.65392 27.4545 7.65392C28.4343 10.1961 27.8178 12.0732 27.631 12.538C28.7851 13.8305 29.4835 15.4768 29.4835 17.4918C29.4835 24.5803 25.2726 26.1411 21.2644 26.598C21.91 27.1707 22.4853 28.2939 22.4853 30.0157C22.4853 32.4851 22.4644 34.4726 22.4644 35.0805C22.4644 35.5716 22.7884 36.1471 23.7008 35.9658C30.849 33.5227 36 26.6072 36 18.4557C36 8.26271 27.9409 0 18.0001 0Z" 
        />
    </symbol>

    <symbol id="element-plus" viewBox="0 0 16 16" fill="none" xmlns="http://www.w3.org/2000/svg">
        <path 
            d="M14.6667 5.51301V2.81967C14.6667 1.75967 14.24 1.33301 13.18 1.33301H10.4867C9.42667 1.33301 9 1.75967 9 2.81967V5.51301C9 6.57301 9.42667 6.99967 10.4867 6.99967H13.18C14.24 6.99967 14.6667 6.57301 14.6667 5.51301Z"  
            stroke-width="1.5" 
            stroke-linecap="round" 
            stroke-linejoin="round"
        />
        <path 
            d="M6.9987 5.67967V2.65301C6.9987 1.71301 6.57203 1.33301 5.51203 1.33301H2.8187C1.7587 1.33301 1.33203 1.71301 1.33203 2.65301V5.67301C1.33203 6.61967 1.7587 6.99301 2.8187 6.99301H5.51203C6.57203 6.99967 6.9987 6.61967 6.9987 5.67967Z"  
            stroke-width="1.5" 
            stroke-linecap="round" 
            stroke-linejoin="round"
        />
        <path 
            d="M6.9987 13.18V10.4867C6.9987 9.42667 6.57203 9 5.51203 9H2.8187C1.7587 9 1.33203 9.42667 1.33203 10.4867V13.18C1.33203 14.24 1.7587 14.6667 2.8187 14.6667H5.51203C6.57203 14.6667 6.9987 14.24 6.9987 13.18Z"  
            stroke-width="1.5" 
            stroke-linecap="round" 
            stroke-linejoin="round"
        />
        <path 
            d="M9.66797 11.667H13.668"  
            stroke-width="1.5" 
            stroke-linecap="round"
        />
        <path 
            d="M11.668 13.667V9.66699"  
            stroke-width="1.5" 
            stroke-linecap="round"
        />
    </symbol>

    <symbol id="plus" viewBox="0 0 16 16" fill="none" xmlns="http://www.w3.org/2000/svg">
        <path d="M8 1V15"  
            stroke-width="2" 
            stroke-linecap="round" 
            stroke-linejoin="round"
        />
        <path d="M1 8H15"  
            stroke-width="2" 
            stroke-linecap="round" 
            stroke-linejoin="round"
        />
    </symbol>

    <symbol id="star" viewBox="0 0 11 10" xmlns="http://www.w3.org/2000/svg">
        <path 
            d="M5.07212 0.691677C5.27519 0.0666875 6.15939 0.0666884 6.36246 0.691678L7.08802 2.92473C7.17884 3.20424 7.4393 3.39347 7.73319 3.39347H10.0812C10.7383 3.39347 11.0115 4.23439 10.4799 4.62066L8.58035 6.00076C8.34259 6.1735 8.2431 6.4797 8.33392 6.7592L9.05948 8.99226C9.26255 9.61724 8.54722 10.137 8.01558 9.75069L6.11603 8.37059C5.87827 8.19785 5.55631 8.19785 5.31855 8.37059L3.419 9.7507C2.88736 10.137 2.17203 9.61724 2.3751 8.99225L3.10067 6.7592C3.19148 6.4797 3.09199 6.1735 2.85423 6.00076L0.954682 4.62066C0.423035 4.23439 0.696266 3.39347 1.35342 3.39347H3.70139C3.99528 3.39347 4.25574 3.20424 4.34656 2.92473L5.07212 0.691677Z"
        />
    </symbol>

    <symbol id="note" viewBox="0 0 12 14" xmlns="http://www.w3.org/2000/svg">
        <path 
            d="M7.82749 9.18383L10.6482 4.65742L11.214 5.01001L11.9191 3.87841L6.26111 0.352582L5.55595 1.48418L6.12175 1.83677L3.30109 6.36317L1.46432 6.7896L0.759159 7.92121L3.70132 9.75463L1.58583 13.1494L2.49111 13.7136L4.6066 10.3188L7.54876 12.1522L8.25393 11.0206L7.82749 9.18383ZM3.04857 7.77684L4.15062 7.52097L7.25335 2.54193L9.51655 3.95226L6.41383 8.9313L6.66969 10.0334L3.04857 7.77684Z" 
        />
    </symbol>

    <symbol id="mark-border" viewBox="0 0 20 20" fill="none" xmlns="http://www.w3.org/2000/svg">
        <path 
            d="M6.98438 10.0001L8.99271 12.0167L13.0177 7.9834" 
            stroke-width="1.5" 
            stroke-linecap="round" 
            stroke-linejoin="round"
        />
        <path 
            d="M8.95937 2.0416C9.53437 1.54993 10.476 1.54993 11.0594 2.0416L12.376 3.17493C12.626 3.3916 13.0927 3.5666 13.426 3.5666H14.8427C15.726 3.5666 16.451 4.2916 16.451 5.17493V6.5916C16.451 6.9166 16.626 7.3916 16.8427 7.6416L17.976 8.95827C18.4677 9.53327 18.4677 10.4749 17.976 11.0583L16.8427 12.3749C16.626 12.6249 16.451 13.0916 16.451 13.4249V14.8416C16.451 15.7249 15.726 16.4499 14.8427 16.4499H13.426C13.101 16.4499 12.626 16.6249 12.376 16.8416L11.0594 17.9749C10.4844 18.4666 9.54271 18.4666 8.95937 17.9749L7.64271 16.8416C7.39271 16.6249 6.92604 16.4499 6.59271 16.4499H5.15104C4.26771 16.4499 3.54271 15.7249 3.54271 14.8416V13.4166C3.54271 13.0916 3.36771 12.6249 3.15937 12.3749L2.03437 11.0499C1.55104 10.4749 1.55104 9.5416 2.03437 8.9666L3.15937 7.6416C3.36771 7.3916 3.54271 6.92494 3.54271 6.59994V5.1666C3.54271 4.28327 4.26771 3.55827 5.15104 3.55827H6.59271C6.91771 3.55827 7.39271 3.38327 7.64271 3.1666L8.95937 2.0416Z"  
            stroke-width="1.5" 
            stroke-linecap="round" 
            stroke-linejoin="round"
        />
    </symbol>

    <symbol id="arrow-send" viewBox="0 0 24 25" fill="none" xmlns="http://www.w3.org/2000/svg">
        <path 
            d="M19 4L5 18" 
            stroke-width="1.5" 
            stroke-miterlimit="10" 
            stroke-linecap="round" 
            stroke-linejoin="round"
        />
        <path 
            d="M19 14.27V4H8.73" 
            stroke-width="1.5" 
            stroke-miterlimit="10" 
            stroke-linecap="round" 
            stroke-linejoin="round"
        />
    </symbol>

    <symbol id="arrow-down" viewBox="0 0 24 24" fill="none" xmlns="http://www.w3.org/2000/svg">
        <path d="M19.9201 8.94922L13.4001 15.4692C12.6301 16.2392 11.3701 16.2392 10.6001 15.4692L4.08008 8.94922" stroke-width="1.5" stroke-miterlimit="10" stroke-linecap="round" stroke-linejoin="round"/>
    </symbol>

    <symbol id="message" viewBox="0 0 17 17" fill="none" xmlns="http://www.w3.org/2000/svg">
        <path 
            d="M6.46875 14.0185H6.13221C3.4399 14.0185 2.09375 13.3454 2.09375 9.98002V6.61463C2.09375 3.92233 3.4399 2.57617 6.13221 2.57617H11.5168C14.2091 2.57617 15.5553 3.92233 15.5553 6.61463V9.98002C15.5553 12.6723 14.2091 14.0185 11.5168 14.0185H11.1803C10.9716 14.0185 10.7697 14.1194 10.6418 14.2877L9.63221 15.6339C9.18798 16.2262 8.46106 16.2262 8.01683 15.6339L7.00721 14.2877C6.89952 14.1396 6.65048 14.0185 6.46875 14.0185Z" 
            stroke-miterlimit="10" 
            stroke-linecap="round" 
            stroke-linejoin="round"
        />
        <path 
            d="M11.5164 8.63439H11.5225" 
            stroke-width="1.5" 
            stroke-linecap="round" 
            stroke-linejoin="round"
        />
        <path 
            d="M8.82503 8.63439H8.83107" 
            stroke-width="1.5" 
            stroke-linecap="round" 
            stroke-linejoin="round"
        />
        <path 
            d="M6.12972 8.63439H6.13576" 
            stroke-width="1.5" 
            stroke-linecap="round" 
            stroke-linejoin="round"
        />
    </symbol>

    <symbol id="collaborate" viewBox="0 0 22 22" xmlns="http://www.w3.org/2000/svg">
        <path 
            d="M3.5 14.75V14H2V14.75C2 16.1424 2.55312 17.4777 3.53769 18.4623C4.52226 19.4469 5.85761 20 7.25 20H9.5V18.5H7.25C6.25544 18.5 5.30161 18.1049 4.59835 17.4017C3.89509 16.6984 3.5 15.7446 3.5 14.75ZM17 7.25V8H18.5V7.25C18.5 5.85761 17.9469 4.52226 16.9623 3.53769C15.9777 2.55312 14.6424 2 13.25 2H11V3.5H13.25C13.7425 3.5 14.2301 3.597 14.6851 3.78545C15.14 3.97391 15.5534 4.25013 15.9017 4.59835C16.2499 4.94657 16.5261 5.35997 16.7145 5.81494C16.903 6.26991 17 6.75754 17 7.25ZM7.25 7.25H2.75C2.15326 7.25 1.58097 7.48705 1.15901 7.90901C0.737053 8.33097 0.5 8.90326 0.5 9.5V11H2V9.5C2 9.30109 2.07902 9.11032 2.21967 8.96967C2.36032 8.82902 2.55109 8.75 2.75 8.75H7.25C7.44891 8.75 7.63968 8.82902 7.78033 8.96967C7.92098 9.11032 8 9.30109 8 9.5V11H9.5V9.5C9.5 8.90326 9.26295 8.33097 8.84099 7.90901C8.41903 7.48705 7.84674 7.25 7.25 7.25ZM5 6.5C5.59334 6.5 6.17336 6.32405 6.66671 5.99441C7.16006 5.66477 7.54458 5.19623 7.77164 4.64805C7.9987 4.09987 8.05811 3.49667 7.94236 2.91473C7.8266 2.33279 7.54088 1.79824 7.12132 1.37868C6.70176 0.959123 6.16721 0.673401 5.58527 0.557646C5.00333 0.44189 4.40013 0.5013 3.85195 0.728363C3.30377 0.955426 2.83524 1.33994 2.50559 1.83329C2.17595 2.32664 2 2.90666 2 3.5C2 4.29565 2.31607 5.05871 2.87868 5.62132C3.44129 6.18393 4.20435 6.5 5 6.5ZM5 2C5.29667 2 5.58668 2.08797 5.83335 2.2528C6.08003 2.41762 6.27229 2.65189 6.38582 2.92598C6.49935 3.20007 6.52906 3.50167 6.47118 3.79264C6.4133 4.08361 6.27044 4.35088 6.06066 4.56066C5.85088 4.77044 5.58361 4.9133 5.29264 4.97118C5.00166 5.02906 4.70006 4.99935 4.42597 4.88582C4.15189 4.77229 3.91762 4.58003 3.7528 4.33336C3.58797 4.08668 3.5 3.79667 3.5 3.5C3.5 3.10218 3.65804 2.72065 3.93934 2.43934C4.22064 2.15804 4.60218 2 5 2ZM19.25 17.75H14.75C14.1533 17.75 13.581 17.9871 13.159 18.409C12.7371 18.831 12.5 19.4033 12.5 20V21.5H14V20C14 19.8011 14.079 19.6103 14.2197 19.4697C14.3603 19.329 14.5511 19.25 14.75 19.25H19.25C19.4489 19.25 19.6397 19.329 19.7803 19.4697C19.921 19.6103 20 19.8011 20 20V21.5H21.5V20C21.5 19.4033 21.2629 18.831 20.841 18.409C20.419 17.9871 19.8467 17.75 19.25 17.75ZM14 14C14 14.5933 14.1759 15.1734 14.5056 15.6667C14.8352 16.1601 15.3038 16.5446 15.8519 16.7716C16.4001 16.9987 17.0033 17.0581 17.5853 16.9424C18.1672 16.8266 18.7018 16.5409 19.1213 16.1213C19.5409 15.7018 19.8266 15.1672 19.9424 14.5853C20.0581 14.0033 19.9987 13.4001 19.7716 12.852C19.5446 12.3038 19.1601 11.8352 18.6667 11.5056C18.1734 11.1759 17.5933 11 17 11C16.2044 11 15.4413 11.3161 14.8787 11.8787C14.3161 12.4413 14 13.2044 14 14ZM18.5 14C18.5 14.2967 18.412 14.5867 18.2472 14.8334C18.0824 15.08 17.8481 15.2723 17.574 15.3858C17.2999 15.4994 16.9983 15.5291 16.7074 15.4712C16.4164 15.4133 16.1491 15.2704 15.9393 15.0607C15.7296 14.8509 15.5867 14.5836 15.5288 14.2926C15.4709 14.0017 15.5006 13.7001 15.6142 13.426C15.7277 13.1519 15.92 12.9176 16.1666 12.7528C16.4133 12.588 16.7033 12.5 17 12.5C17.3978 12.5 17.7794 12.658 18.0607 12.9393C18.342 13.2206 18.5 13.6022 18.5 14Z" 
        />
    </symbol>

    <symbol id="pen" viewBox="0 0 14 14" fill="none" xmlns="http://www.w3.org/2000/svg">
        <path 
            d="M7.74329 2.45342L1.83329 8.36342C1.60829 8.58842 1.38329 9.03092 1.33829 9.35342L1.01579 11.6109C0.895788 12.4284 1.47329 12.9984 2.29079 12.8859L4.54829 12.5634C4.86329 12.5184 5.30579 12.2934 5.53829 12.0684L11.4483 6.15842C12.4683 5.13842 12.9483 3.95342 11.4483 2.45342C9.94829 0.953422 8.76329 1.43342 7.74329 2.45342Z" 
            stroke-width="1.5" 
            stroke-miterlimit="10" 
            stroke-linecap="round" 
            stroke-linejoin="round"
        />
        <path 
            d="M6.89453 3.30078C7.39703 5.09328 8.79953 6.49578 10.5995 7.00578" 
            stroke-width="1.5" 
            stroke-miterlimit="10" 
            stroke-linecap="round" 
            stroke-linejoin="round"
        />
    </symbol>

    <symbol id="arrow-right" viewBox="0 0 16 16" fill="none" xmlns="http://www.w3.org/2000/svg">
        <path 
            d="M5.9988 13.2807L10.3455 8.93404C10.8588 8.4207 10.8588 7.5807 10.3455 7.06737L5.9988 2.7207" 
            stroke-width="1.5" 
            stroke-miterlimit="10" 
            stroke-linecap="round" 
            stroke-linejoin="round"
        />
    </symbol>

    <symbol id="user-add" viewBox="0 0 20 20" fill="none" xmlns="http://www.w3.org/2000/svg">
        <path 
            d="M9.9987 9.99935C12.2999 9.99935 14.1654 8.13387 14.1654 5.83268C14.1654 3.5315 12.2999 1.66602 9.9987 1.66602C7.69751 1.66602 5.83203 3.5315 5.83203 5.83268C5.83203 8.13387 7.69751 9.99935 9.9987 9.99935Z" 
            stroke-linecap="round" 
            stroke-linejoin="round"
        />
        <path 
            d="M2.83984 18.3333C2.83984 15.1083 6.04817 12.5 9.99817 12.5C10.7982 12.5 11.5732 12.6083 12.2982 12.8083" 
            stroke-linecap="round" 
            stroke-linejoin="round"
        />
        <path 
            d="M18.3346 14.9993C18.3346 15.266 18.3013 15.5243 18.2346 15.7743C18.1596 16.1077 18.0263 16.4327 17.8513 16.716C17.2763 17.6827 16.218 18.3327 15.0013 18.3327C14.143 18.3327 13.368 18.0077 12.7846 17.4743C12.5346 17.2577 12.318 16.9993 12.1513 16.716C11.843 16.216 11.668 15.6243 11.668 14.9993C11.668 14.0993 12.0263 13.2744 12.6096 12.6744C13.218 12.0494 14.068 11.666 15.0013 11.666C15.9846 11.666 16.8763 12.091 17.4763 12.7744C18.0096 13.366 18.3346 14.1493 18.3346 14.9993Z" 
            stroke-miterlimit="10" 
            stroke-linecap="round" 
            stroke-linejoin="round"
        />
        <path 
            d="M16.2411 14.9844H13.7578" 
            stroke-miterlimit="10" 
            stroke-linecap="round" 
            stroke-linejoin="round"
        />
        <path 
            d="M15 13.7676V16.2592" 
            stroke-miterlimit="10" 
            stroke-linecap="round" 
            stroke-linejoin="round"
        />
    </symbol>

    <symbol id="coin" viewBox="0 0 24 24" fill="none" xmlns="http://www.w3.org/2000/svg">
        <path 
            d="M18.5 12.6504V16.3504C18.5 19.4704 15.59 22.0004 12 22.0004C8.41 22.0004 5.5 19.4704 5.5 16.3504V12.6504C5.5 15.7704 8.41 18.0004 12 18.0004C15.59 18.0004 18.5 15.7704 18.5 12.6504Z" 
            stroke-width="1.5" 
            stroke-linecap="round" 
            stroke-linejoin="round"
        />
        <path 
            d="M18.5 7.65C18.5 8.56 18.25 9.4 17.81 10.12C16.74 11.88 14.54 13 12 13C9.46 13 7.26 11.88 6.19 10.12C5.75 9.4 5.5 8.56 5.5 7.65C5.5 6.09 6.22999 4.68 7.39999 3.66C8.57999 2.63 10.2 2 12 2C13.8 2 15.42 2.63 16.6 3.65C17.77 4.68 18.5 6.09 18.5 7.65Z" 
            stroke-width="1.5" 
            stroke-linecap="round" 
            stroke-linejoin="round"
        />
        <path 
            d="M18.5 7.65V12.65C18.5 15.77 15.59 18 12 18C8.41 18 5.5 15.77 5.5 12.65V7.65C5.5 4.53 8.41 2 12 2C13.8 2 15.42 2.63 16.6 3.65C17.77 4.68 18.5 6.09 18.5 7.65Z" 
            stroke-width="1.5" 
            stroke-linecap="round" 
            stroke-linejoin="round"
        />
    </symbol>

    <symbol id="archive" viewBox="0 0 16 16" xmlns="http://www.w3.org/2000/svg">
        <path 
            d="M11.2148 1.27344H4.78818C3.37484 1.27344 2.21484 2.43344 2.21484 3.84677V13.2401C2.21484 14.4401 3.07484 14.9468 4.12818 14.3668L7.38151 12.5601C7.72818 12.3668 8.28818 12.3668 8.62818 12.5601L11.8815 14.3668C12.9348 14.9534 13.7948 14.4468 13.7948 13.2401V3.84677C13.7882 2.43344 12.6348 1.27344 11.2148 1.27344Z" 
        />
    </symbol>

    <symbol id="settings" viewBox="0 0 15 14" fill="none" xmlns="http://www.w3.org/2000/svg">
        <path 
            d="M11.582 12.8327V6.41602"  
            stroke-width="1.5" 
            stroke-miterlimit="10" 
            stroke-linecap="round" 
            stroke-linejoin="round"
        />
        <path 
            d="M11.582 4.08268V1.16602"  
            stroke-width="1.5" 
            stroke-miterlimit="10" 
            stroke-linecap="round" 
            stroke-linejoin="round"
        />
        <path 
            d="M7.5 12.8327V9.91602"  
            stroke-width="1.5" 
            stroke-miterlimit="10" 
            stroke-linecap="round" 
            stroke-linejoin="round"
        />
        <path 
            d="M7.5 7.58268V1.16602"  
            stroke-width="1.5" 
            stroke-miterlimit="10" 
            stroke-linecap="round" 
            stroke-linejoin="round"
        />
        <path 
            d="M3.41797 12.8327V6.41602"  
            stroke-width="1.5" 
            stroke-miterlimit="10" 
            stroke-linecap="round" 
            stroke-linejoin="round"
        />
        <path 
            d="M3.41797 4.08268V1.16602"  
            stroke-width="1.5" 
            stroke-miterlimit="10" 
            stroke-linecap="round" 
            stroke-linejoin="round"
        />
        <path 
            d="M2.25 6.41602H4.58333"  
            stroke-width="1.5" 
            stroke-miterlimit="10" 
            stroke-linecap="round" 
            stroke-linejoin="round"
        />
        <path 
            d="M10.418 6.41602H12.7513"  
            stroke-width="1.5" 
            stroke-miterlimit="10" 
            stroke-linecap="round" 
            stroke-linejoin="round"
        />
        <path 
            d="M6.33203 7.58398H8.66536"  
            stroke-width="1.5" 
            stroke-miterlimit="10" 
            stroke-linecap="round" 
            stroke-linejoin="round"
        />
    </symbol>

    <symbol id="magnifier" viewBox="0 0 20 20" fill="none" xmlns="http://www.w3.org/2000/svg">
        <path 
            d="M9.58464 17.5003C13.9569 17.5003 17.5013 13.9559 17.5013 9.58366C17.5013 5.2114 13.9569 1.66699 9.58464 1.66699C5.21238 1.66699 1.66797 5.2114 1.66797 9.58366C1.66797 13.9559 5.21238 17.5003 9.58464 17.5003Z"  
            stroke-width="1.5" 
            stroke-linecap="round" 
            stroke-linejoin="round"
        />
        <path 
            d="M18.3346 18.3337L16.668 16.667"  
            stroke-width="1.5" 
            stroke-linecap="round" 
            stroke-linejoin="round"
        />
    </symbol>

    <symbol id="filter" viewBox="0 0 16 16" fill="none" xmlns="http://www.w3.org/2000/svg">
        <path 
            d="M14.668 4.33301H10.668" 
            stroke-width="1.5" 
            stroke-miterlimit="10" 
            stroke-linecap="round" 
            stroke-linejoin="round"
        />
        <path 
            d="M3.9987 4.33301H1.33203"  
            stroke-width="1.5" 
            stroke-miterlimit="10" 
            stroke-linecap="round" 
            stroke-linejoin="round"
        />
        <path 
            d="M6.66536 6.66667C7.95403 6.66667 8.9987 5.622 8.9987 4.33333C8.9987 3.04467 7.95403 2 6.66536 2C5.3767 2 4.33203 3.04467 4.33203 4.33333C4.33203 5.622 5.3767 6.66667 6.66536 6.66667Z" 
            stroke-width="1.5" 
            stroke-miterlimit="10" 
            stroke-linecap="round" 
            stroke-linejoin="round"
        />
        <path 
            d="M14.6667 11.667H12" 
            stroke-width="1.5" 
            stroke-miterlimit="10" 
            stroke-linecap="round" 
            stroke-linejoin="round"
        />
        <path 
            d="M5.33203 11.667H1.33203" 
            stroke-width="1.5" 
            stroke-miterlimit="10" 
            stroke-linecap="round" 
            stroke-linejoin="round"
        />
        <path 
            d="M9.33333 13.9997C10.622 13.9997 11.6667 12.955 11.6667 11.6663C11.6667 10.3777 10.622 9.33301 9.33333 9.33301C8.04467 9.33301 7 10.3777 7 11.6663C7 12.955 8.04467 13.9997 9.33333 13.9997Z" 
            stroke-width="1.5" 
            stroke-miterlimit="10" 
            stroke-linecap="round" 
            stroke-linejoin="round"
        />
    </symbol>
    
    <symbol id="user-tick" viewBox="0 0 14 14" fill="none" xmlns="http://www.w3.org/2000/svg">
        <path 
            d="M6.9987 7.00033C8.60953 7.00033 9.91537 5.69449 9.91537 4.08366C9.91537 2.47283 8.60953 1.16699 6.9987 1.16699C5.38787 1.16699 4.08203 2.47283 4.08203 4.08366C4.08203 5.69449 5.38787 7.00033 6.9987 7.00033Z" 
            stroke-linecap="round" 
            stroke-linejoin="round"
        />
        <path 
            d="M1.98828 12.8333C1.98828 10.5758 4.23411 8.75 6.99911 8.75C7.55911 8.75 8.10162 8.82583 8.60912 8.96583" 
            stroke-linecap="round" 
            stroke-linejoin="round"
        />
        <path 
            d="M12.8346 10.5003C12.8346 10.9378 12.7121 11.352 12.4963 11.702C12.3738 11.912 12.2163 12.0987 12.0355 12.2503C11.6271 12.6178 11.0905 12.8337 10.5013 12.8337C9.64964 12.8337 8.90879 12.3787 8.50629 11.702C8.29046 11.352 8.16797 10.9378 8.16797 10.5003C8.16797 9.76533 8.5063 9.10616 9.04297 8.68033C9.44547 8.3595 9.95297 8.16699 10.5013 8.16699C11.7905 8.16699 12.8346 9.21116 12.8346 10.5003Z"
            stroke-miterlimit="10" 
            stroke-linecap="round"
            stroke-linejoin="round"
        />
        <path 
            d="M9.58984 10.5004L10.1673 11.0779L11.4098 9.92871" 
            stroke-linecap="round" 
            stroke-linejoin="round"
        />
    </symbol>

    <symbol id="document-normal" viewBox="0 0 24 24" fill="none" xmlns="http://www.w3.org/2000/svg">
        <path 
            d="M10 6H14C16 6 16 5 16 4C16 2 15 2 14 2H10C9 2 8 2 8 4C8 6 9 6 10 6Z"  
            stroke-width="1.5" 
            stroke-miterlimit="10" 
            stroke-linecap="round" 
            stroke-linejoin="round"
        />
        <path 
            d="M16 4.01953C19.33 4.19953 21 5.42953 21 9.99953V15.9995C21 19.9995 20 21.9995 15 21.9995H9C4 21.9995 3 19.9995 3 15.9995V9.99953C3 5.43953 4.67 4.19953 8 4.01953"  
            stroke-width="1.5" 
            stroke-miterlimit="10" 
            stroke-linecap="round" 
            stroke-linejoin="round"
        />
   </symbol>
   
   <symbol id="tasks" viewBox="0 0 24 24" fill="none" xmlns="http://www.w3.org/2000/svg">
        <path 
            d="M12.3711 8.87988H17.6211" 
            stroke-width="1.5" 
            stroke-linecap="round" 
            stroke-linejoin="round"
        />
        <path 
            d="M6.37891 8.87988L7.12891 9.62988L9.37891 7.37988" 
            stroke-width="1.5" 
            stroke-linecap="round" 
            stroke-linejoin="round"
        />
        <path 
            d="M12.3711 15.8799H17.6211" 
            stroke-width="1.5" 
            stroke-linecap="round" 
            stroke-linejoin="round"
        />
        <path 
            d="M6.37891 15.8799L7.12891 16.6299L9.37891 14.3799" 
            stroke-width="1.5" 
            stroke-linecap="round" 
            stroke-linejoin="round"
        />
        <path 
            d="M9 22H15C20 22 22 20 22 15V9C22 4 20 2 15 2H9C4 2 2 4 2 9V15C2 20 4 22 9 22Z" 
            stroke-width="1.5" 
            stroke-linecap="round" 
            stroke-linejoin="round"
        />
   </symbol>

   <symbol id="format-circle" viewBox="0 0 24 24" fill="none" xmlns="http://www.w3.org/2000/svg">
        <path 
            d="M21.5008 5.35C21.5008 6.26 21.0708 7.07 20.4108 7.59C19.9308 7.97 19.3208 8.2 18.6508 8.2C17.0708 8.2 15.8008 6.93 15.8008 5.35C15.8008 4.68 16.0308 4.08 16.4108 3.59H16.4208C16.9308 2.93 17.7408 2.5 18.6508 2.5C20.2308 2.5 21.5008 3.77 21.5008 5.35Z" 
            stroke-width="1.5" 
            stroke-linecap="round" 
            stroke-linejoin="round"
        />
        <path 
            d="M8.2 5.35C8.2 6.93 6.93 8.2 5.35 8.2C4.68 8.2 4.08 7.97 3.59 7.59C2.93 7.07 2.5 6.26 2.5 5.35C2.5 3.77 3.77 2.5 5.35 2.5C6.26 2.5 7.07 2.93 7.59 3.59C7.97 4.08 8.2 4.68 8.2 5.35Z" 
            stroke-width="1.5" 
            stroke-linecap="round" 
            stroke-linejoin="round"
        />
        <path 
            d="M21.5008 18.6498C21.5008 20.2298 20.2308 21.4998 18.6508 21.4998C17.7408 21.4998 16.9308 21.0698 16.4208 20.4098H16.4108C16.0308 19.9298 15.8008 19.3198 15.8008 18.6498C15.8008 17.0698 17.0708 15.7998 18.6508 15.7998C19.3208 15.7998 19.9208 16.0298 20.4108 16.4098V16.4198C21.0708 16.9298 21.5008 17.7398 21.5008 18.6498Z" 
            stroke-width="1.5" 
            stroke-linecap="round" 
            stroke-linejoin="round"
        />
        <path 
            d="M8.2 18.6498C8.2 19.3198 7.97 19.9198 7.59 20.4098C7.07 21.0798 6.26 21.4998 5.35 21.4998C3.77 21.4998 2.5 20.2298 2.5 18.6498C2.5 17.7398 2.93 16.9298 3.59 16.4198V16.4098C4.07 16.0298 4.68 15.7998 5.35 15.7998C6.93 15.7998 8.2 17.0698 8.2 18.6498Z" 
            stroke-width="1.5" 
            stroke-linecap="round" 
            stroke-linejoin="round"
        />
        <path 
            d="M21.5 12C21.5 13.6 21.11 15.09 20.41 16.41C19.93 16.03 19.32 15.8 18.65 15.8C17.07 15.8 15.8 17.07 15.8 18.65C15.8 19.32 16.03 19.92 16.41 20.41C15.09 21.11 13.6 21.5 12 21.5C10.41 21.5 8.91 21.11 7.59 20.41C7.97 19.93 8.2 19.32 8.2 18.65C8.2 17.07 6.93 15.8 5.35 15.8C4.68 15.8 4.08 16.03 3.59 16.41C2.89 15.09 2.5 13.6 2.5 12C2.5 10.41 2.89 8.91 3.59 7.59C4.08 7.97 4.68 8.2 5.35 8.2C6.93 8.2 8.2 6.93 8.2 5.35C8.2 4.68 7.97 4.08 7.59 3.59C8.91 2.89 10.41 2.5 12 2.5C13.6 2.5 15.09 2.89 16.41 3.59C16.03 4.07 15.8 4.68 15.8 5.35C15.8 6.93 17.07 8.2 18.65 8.2C19.32 8.2 19.92 7.97 20.41 7.59C21.11 8.91 21.5 10.41 21.5 12Z" 
            stroke-width="1.5" 
            stroke-linecap="round" 
            stroke-linejoin="round"
        />
    </symbol>

    <symbol id="3ssquare" viewBox="0 0 24 24" fill="none" xmlns="http://www.w3.org/2000/svg">
        <path 
            d="M12 17V19.38C12 21.25 11.25 22 9.37 22H4.62C2.75 22 2 21.25 2 19.38V14.63C2 12.75 2.75 12 4.62 12H7V14.37C7 16.25 7.75 17 9.62 17H12Z" 
            stroke-width="1.5" 
            stroke-linecap="round" 
            stroke-linejoin="round"
        />
        <path 
            d="M17 12V14.37C17 16.25 16.25 17 14.37 17H9.62C7.75 17 7 16.25 7 14.37V9.62C7 7.75 7.75 7 9.62 7H12V9.37C12 11.25 12.75 12 14.62 12H17Z" 
            stroke-width="1.5" 
            stroke-linecap="round" 
            stroke-linejoin="round"
        />
        <path 
            d="M22 4.62V9.37C22 11.25 21.25 12 19.37 12H14.62C12.75 12 12 11.25 12 9.37V4.62C12 2.75 12.75 2 14.62 2H19.37C21.25 2 22 2.75 22 4.62Z" 
            stroke-width="1.5" 
            stroke-linecap="round" 
            stroke-linejoin="round"
        />
    </symbol>

    <symbol id="box-search" viewBox="0 0 24 24" fill="none" xmlns="http://www.w3.org/2000/svg">
        <path 
            d="M3.17188 7.44043L12.0019 12.5504L20.7719 7.4704" 
            stroke-width="1.5" 
            stroke-linecap="round" 
            stroke-linejoin="round"
        />
        <path 
            d="M12 21.61V12.54" 
            stroke-width="1.5" 
            stroke-linecap="round" 
            stroke-linejoin="round"
        />
        <path 
            d="M21.6106 12.83V9.17C21.6106 7.79 20.6206 6.11002 19.4106 5.44002L14.0706 2.48C12.9306 1.84 11.0706 1.84 9.9306 2.48L4.59061 5.44002C3.38061 6.11002 2.39062 7.79 2.39062 9.17V14.83C2.39062 16.21 3.38061 17.89 4.59061 18.56L9.9306 21.52C10.5006 21.84 11.2506 22 12.0006 22C12.7506 22 13.5006 21.84 14.0706 21.52" 
            stroke-width="1.5" 
            stroke-linecap="round" 
            stroke-linejoin="round"
        />
        <path 
            d="M19.2 21.4C20.9673 21.4 22.4 19.9673 22.4 18.2C22.4 16.4327 20.9673 15 19.2 15C17.4327 15 16 16.4327 16 18.2C16 19.9673 17.4327 21.4 19.2 21.4Z" 
            stroke-width="1.5" 
            stroke-linecap="round" 
            stroke-linejoin="round"
        />
        <path 
            d="M23 22L22 21" 
            stroke-width="1.5" 
            stroke-linecap="round" 
            stroke-linejoin="round"
        />
    </symbol>

    <symbol id="mark" viewBox="0 0 8 8" fill="none" xmlns="http://www.w3.org/2000/svg">
        <path 
            d="M1 3.99995L2.88667 5.88661L6.66667 2.11328"
            stroke-linecap="round" 
            stroke-linejoin="round"
        />
    </symbol>

    <symbol id="arrow-down" viewBox="0 0 16 16" fill="none" xmlns="http://www.w3.org/2000/svg">
        <path 
            d="M2.72125 5.99978L7.06792 10.3464C7.58125 10.8598 8.42125 10.8598 8.93458 10.3464L13.2812 5.99978" 
            stroke-width="1.5" 
            stroke-miterlimit="10" 
            stroke-linecap="round" 
            stroke-linejoin="round"
        />
    </symbol>

    <symbol id="arrow-down-long" viewBox="0 0 24 24" fill="none" xmlns="http://www.w3.org/2000/svg">
        <path 
            d="M18.0697 14.4297L11.9997 20.4997L5.92969 14.4297" 
            stroke-width="1.5" 
            stroke-miterlimit="10" 
            stroke-linecap="round" 
            stroke-linejoin="round"
        />
        <path 
            d="M12 3.5V20.33" 
            stroke-width="1.5" 
            stroke-miterlimit="10" 
            stroke-linecap="round" 
            stroke-linejoin="round"
        />
    </symbol>

    <symbol id="inline-discord" viewBox="0 0 25 25" xmlns="http://www.w3.org/2000/svg">
        <path 
            d="M19.5299 5.88864C18.1999 5.26864 16.7599 4.81864 15.2599 4.55864C15.2467 4.55822 15.2336 4.56069 15.2216 4.56587C15.2095 4.57105 15.1986 4.57883 15.1899 4.58864C15.0099 4.91864 14.7999 5.34864 14.6599 5.67864C13.0689 5.43864 11.4509 5.43864 9.85988 5.67864C9.71988 5.33864 9.50988 4.91864 9.31988 4.58864C9.30988 4.56864 9.27988 4.55864 9.24988 4.55864C7.74988 4.81864 6.31988 5.26864 4.97988 5.88864C4.96988 5.88864 4.95988 5.89864 4.94988 5.90864C2.22988 9.97864 1.47988 13.9386 1.84988 17.8586C1.84988 17.8786 1.85988 17.8986 1.87988 17.9086C3.67988 19.2286 5.40988 20.0286 7.11988 20.5586C7.14988 20.5686 7.17988 20.5586 7.18988 20.5386C7.58988 19.9886 7.94988 19.4086 8.25988 18.7986C8.27988 18.7586 8.25988 18.7186 8.21988 18.7086C7.64988 18.4886 7.10988 18.2286 6.57988 17.9286C6.53988 17.9086 6.53988 17.8486 6.56988 17.8186C6.67988 17.7386 6.78988 17.6486 6.89988 17.5686C6.91988 17.5486 6.94988 17.5486 6.96988 17.5586C10.4099 19.1286 14.1199 19.1286 17.5199 17.5586C17.5399 17.5486 17.5699 17.5486 17.5899 17.5686C17.6999 17.6586 17.8099 17.7386 17.9199 17.8286C17.9599 17.8586 17.9599 17.9186 17.9099 17.9386C17.3899 18.2486 16.8399 18.4986 16.2699 18.7186C16.2299 18.7286 16.2199 18.7786 16.2299 18.8086C16.5499 19.4186 16.9099 19.9986 17.2999 20.5486C17.3299 20.5586 17.3599 20.5686 17.3899 20.5586C19.1099 20.0286 20.8399 19.2286 22.6399 17.9086C22.6599 17.8986 22.6699 17.8786 22.6699 17.8586C23.1099 13.3286 21.9399 9.39864 19.5699 5.90864C19.5599 5.89864 19.5499 5.88864 19.5299 5.88864ZM8.77988 15.4686C7.74988 15.4686 6.88988 14.5186 6.88988 13.3486C6.88988 12.1786 7.72988 11.2286 8.77988 11.2286C9.83988 11.2286 10.6799 12.1886 10.6699 13.3486C10.6699 14.5186 9.82988 15.4686 8.77988 15.4686ZM15.7499 15.4686C14.7199 15.4686 13.8599 14.5186 13.8599 13.3486C13.8599 12.1786 14.6999 11.2286 15.7499 11.2286C16.8099 11.2286 17.6499 12.1886 17.6399 13.3486C17.6399 14.5186 16.8099 15.4686 15.7499 15.4686Z" 
        />
    </symbol>

    <symbol id="samudai"  viewBox="0 0 92 16" xmlns="http://www.w3.org/2000/svg">
        <path 
            d="M7.2366 15.963C5.00188 15.963 2.75604 15.1848 0.988281 13.606L2.90058 11.3157C4.22362 12.4053 5.61337 13.1057 7.30331 13.1057C8.62635 13.1057 9.42685 12.5832 9.42685 11.716V11.6715C9.42685 10.8488 8.92654 10.4263 6.45834 9.80366C3.48983 9.04764 1.57753 8.2249 1.57753 5.30087V5.2564C1.57753 2.58807 3.72331 0.820312 6.73629 0.820312C8.88207 0.820312 10.7165 1.49851 12.2064 2.68814L10.5275 5.1341C9.22672 4.23354 7.93704 3.67764 6.70294 3.67764C5.45772 3.67764 4.81288 4.24466 4.81288 4.95621V5.00068C4.81288 5.96795 5.4466 6.27925 7.99263 6.93522C10.9834 7.71348 12.6622 8.79192 12.6622 11.3491V11.3935C12.64 14.3287 10.4052 15.963 7.2366 15.963Z" 
        />
        <path 
            d="M24.5234 15.7611L23.1781 12.4591H16.952L15.6067 15.7611H12.3047L18.6197 0.929688H21.6105L27.9144 15.7611H24.5234ZM20.0651 4.80987L18.1083 9.59061H22.0218L20.0651 4.80987Z" 
        />
        <path 
            d="M40.1237 15.7626V6.14553L35.9767 12.4383H35.8878L31.7852 6.21224V15.7626H28.6055V1.03125H32.0965L35.9656 7.25733L39.8347 1.03125H43.3257V15.7626H40.1237Z" 
        />
        <path 
            d="M51.4409 15.9844C47.4829 15.9844 45.0703 13.7719 45.0703 9.43586V1.01953H48.3057V9.35804C48.3057 11.7595 49.5064 12.9936 51.4854 12.9936C53.4644 12.9936 54.6652 11.7929 54.6652 9.4581V1.01953H57.9005V9.3358C57.9005 13.8052 55.3989 15.9844 51.4409 15.9844Z" 
        />
        <path 
            d="M65.373 15.7626H59.625V1.03125H65.373C69.9981 1.03125 73.2001 4.211 73.2001 8.35802V8.40249C73.2001 12.5384 69.9981 15.7626 65.373 15.7626ZM69.8091 8.39137C69.8091 5.77864 68.0191 3.95529 65.373 3.95529H62.8715V12.8386H65.373C68.0191 12.8386 69.8091 11.0486 69.8091 8.43584V8.39137Z" 
        />
        <path 
            d="M84.4179 15.7611L83.0726 12.4591H76.8465L75.5013 15.7611H72.1992L78.5142 0.929688H81.505L87.82 15.7611H84.4179ZM79.9596 4.80987L78.0028 9.59061H81.9163L79.9596 4.80987Z"
        />
        <path 
            d="M88.6406 15.7626V1.03125H91.876V15.7626H88.6406Z" 
        />
    </symbol>

    <symbol id="arrow-right-long" viewBox="0 0 25 24" fill="none" xmlns="http://www.w3.org/2000/svg">
        <path 
            d="M14.9297 5.92969L20.9997 11.9997L14.9297 18.0697" 
            stroke-width="1.5" 
            stroke-miterlimit="10" 
            stroke-linecap="round" 
            stroke-linejoin="round"
        />
        <path 
            d="M4 12H20.83" 
            stroke-width="1.5" 
            stroke-miterlimit="10" 
            stroke-linecap="round" 
            stroke-linejoin="round"
        />
    </symbol>

    <symbol id="location" viewBox="0 0 24 24" fill="none" xmlns="http://www.w3.org/2000/svg">
        <path 
            d="M11.9989 13.4314C13.722 13.4314 15.1189 12.0345 15.1189 10.3114C15.1189 8.58828 13.722 7.19141 11.9989 7.19141C10.2758 7.19141 8.87891 8.58828 8.87891 10.3114C8.87891 12.0345 10.2758 13.4314 11.9989 13.4314Z" 
            stroke-width="1.5"
        />
        <path 
            d="M3.62166 8.49C5.59166 -0.169998 18.4217 -0.159997 20.3817 8.5C21.5317 13.58 18.3717 17.88 15.6017 20.54C13.5917 22.48 10.4117 22.48 8.39166 20.54C5.63166 17.88 2.47166 13.57 3.62166 8.49Z" 
            stroke-width="1.5"
        />
    </symbol>

    <symbol id="calendar" viewBox="0 0 24 24" fill="none" xmlns="http://www.w3.org/2000/svg">
        <path 
            d="M8 2V5" 
            stroke-width="1.5" 
            stroke-miterlimit="10" 
            stroke-linecap="round" 
            stroke-linejoin="round"
        />
        <path 
            d="M16 2V5" 
            stroke-width="1.5" 
            stroke-miterlimit="10" 
            stroke-linecap="round" 
            stroke-linejoin="round"
        />
        <path 
            d="M3.5 9.08984H20.5" 
            stroke-width="1.5" 
            stroke-miterlimit="10" 
            stroke-linecap="round" 
            stroke-linejoin="round"
        />
        <path 
            d="M21 8.5V17C21 20 19.5 22 16 22H8C4.5 22 3 20 3 17V8.5C3 5.5 4.5 3.5 8 3.5H16C19.5 3.5 21 5.5 21 8.5Z" 
            stroke-width="1.5" 
            stroke-miterlimit="10" 
            stroke-linecap="round" 
            stroke-linejoin="round"
        />
        <path 
            d="M15.6937 13.6992H15.7027" 
            stroke-width="2" 
            stroke-linecap="round" 
            stroke-linejoin="round"
        />
        <path 
            d="M15.6937 16.6992H15.7027" 
            stroke-width="2" 
            stroke-linecap="round" 
            stroke-linejoin="round"
        />
        <path 
            d="M11.9945 13.6992H12.0035" 
            stroke-width="2" 
            stroke-linecap="round" 
            stroke-linejoin="round"
        />
        <path 
            d="M11.9945 16.6992H12.0035" 
            stroke-width="2" 
            stroke-linecap="round" 
            stroke-linejoin="round"
        />
        <path 
            d="M8.29529 13.6992H8.30427" 
            stroke-width="2" 
            stroke-linecap="round" 
            stroke-linejoin="round"
        />
        <path 
            d="M8.29529 16.6992H8.30427" 
            stroke-width="2" 
            stroke-linecap="round" 
            stroke-linejoin="round"
        />
  </symbol>

  <symbol id="clock" viewBox="0 0 24 24" xmlns="http://www.w3.org/2000/svg">
    <path 
        d="M12 22.75C6.07 22.75 1.25 17.93 1.25 12C1.25 6.07 6.07 1.25 12 1.25C17.93 1.25 22.75 6.07 22.75 12C22.75 17.93 17.93 22.75 12 22.75ZM12 2.75C6.9 2.75 2.75 6.9 2.75 12C2.75 17.1 6.9 21.25 12 21.25C17.1 21.25 21.25 17.1 21.25 12C21.25 6.9 17.1 2.75 12 2.75Z" 
        stroke="none"
    />
    <path 
        d="M15.7106 15.9298C15.5806 15.9298 15.4506 15.8998 15.3306 15.8198L12.2306 13.9698C11.4606 13.5098 10.8906 12.4998 10.8906 11.6098V7.50977C10.8906 7.09977 11.2306 6.75977 11.6406 6.75977C12.0506 6.75977 12.3906 7.09977 12.3906 7.50977V11.6098C12.3906 11.9698 12.6906 12.4998 13.0006 12.6798L16.1006 14.5298C16.4606 14.7398 16.5706 15.1998 16.3606 15.5598C16.2106 15.7998 15.9606 15.9298 15.7106 15.9298Z" 
        stroke="none"
    />
  </symbol>

  <symbol id="maximize" viewBox="0 0 17 16" fill="none" xmlns="http://www.w3.org/2000/svg">
        <path 
            d="M14.5 6V2H10.5" 
            stroke-width="1.5"
            stroke-linecap="round" 
            stroke-linejoin="round"
        />
        <path 
            d="M2.5 10V14H6.5" 
            stroke-width="1.5" 
            stroke-linecap="round" 
            stroke-linejoin="round"
        />
        <path 
            d="M14.5 2L9.5 7" 
            stroke-width="1.5" 
            stroke-linecap="round" 
            stroke-linejoin="round"
        />
        <path 
            d="M7.5 9L2.5 14" 
            stroke-width="1.5" 
            stroke-linecap="round" 
            stroke-linejoin="round"
        />
  </symbol>

  <symbol id="cross-box" viewBox="0 0 17 16" fill="none" xmlns="http://www.w3.org/2000/svg">
    <path 
        d="M6.61328 9.88661L10.3866 6.11328"
        stroke-width="1.5" 
        stroke-linecap="round" 
        stroke-linejoin="round"
    />
    <path 
        d="M10.3866 9.88661L6.61328 6.11328"
        stroke-width="1.5" 
        stroke-linecap="round" 
        stroke-linejoin="round"
    />
    <path 
        d="M6.4987 14.6673H10.4987C13.832 14.6673 15.1654 13.334 15.1654 10.0007V6.00065C15.1654 2.66732 13.832 1.33398 10.4987 1.33398H6.4987C3.16536 1.33398 1.83203 2.66732 1.83203 6.00065V10.0007C1.83203 13.334 3.16536 14.6673 6.4987 14.6673Z" 
        stroke-width="1.5" 
        stroke-linecap="round" 
        stroke-linejoin="round"
    />
  </symbol>

  <symbol id="gear" viewBox="0 0 16 16" fill="none" xmlns="http://www.w3.org/2000/svg">
    <path 
        d="M8 10C9.10457 10 10 9.10457 10 8C10 6.89543 9.10457 6 8 6C6.89543 6 6 6.89543 6 8C6 9.10457 6.89543 10 8 10Z" 
        stroke-width="1.5" 
        stroke-miterlimit="10" 
        stroke-linecap="round" 
        stroke-linejoin="round"
    />
    <path 
        d="M1.33203 8.5863V7.41297C1.33203 6.71963 1.8987 6.1463 2.5987 6.1463C3.80536 6.1463 4.2987 5.29297 3.69203 4.2463C3.34536 3.6463 3.55203 2.8663 4.1587 2.51963L5.31203 1.85963C5.8387 1.5463 6.5187 1.73297 6.83203 2.25963L6.90536 2.3863C7.50536 3.43297 8.49203 3.43297 9.0987 2.3863L9.17203 2.25963C9.48536 1.73297 10.1654 1.5463 10.692 1.85963L11.8454 2.51963C12.452 2.8663 12.6587 3.6463 12.312 4.2463C11.7054 5.29297 12.1987 6.1463 13.4054 6.1463C14.0987 6.1463 14.672 6.71297 14.672 7.41297V8.5863C14.672 9.27963 14.1054 9.85297 13.4054 9.85297C12.1987 9.85297 11.7054 10.7063 12.312 11.753C12.6587 12.3596 12.452 13.133 11.8454 13.4796L10.692 14.1396C10.1654 14.453 9.48536 14.2663 9.17203 13.7396L9.0987 13.613C8.4987 12.5663 7.51203 12.5663 6.90536 13.613L6.83203 13.7396C6.5187 14.2663 5.8387 14.453 5.31203 14.1396L4.1587 13.4796C3.55203 13.133 3.34536 12.353 3.69203 11.753C4.2987 10.7063 3.80536 9.85297 2.5987 9.85297C1.8987 9.85297 1.33203 9.27963 1.33203 8.5863Z" 
        stroke-width="1.5" 
        stroke-miterlimit="10" 
        stroke-linecap="round" 
        stroke-linejoin="round"
    />
  </symbol>

  <symbol id="upload" viewBox="0 0 20 20" fill="none" xmlns="http://www.w3.org/2000/svg">
    <path 
        d="M7.76562 9.73438L9.89896 11.8677L12.0323 9.73438" 
        stroke-width="1.5" 
        stroke-miterlimit="10" 
        stroke-linecap="round" 
        stroke-linejoin="round"
    />
    <path 
        d="M9.89844 3.33594V11.8109" 
        stroke-width="1.5" 
        stroke-miterlimit="10" 
        stroke-linecap="round" 
        stroke-linejoin="round"
    />
    <path 
        d="M16.6693 10.1484C16.6693 13.8318 14.1693 16.8151 10.0026 16.8151C5.83594 16.8151 3.33594 13.8318 3.33594 10.1484" 
        stroke-width="1.5" 
        stroke-miterlimit="10" 
        stroke-linecap="round" 
        stroke-linejoin="round"
    />
  </symbol>

  <symbol id='edit' viewBox="0 0 32 32" fill="none" xmlns="http://www.w3.org/2000/svg">
    <path
      d="M17.3333 2.66797L19.9999 2.66797C26.6666 2.66797 29.3333 5.33464 29.3333 12.0013L29.3333 20.0013C29.3333 26.668 26.6666 29.3346 19.9999 29.3346L11.9999 29.3346C5.33325 29.3346 2.66658 26.668 2.66658 20.0013L2.66658 17.3346"
      stroke-width="1.5"
      stroke-linecap="round"
      stroke-linejoin="round"
    />
    <path
      d="M10.6132 4.027L21.1199 14.5337C21.5199 14.9337 21.9199 15.7203 21.9999 16.2937L22.5733 20.307C22.7866 21.7603 21.7599 22.7737 20.3066 22.5737L16.2933 22.0003C15.7333 21.9203 14.9466 21.5203 14.5332 21.1203L4.02658 10.6137C2.21325 8.80034 1.35992 6.69367 4.02658 4.027C6.69325 1.36034 8.79992 2.21367 10.6132 4.027Z"
      stroke-width="1.5"
      stroke-miterlimit="10"
      stroke-linecap="round"
      stroke-linejoin="round"
    />
    <path
      d="M12.1201 5.53516C11.2268 8.72182 8.73345 11.2152 5.53345 12.1218"
      stroke-width="1.5"
      stroke-miterlimit="10"
      stroke-linecap="round"
      stroke-linejoin="round"
    />
  <symbol id="wallet" viewBox="0 0 24 24" fill="none" xmlns="http://www.w3.org/2000/svg">
        <path 
            d="M2 12L2 17C2 20 4 22 7 22L17 22C20 22 22 20 22 17L22 12C22 9.28 20.36 7.38 17.81 7.06C17.55 7.02 17.28 7 17 7L7 7C6.74 7 6.49 7.00999 6.25 7.04999C3.67 7.34999 2 9.26 2 12Z" 
            stroke-width="1.5" 
            stroke-linecap="round" 
            stroke-linejoin="round"
        />
        <path 
            d="M6.24859 7.05C6.48859 7.01 6.73859 7.00001 6.99859 7.00001L16.9986 7.00001C17.2786 7.00001 17.5486 7.02001 17.8086 7.06001C17.6686 6.78001 17.4686 6.52001 17.2286 6.28001L13.9786 3.02C12.6086 1.66 10.3886 1.66 9.01859 3.02L7.26859 4.79002C6.62859 5.42002 6.28859 6.22 6.24859 7.05Z" 
            stroke-width="1.5" 
            stroke-linecap="round" 
            stroke-linejoin="round"
        />
        <path 
            d="M2 12.5L5 12.5C6.1 12.5 7 13.4 7 14.5C7 15.6 6.1 16.5 5 16.5L2 16.5"  
            stroke-width="1.5" 
            stroke-linecap="round" 
            stroke-linejoin="round"
        />
  </symbol>

  <symbol id="edit-pen" viewBox="0 0 16 16" fill="none" xmlns="http://www.w3.org/2000/svg">
    <path 
        d="M7.21436 2.74904L12.3456 8.18029C12.5394 8.38654 12.7269 8.79279 12.7644 9.07404L12.9956 11.099C13.0769 11.8303 12.5519 12.3303 11.8269 12.2053L9.81436 11.8615C9.53311 11.8115 9.13936 11.6053 8.94561 11.3928L3.81436 5.96154C2.92686 5.02404 2.52686 3.95529 3.90811 2.64904C5.28311 1.35529 6.32686 1.81154 7.21436 2.74904Z" 
        stroke-width="1.5" 
        stroke-miterlimit="10" 
        stroke-linecap="round" 
        stroke-linejoin="round"
    />
    <path 
        d="M8.07031 3.65625C7.80156 5.38125 6.40156 6.7 4.66406 6.875" 
        stroke-width="1.5" 
        stroke-miterlimit="10" 
        stroke-linecap="round" 
        stroke-linejoin="round"
    />
    <path 
        d="M13.625 14.25L2.375 14.25" 
        stroke-width="1.5" 
        stroke-miterlimit="10" 
        stroke-linecap="round" 
        stroke-linejoin="round"
    />
  </symbol>

  <symbol id="dots" viewBox="0 0 24 24" fill="none" xmlns="http://www.w3.org/2000/svg">
    <circle cx="21" cy="12" r="2.5" transform="rotate(180 21 12)" />
    <circle cx="12" cy="12" r="2.5" transform="rotate(180 12 12)" />
    <circle cx="3" cy="12" r="2.5" transform="rotate(180 3 12)" />
  </symbol>

  <symbol id="dots" viewBox="0 0 24 24" fill="none" xmlns="http://www.w3.org/2000/svg">
    <circle cx="21" cy="12" r="2.5" transform="rotate(180 21 12)" />
    <circle cx="12" cy="12" r="2.5" transform="rotate(180 12 12)" />
    <circle cx="3" cy="12" r="2.5" transform="rotate(180 3 12)" />
  </symbol>

  <symbol id="dots" viewBox="0 0 24 24" fill="none" xmlns="http://www.w3.org/2000/svg">
    <circle cx="21" cy="12" r="2.5" transform="rotate(180 21 12)" />
    <circle cx="12" cy="12" r="2.5" transform="rotate(180 12 12)" />
    <circle cx="3" cy="12" r="2.5" transform="rotate(180 3 12)" />
  </symbol>

  <symbol id="heart" viewBox="0 0 22 19" xmlns="http://www.w3.org/2000/svg">
    <path d="M11.62 17.8272C11.28 17.9365 10.72 17.9365 10.38 17.8272C7.48 16.9252 1 13.1623 1 6.78452C1 3.96918 3.49 1.69141 6.56 1.69141C8.38 1.69141 9.99 2.49318 11 3.7323C12.01 2.49318 13.63 1.69141 15.44 1.69141C18.51 1.69141 21 3.96918 21 6.78452C21 13.1623 14.52 16.9252 11.62 17.8272Z" stroke-width="1.5" stroke-linecap="round" stroke-linejoin="round"/>
  </symbol>

  <symbol id="square-left" viewBox="0 0 24 25" fill="none" xmlns="http://www.w3.org/2000/svg">
    <path d="M2 9.5L2 15.5C2 20.5 4 22.5 9 22.5L15 22.5C20 22.5 22 20.5 22 15.5L22 9.5C22 4.5 20 2.5 15 2.5L9 2.5C4 2.5 2 4.5 2 9.5Z" stroke="#52585E" stroke-width="1.5" stroke-linecap="round" stroke-linejoin="round"/>
    <path d="M13.3594 8.96875L9.83938 12.4987L13.3594 16.0287" stroke="#52585E" stroke-width="1.5" stroke-linecap="round" stroke-linejoin="round"/>
  </symbol>

  <symbol id="global" viewBox="0 0 24 25" fill="none" xmlns="http://www.w3.org/2000/svg">
    <path d="M12 22.9102C17.5228 22.9102 22 18.433 22 12.9102C22 7.38731 17.5228 2.91016 12 2.91016C6.47715 2.91016 2 7.38731 2 12.9102C2 18.433 6.47715 22.9102 12 22.9102Z" stroke="#F9F9F9" stroke-width="1.5" stroke-linecap="round" stroke-linejoin="round"/>
    <path d="M8.00156 3.91016H9.00156C7.05156 9.75016 7.05156 16.0702 9.00156 21.9102H8.00156" stroke="#F9F9F9" stroke-width="1.5" stroke-linecap="round" stroke-linejoin="round"/>
    <path d="M15 3.91016C16.95 9.75016 16.95 16.0702 15 21.9102" stroke="#F9F9F9" stroke-width="1.5" stroke-linecap="round" stroke-linejoin="round"/>
    <path d="M3 16.9102V15.9102C8.84 17.8602 15.16 17.8602 21 15.9102V16.9102" stroke="#F9F9F9" stroke-width="1.5" stroke-linecap="round" stroke-linejoin="round"/>
    <path d="M3 9.91172C8.84 7.96172 15.16 7.96172 21 9.91172" stroke="#F9F9F9" stroke-width="1.5" stroke-linecap="round" stroke-linejoin="round"/>
  </symbol>

  <symbol id="money" viewBox="0 0 24 25" fill="none" xmlns="http://www.w3.org/2000/svg">
    <path d="M17 21.4102H7C4 21.4102 2 19.9102 2 16.4102V9.41016C2 5.91016 4 4.41016 7 4.41016H17C20 4.41016 22 5.91016 22 9.41016V16.4102C22 19.9102 20 21.4102 17 21.4102Z" stroke="#F9F9F9" stroke-width="1.5" stroke-miterlimit="10" stroke-linecap="round" stroke-linejoin="round"/>
    <path d="M12 15.9102C13.6569 15.9102 15 14.567 15 12.9102C15 11.2533 13.6569 9.91016 12 9.91016C10.3431 9.91016 9 11.2533 9 12.9102C9 14.567 10.3431 15.9102 12 15.9102Z" stroke="#F9F9F9" stroke-width="1.5" stroke-miterlimit="10" stroke-linecap="round" stroke-linejoin="round"/>
    <path d="M5.5 10.4102V15.4102" stroke="#292D32" stroke-width="1.5" stroke-miterlimit="10" stroke-linecap="round" stroke-linejoin="round"/>
    <path d="M18.5 10.4102V15.4102" stroke="#292D32" stroke-width="1.5" stroke-miterlimit="10" stroke-linecap="round" stroke-linejoin="round"/>
  </symbol>

  <symbol id="graph" viewBox="0 0 24 25" fill="none" xmlns="http://www.w3.org/2000/svg">
    <path d="M18.32 12.9094C20.92 12.9094 22 11.9094 21.04 8.62936C20.39 6.41936 18.49 4.51936 16.28 3.86936C13 2.90936 12 3.98936 12 6.58936V9.46936C12 11.9094 13 12.9094 15 12.9094H18.32Z" stroke="#F9F9F9" stroke-width="1.5" stroke-linecap="round" stroke-linejoin="round"/>
    <path d="M20.0014 15.6119C19.0714 20.2419 14.6314 23.6019 9.5814 22.7819C5.7914 22.1719 2.7414 19.1219 2.1214 15.3319C1.3114 10.3019 4.6514 5.86187 9.2614 4.92188" stroke="#F9F9F9" stroke-width="1.5" stroke-linecap="round" stroke-linejoin="round"/>
  </symbol>

  <symbol id="format-square" viewBox="0 0 24 25" fill="none" xmlns="http://www.w3.org/2000/svg">
    <path d="M20 7.37187V17.4719C19.84 17.4419 19.67 17.4219 19.5 17.4219C18.12 17.4219 17 18.5419 17 19.9219C17 20.0919 17.02 20.2619 17.05 20.4219H6.95C6.98 20.2619 7 20.0919 7 19.9219C7 18.5419 5.88 17.4219 4.5 17.4219C4.33 17.4219 4.16 17.4419 4 17.4719V7.37187C4.16 7.40187 4.33 7.42188 4.5 7.42188C5.88 7.42188 7 6.30187 7 4.92188C7 4.75187 6.98 4.58187 6.95 4.42188H17.05C17.02 4.58187 17 4.75187 17 4.92188C17 6.30187 18.12 7.42188 19.5 7.42188C19.67 7.42188 19.84 7.40187 20 7.37187Z" stroke="#F9F9F9" stroke-width="1.5" stroke-linecap="round" stroke-linejoin="round"/>
    <path d="M7 4.92188C7 6.30187 5.88 7.42188 4.5 7.42188C4.33 7.42188 4.16 7.40187 4 7.37187C2.86 7.14187 2 6.13188 2 4.92188C2 3.54188 3.12 2.42188 4.5 2.42188C5.71 2.42188 6.72 3.28188 6.95 4.42188C6.98 4.58187 7 4.75187 7 4.92188Z" stroke="#F9F9F9" stroke-width="1.5" stroke-linecap="round" stroke-linejoin="round"/>
    <path d="M22 4.92188C22 6.13188 21.14 7.14187 20 7.37187C19.84 7.40187 19.67 7.42188 19.5 7.42188C18.12 7.42188 17 6.30187 17 4.92188C17 4.75187 17.02 4.58187 17.05 4.42188C17.28 3.28188 18.29 2.42188 19.5 2.42188C20.88 2.42188 22 3.54188 22 4.92188Z" stroke="#F9F9F9" stroke-width="1.5" stroke-linecap="round" stroke-linejoin="round"/>
    <path d="M7 19.9219C7 20.0919 6.98 20.2619 6.95 20.4219C6.72 21.5619 5.71 22.4219 4.5 22.4219C3.12 22.4219 2 21.3019 2 19.9219C2 18.7119 2.86 17.7019 4 17.4719C4.16 17.4419 4.33 17.4219 4.5 17.4219C5.88 17.4219 7 18.5419 7 19.9219Z" stroke="#F9F9F9" stroke-width="1.5" stroke-linecap="round" stroke-linejoin="round"/>
    <path d="M22 19.9219C22 21.3019 20.88 22.4219 19.5 22.4219C18.29 22.4219 17.28 21.5619 17.05 20.4219C17.02 20.2619 17 20.0919 17 19.9219C17 18.5419 18.12 17.4219 19.5 17.4219C19.67 17.4219 19.84 17.4419 20 17.4719C21.14 17.7019 22 18.7119 22 19.9219Z" stroke="#F9F9F9" stroke-width="1.5" stroke-linecap="round" stroke-linejoin="round"/>
  </symbol>

  <symbol id="flash" viewBox="0 0 24 25" fill="none" xmlns="http://www.w3.org/2000/svg">
    <path d="M6.09108 13.7027H9.18108V20.9027C9.18108 22.5827 10.0911 22.9227 11.2011 21.6627L18.7711 13.0627C19.7011 12.0127 19.3111 11.1427 17.9011 11.1427H14.8111V3.94275C14.8111 2.26275 13.9011 1.92275 12.7911 3.18275L5.22108 11.7827C4.30108 12.8427 4.69108 13.7027 6.09108 13.7027Z" stroke="#F9F9F9" stroke-width="1.5" stroke-miterlimit="10" stroke-linecap="round" stroke-linejoin="round"/>
  </symbol>

  <symbol id="money-send" viewBox="0 0 24 25" fill="none" xmlns="http://www.w3.org/2000/svg">
    <path d="M9.5 14.1702C9.5 15.1402 10.25 15.9202 11.17 15.9202H13.05C13.85 15.9202 14.5 15.2402 14.5 14.3902C14.5 13.4802 14.1 13.1502 13.51 12.9402L10.5 11.8902C9.91 11.6802 9.51001 11.3602 9.51001 10.4402C9.51001 9.60016 10.16 8.91016 10.96 8.91016H12.84C13.76 8.91016 14.51 9.69016 14.51 10.6602" stroke="#F9F9F9" stroke-width="1.5" stroke-linecap="round" stroke-linejoin="round"/>
    <path d="M12 7.92188V16.9219" stroke="#F9F9F9" stroke-width="1.5" stroke-linecap="round" stroke-linejoin="round"/>
    <path d="M22 12.4219C22 17.9419 17.52 22.4219 12 22.4219C6.48 22.4219 2 17.9419 2 12.4219C2 6.90188 6.48 2.42188 12 2.42188" stroke="#F9F9F9" stroke-width="1.5" stroke-linecap="round" stroke-linejoin="round"/>
    <path d="M22 6.42188V2.42188H18" stroke="#F9F9F9" stroke-width="1.5" stroke-linecap="round" stroke-linejoin="round"/>
    <path d="M17 7.42188L22 2.42188" stroke="#F9F9F9" stroke-width="1.5" stroke-linecap="round" stroke-linejoin="round"/>
  </symbol>

  <symbol id="money-send-gray" viewBox="0 0 24 25" fill="none" xmlns="http://www.w3.org/2000/svg">
    <path d="M9.5 14.1702C9.5 15.1402 10.25 15.9202 11.17 15.9202H13.05C13.85 15.9202 14.5 15.2402 14.5 14.3902C14.5 13.4802 14.1 13.1502 13.51 12.9402L10.5 11.8902C9.91 11.6802 9.51001 11.3602 9.51001 10.4402C9.51001 9.60016 10.16 8.91016 10.96 8.91016H12.84C13.76 8.91016 14.51 9.69016 14.51 10.6602" stroke="#1F2123" stroke-width="1.5" stroke-linecap="round" stroke-linejoin="round"/>
    <path d="M12 7.92188V16.9219" stroke="#1F2123" stroke-width="1.5" stroke-linecap="round" stroke-linejoin="round"/>
    <path d="M22 12.4219C22 17.9419 17.52 22.4219 12 22.4219C6.48 22.4219 2 17.9419 2 12.4219C2 6.90188 6.48 2.42188 12 2.42188" stroke="#1F2123" stroke-width="1.5" stroke-linecap="round" stroke-linejoin="round"/>
    <path d="M22 6.42188V2.42188H18" stroke="#1F2123" stroke-width="1.5" stroke-linecap="round" stroke-linejoin="round"/>
    <path d="M17 7.42188L22 2.42188" stroke="#1F2123" stroke-width="1.5" stroke-linecap="round" stroke-linejoin="round"/>
  </symbol>

  <symbol id="eye" viewBox="0 0 24 25" fill="none" xmlns="http://www.w3.org/2000/svg">
    <path d="M15.5819 12.0019C15.5819 13.9819 13.9819 15.5819 12.0019 15.5819C10.0219 15.5819 8.42188 13.9819 8.42188 12.0019C8.42188 10.0219 10.0219 8.42188 12.0019 8.42188C13.9819 8.42188 15.5819 10.0219 15.5819 12.0019Z" stroke="#F9F9F9" stroke-width="1.5" stroke-linecap="round" stroke-linejoin="round"/>
    <path d="M11.9998 20.2688C15.5298 20.2688 18.8198 18.1887 21.1098 14.5887C22.0098 13.1787 22.0098 10.8087 21.1098 9.39875C18.8198 5.79875 15.5298 3.71875 11.9998 3.71875C8.46984 3.71875 5.17984 5.79875 2.88984 9.39875C1.98984 10.8087 1.98984 13.1787 2.88984 14.5887C5.17984 18.1887 8.46984 20.2688 11.9998 20.2688Z" stroke="#F9F9F9" stroke-width="1.5" stroke-linecap="round" stroke-linejoin="round"/>
  </symbol>

  <symbol id="add-item" viewBox="0 0 16 16" fill="none" xmlns="http://www.w3.org/2000/svg">
    <g clip-path="url(#clip0_1192_99728)">
        <path d="M5.33594 10.6654H3.6226C2.09594 10.6654 1.33594 9.90536 1.33594 8.3787V3.6187C1.33594 2.09203 2.09594 1.33203 3.6226 1.33203H6.66927C8.19594 1.33203 8.95594 2.09203 8.95594 3.6187" stroke="#FDC087" stroke-linecap="round" stroke-linejoin="round"/>
        <path d="M12.3802 14.6654H9.33354C7.80688 14.6654 7.04688 13.9054 7.04688 12.3787V7.6187C7.04688 6.09203 7.80688 5.33203 9.33354 5.33203H12.3802C13.9069 5.33203 14.6669 6.09203 14.6669 7.6187V12.3787C14.6669 13.9054 13.9069 14.6654 12.3802 14.6654Z" stroke="#FDC087" stroke-linecap="round" stroke-linejoin="round"/>
        <path d="M9.91406 10H12.0874" stroke="#FDC087" stroke-linecap="round" stroke-linejoin="round"/>
        <path d="M11 11.0874V8.91406" stroke="#FDC087" stroke-linecap="round" stroke-linejoin="round"/>
    </g>
    <defs>
        <clipPath id="clip0_1192_99728">
            <rect width="16" height="16" fill="white"/>
        </clipPath>
    </defs>
  </symbol>

  <symbol id="lock" viewBox="0 0 16 16" fill="none" xmlns="http://www.w3.org/2000/svg">
    <path d="M4 6.66536V5.33203C4 3.12536 4.66667 1.33203 8 1.33203C11.3333 1.33203 12 3.12536 12 5.33203V6.66536" stroke="#FDC087" stroke-linecap="round" stroke-linejoin="round"/>
    <path d="M7.9987 12.3333C8.91917 12.3333 9.66536 11.5871 9.66536 10.6667C9.66536 9.74619 8.91917 9 7.9987 9C7.07822 9 6.33203 9.74619 6.33203 10.6667C6.33203 11.5871 7.07822 12.3333 7.9987 12.3333Z" stroke="#FDC087" stroke-linecap="round" stroke-linejoin="round"/>
    <path d="M11.332 14.668H4.66536C1.9987 14.668 1.33203 14.0013 1.33203 11.3346V10.0013C1.33203 7.33464 1.9987 6.66797 4.66536 6.66797H11.332C13.9987 6.66797 14.6654 7.33464 14.6654 10.0013V11.3346C14.6654 14.0013 13.9987 14.668 11.332 14.668Z" stroke="#FDC087" stroke-linecap="round" stroke-linejoin="round"/>
  </symbol>

  <symbol id="call" viewBox="0 0 16 16" fill="none" xmlns="http://www.w3.org/2000/svg">
    <path d="M14.6493 12.2187C14.6493 12.4587 14.5959 12.7054 14.4826 12.9454C14.3693 13.1854 14.2226 13.412 14.0293 13.6254C13.7026 13.9854 13.3426 14.2454 12.9359 14.412C12.5359 14.5787 12.1026 14.6654 11.6359 14.6654C10.9559 14.6654 10.2293 14.5054 9.4626 14.1787C8.69594 13.852 7.92927 13.412 7.16927 12.8587C6.4026 12.2987 5.67594 11.6787 4.9826 10.992C4.29594 10.2987 3.67594 9.57203 3.1226 8.81203C2.57594 8.05203 2.13594 7.29203 1.81594 6.5387C1.49594 5.7787 1.33594 5.05203 1.33594 4.3587C1.33594 3.90536 1.41594 3.47203 1.57594 3.07203C1.73594 2.66536 1.98927 2.29203 2.3426 1.9587C2.76927 1.5387 3.23594 1.33203 3.72927 1.33203C3.91594 1.33203 4.1026 1.37203 4.26927 1.45203C4.4426 1.53203 4.59594 1.65203 4.71594 1.82536L6.2626 4.00536C6.3826 4.17203 6.46927 4.32536 6.52927 4.47203C6.58927 4.61203 6.6226 4.75203 6.6226 4.8787C6.6226 5.0387 6.57594 5.1987 6.4826 5.35203C6.39594 5.50536 6.26927 5.66536 6.10927 5.82536L5.6026 6.35203C5.52927 6.42536 5.49594 6.51203 5.49594 6.6187C5.49594 6.67203 5.5026 6.7187 5.51594 6.77203C5.53594 6.82536 5.55594 6.86536 5.56927 6.90536C5.68927 7.12536 5.89594 7.41203 6.18927 7.7587C6.48927 8.10537 6.80927 8.4587 7.15594 8.81203C7.51594 9.16536 7.8626 9.49203 8.21594 9.79203C8.5626 10.0854 8.84927 10.2854 9.07594 10.4054C9.10927 10.4187 9.14927 10.4387 9.19594 10.4587C9.24927 10.4787 9.3026 10.4854 9.3626 10.4854C9.47594 10.4854 9.5626 10.4454 9.63594 10.372L10.1426 9.87203C10.3093 9.70537 10.4693 9.5787 10.6226 9.4987C10.7759 9.40536 10.9293 9.3587 11.0959 9.3587C11.2226 9.3587 11.3559 9.38536 11.5026 9.44536C11.6493 9.50536 11.8026 9.59203 11.9693 9.70537L14.1759 11.272C14.3493 11.392 14.4693 11.532 14.5426 11.6987C14.6093 11.8654 14.6493 12.032 14.6493 12.2187Z" stroke="#B2FFC3" stroke-miterlimit="10"/>
  </symbol>

  <symbol id="cross-circle" viewBox="0 0 16 16" fill="none" xmlns="http://www.w3.org/2000/svg">
    <g id="vuesax/linear/close-circle">
    <g id="close-circle">
    <path id="Vector" d="M8.00016 14.6667C11.6668 14.6667 14.6668 11.6667 14.6668 8.00004C14.6668 4.33337 11.6668 1.33337 8.00016 1.33337C4.3335 1.33337 1.3335 4.33337 1.3335 8.00004C1.3335 11.6667 4.3335 14.6667 8.00016 14.6667Z" stroke="#52585E" stroke-width="1.5" stroke-linecap="round" stroke-linejoin="round"/>
    <path id="Vector_2" d="M6.11328 9.88661L9.88661 6.11328" stroke="#52585E" stroke-width="1.5" stroke-linecap="round" stroke-linejoin="round"/>
    <path id="Vector_3" d="M9.88661 9.88661L6.11328 6.11328" stroke="#52585E" stroke-width="1.5" stroke-linecap="round" stroke-linejoin="round"/>
    </g>
    </g>
  </symbol>
</svg>