<svg width="31" height="32" viewBox="0 0 31 32" fill="none" xmlns="http://www.w3.org/2000/svg">
<g clip-path="url(#clip0_1611_59135)">
<path d="M28.4576 7.99826L27.2793 9.17586C28.2158 10.6479 28.5104 12.4943 27.8684 14.2591C26.7974 17.2559 23.4788 18.8351 20.4531 17.7647C20.024 17.6047 19.6238 17.4175 19.2748 17.1759L15.4999 20.9487L12.2068 17.6303C10.6812 18.6463 8.72647 18.9407 6.87903 18.2991C3.77328 17.1759 2.16774 13.7775 3.29141 10.7007C3.4515 10.2191 3.69324 9.79026 3.96059 9.39026L2.54219 7.97266L2.27484 8.42706C0.789494 10.8509 0.00230148 13.6375 -4.25354e-05 16.4799C-0.0272578 25.0143 6.93346 31.9983 15.4727 31.9983H15.4999C24.0391 31.9983 30.9742 25.0687 31 16.5327C30.9997 13.6935 30.2218 10.9086 28.7507 8.47986L28.4576 7.99826Z" fill="#00A6C4"/>
<path d="M5.70239 11.1328C5.28506 11.6884 5.05976 12.3645 5.06043 13.0592C5.06043 14.7984 6.47882 16.216 8.219 16.216C8.94261 16.216 9.61179 15.9744 10.1465 15.5472L5.70239 11.1328Z" fill="#00A6C4"/>
<path d="M21.203 15.2755C21.7121 15.6227 22.3012 15.8099 22.9704 15.8099C24.7106 15.8099 26.129 14.3923 26.129 12.6531C26.129 12.0115 25.9417 11.3955 25.5943 10.8867L21.203 15.2755Z" fill="#00A6C4"/>
<path d="M15.5517 18.5952L2.75574 5.752L3.26482 5.2176C6.4234 1.8736 10.733 0 15.3644 0H15.3916C20.0759 0 24.5744 2.0064 27.7058 5.4848L28.1876 6.0192L15.5517 18.5952ZM4.84491 5.752L15.5533 16.4816L26.1273 5.9664C23.2889 3.1312 19.4339 1.4976 15.4189 1.4976H15.3916C11.4022 1.4976 7.68171 2.9968 4.84491 5.752" fill="#00A6C4"/>
</g>
<defs>
<clipPath id="clip0_1611_59135">
<rect width="31" height="32" fill="white"/>
</clipPath>
</defs>
</svg>
