<svg width="115" height="115" viewBox="0 0 115 115" fill="none" xmlns="http://www.w3.org/2000/svg">
<path d="M95.832 28.7487C98.6112 28.7487 100.863 29.707 102.636 31.5758C104.457 33.5404 105.415 35.6966 105.415 38.332V91.0404C105.415 93.6758 104.457 95.832 102.636 97.7966C100.863 99.6654 98.6112 100.624 95.832 100.624H19.1654C16.3862 100.624 14.1341 99.6654 12.3612 97.7966C10.5404 95.832 9.58203 93.6758 9.58203 91.0404V38.332C9.58203 35.6966 10.5404 33.5404 12.3612 31.5758C14.1341 29.707 16.3862 28.7487 19.1654 28.7487H38.332V19.1654C38.332 16.3862 39.2904 14.1341 41.1112 12.3612C42.8841 10.5404 45.1362 9.58203 47.9154 9.58203H67.082C69.8612 9.58203 72.1133 10.5404 73.8862 12.3612C75.707 14.1341 76.6654 16.3862 76.6654 19.1654V28.7487H95.832ZM19.1654 38.332V91.0404H95.832V38.332H19.1654ZM67.082 28.7487V19.1654H47.9154V28.7487H67.082ZM57.4987 43.1237C60.3581 43.1237 63.1003 44.2596 65.1222 46.2815C67.1441 48.3033 68.28 51.0456 68.28 53.9049C68.28 59.8945 63.4404 64.6862 57.4987 64.6862C54.6393 64.6862 51.8971 63.5503 49.8752 61.5284C47.8533 59.5066 46.7175 56.7643 46.7175 53.9049C46.7175 47.9154 51.557 43.1237 57.4987 43.1237ZM79.0612 86.2487H35.9362V80.882C35.9362 74.8924 45.5195 70.1008 57.4987 70.1008C69.4779 70.1008 79.0612 74.8924 79.0612 80.882V86.2487Z" fill="url(#paint0_linear_5068_142730)"/>
<defs>
<linearGradient id="paint0_linear_5068_142730" x1="57.499" y1="-111.501" x2="57.4987" y2="100.624" gradientUnits="userSpaceOnUse">
<stop stop-color="white"/>
<stop offset="1" stop-color="white" stop-opacity="0"/>
</linearGradient>
</defs>
</svg>
