<svg width="20" height="20" viewBox="0 0 20 20" fill="none" xmlns="http://www.w3.org/2000/svg">
<path d="M9.375 4.37495C8.675 4.37495 8.02125 4.5662 7.4625 4.89995C7.40226 4.25894 7.19709 3.64001 6.8625 3.08995C7.67289 2.68522 8.56903 2.48219 9.47472 2.49812C10.3804 2.51406 11.2689 2.74848 12.0645 3.18147C12.8602 3.61446 13.5395 4.23319 14.0447 4.98506C14.5499 5.73692 14.866 6.59968 14.9662 7.49995H16.5638C17.7712 7.49995 18.7513 8.47995 18.7513 9.68745V15.3125C18.7513 15.5998 18.6946 15.8844 18.5846 16.1499C18.4746 16.4153 18.3134 16.6565 18.1101 16.8597C17.9068 17.0628 17.6655 17.2239 17.4 17.3338C17.1345 17.4437 16.8499 17.5001 16.5625 17.5H10.9375C10.3573 17.5 9.80094 17.2695 9.3907 16.8592C8.98047 16.449 8.75 15.8926 8.75 15.3125V13.7162C8.31666 13.6681 7.89044 13.5695 7.48 13.4225C7.4925 13.1274 7.5 12.82 7.5 12.5V12.4C7.5 12.0999 7.5 11.7462 7.4875 11.3662C7.87706 11.5944 8.30484 11.7498 8.75 11.825V9.68745C8.75 8.47995 9.73 7.49995 10.9375 7.49995H13.0737C12.926 6.62594 12.4735 5.83252 11.7964 5.26045C11.1193 4.68839 10.2614 4.37467 9.375 4.37495ZM14.8612 9.37495C14.625 10.408 14.1022 11.3535 13.3529 12.1029C12.6036 12.8522 11.6581 13.375 10.625 13.6112V15.3125C10.625 15.485 10.765 15.625 10.9375 15.625H16.5625C16.6454 15.625 16.7249 15.592 16.7835 15.5334C16.8421 15.4748 16.875 15.3953 16.875 15.3125V9.68745C16.875 9.60457 16.8421 9.52508 16.7835 9.46648C16.7249 9.40787 16.6454 9.37495 16.5625 9.37495H14.8612ZM12.9113 9.37495H10.9375C10.8546 9.37495 10.7751 9.40787 10.7165 9.46648C10.6579 9.52508 10.625 9.60457 10.625 9.68745V11.6624C11.1525 11.4754 11.6316 11.173 12.0273 10.7773C12.4231 10.3815 12.7255 9.90245 12.9125 9.37495H12.9113ZM4.47625 1.4062C4.58 1.49695 4.65085 1.61946 4.67775 1.75465C4.70465 1.88985 4.68611 2.03014 4.625 2.1537C4.61442 2.19027 4.60895 2.22813 4.60875 2.2662C4.60875 2.34495 4.62875 2.49495 4.8175 2.68245C4.90875 2.7737 4.97875 2.8387 5.055 2.90995C5.1175 2.96745 5.18375 3.02745 5.2675 3.10995C5.43 3.26495 5.60125 3.44745 5.755 3.6762C6.07375 4.15495 6.25 4.7537 6.25 5.62495C6.25 6.66495 5.875 7.5537 5.285 8.11495C5.65 8.48495 5.8625 8.9687 5.99375 9.45245C6.25 10.3924 6.25 11.555 6.25 12.4537V12.5C6.25 15.0724 5.76875 16.5999 5.22375 17.5087C5.01786 17.8665 4.74747 18.1831 4.42625 18.4424C4.29903 18.5417 4.16058 18.6256 4.01375 18.6925C4.01375 18.6925 3.855 18.75 3.75 18.75C3.65989 18.7428 3.57116 18.7234 3.48625 18.6925C3.33942 18.6256 3.20097 18.5417 3.07375 18.4424C2.75253 18.1831 2.48214 17.8665 2.27625 17.5087C1.73125 16.6012 1.25 15.0724 1.25 12.5V12.4549C1.25 11.5549 1.25 10.3937 1.50625 9.4512C1.6375 8.9687 1.85 8.48495 2.215 8.1137C1.625 7.55495 1.25 6.66495 1.25 5.62495C1.25 5.21745 1.35875 4.7312 1.50875 4.28245C1.65875 3.83245 1.86875 3.36745 2.11125 2.99245C2.4 2.50495 2.80625 2.0962 3.12125 1.8212C3.29395 1.66932 3.47418 1.52622 3.66125 1.39245L3.69875 1.36745L3.71 1.3587L3.71375 1.3562L3.71625 1.35495C3.83087 1.27855 3.96752 1.24215 4.10496 1.25142C4.2424 1.26068 4.37293 1.3151 4.47625 1.4062Z" fill="#F9F9F9"/>
</svg>
