<svg width="20" height="20" viewBox="0 0 20 20" fill="none" xmlns="http://www.w3.org/2000/svg">
<path d="M10.0003 1.66663C5.40533 1.66663 1.66699 5.40496 1.66699 9.99996C1.66699 14.595 5.40533 18.3333 10.0003 18.3333C14.5953 18.3333 18.3337 14.595 18.3337 9.99996C18.3337 5.40496 14.5953 1.66663 10.0003 1.66663ZM10.0003 16.6666C6.32449 16.6666 3.33366 13.6758 3.33366 9.99996C3.33366 6.32413 6.32449 3.33329 10.0003 3.33329C13.6762 3.33329 16.667 6.32413 16.667 9.99996C16.667 13.6758 13.6762 16.6666 10.0003 16.6666Z" fill="#52585E"/>
<path d="M12.3577 12.3566C12.0531 12.6602 11.6933 12.9029 11.2977 13.0716C10.5854 13.3723 9.79083 13.4162 9.0498 13.1958C8.30876 12.9754 7.66732 12.5044 7.23518 11.8633L5.85352 12.7958C6.21388 13.3276 6.67235 13.7857 7.20435 14.1458C7.74573 14.5119 8.354 14.7676 8.99435 14.8983C9.65835 15.0337 10.3429 15.0337 11.0068 14.8983C11.6471 14.7674 12.2554 14.5117 12.7968 14.1458C13.0577 13.9691 13.3068 13.7641 13.5352 13.5366C13.7618 13.3108 13.9685 13.0608 14.1468 12.7958L12.7652 11.8633C12.6454 12.0404 12.509 12.2056 12.3577 12.3566Z" fill="#52585E"/>
<path d="M7.08301 10C7.77336 10 8.33301 9.44036 8.33301 8.75C8.33301 8.05964 7.77336 7.5 7.08301 7.5C6.39265 7.5 5.83301 8.05964 5.83301 8.75C5.83301 9.44036 6.39265 10 7.08301 10Z" fill="#52585E"/>
<path d="M12.9112 9.98833C13.5983 9.98833 14.1553 9.4313 14.1553 8.74417C14.1553 8.05703 13.5983 7.5 12.9112 7.5C12.224 7.5 11.667 8.05703 11.667 8.74417C11.667 9.4313 12.224 9.98833 12.9112 9.98833Z" fill="#52585E"/>
</svg>
