<svg width="14" height="14" viewBox="0 0 14 14" fill="none" xmlns="http://www.w3.org/2000/svg">
<path d="M13.1176 1.05155C12.7843 0.710881 12.291 0.584881 11.831 0.718215L1.1043 3.81755C0.618962 3.95221 0.274962 4.33688 0.182296 4.82488C0.0876291 5.32221 0.418296 5.95422 0.850296 6.21821L4.2043 8.26622C4.5483 8.47688 4.9923 8.42421 5.27696 8.13888L9.11763 4.29821C9.31096 4.09755 9.63096 4.09755 9.8243 4.29821C10.0176 4.49088 10.0176 4.80488 9.8243 5.00488L5.97696 8.84555C5.69163 9.13088 5.6383 9.57355 5.8483 9.91821L7.89763 13.2849C8.13763 13.6842 8.55096 13.9115 9.0043 13.9115C9.05763 13.9115 9.11763 13.9115 9.17096 13.9042C9.69096 13.8382 10.1043 13.4842 10.2576 12.9842L13.4376 2.33821C13.5776 1.88488 13.451 1.39155 13.1176 1.05155Z" fill="black"/>
</svg>
