<svg width="36" height="36" viewBox="0 0 36 36" fill="none" xmlns="http://www.w3.org/2000/svg">
<circle cx="18" cy="18" r="18" fill="#2B2E31"/>
<g clip-path="url(#clip0_4009_48724)">
<path d="M11.685 24.897H22.3793L21.8685 23.2432C21.9443 23.3092 26.25 27 26.25 27V10.8562C26.199 9.85275 25.335 9 24.264 9L11.6888 9.00225C10.6185 9.00225 9.75 9.8565 9.75 10.86V23.04C9.75 24.0982 10.617 24.897 11.685 24.897V24.897ZM19.596 13.2623L19.5713 13.2713L19.5803 13.2623H19.596ZM13.8728 14.214C15.2475 13.2135 16.5218 13.2615 16.5218 13.2615L16.6245 13.3627C14.9423 13.764 14.1795 14.5155 14.1795 14.5155C14.2575 14.499 17.6543 12.5393 21.7703 14.565C21.7703 14.565 21.006 13.8622 19.4272 13.4122L19.5667 13.275C19.785 13.2757 20.94 13.3162 22.176 14.22C22.176 14.22 23.559 16.5825 23.559 19.485C23.5133 19.4295 22.701 20.7345 20.6107 20.7795C20.6107 20.7795 20.2568 20.379 20.0048 20.0295C21.2273 19.6785 21.6848 18.9765 21.6848 18.9765C19.305 20.475 17.2192 20.241 14.724 19.2285C14.7007 19.2285 14.6903 19.218 14.6783 19.206V19.2015C14.6663 19.1903 14.6558 19.179 14.6325 19.179H14.5875C14.4345 19.0785 14.3325 19.029 14.3325 19.029C14.3325 19.029 14.7893 19.731 15.963 20.082C15.6548 20.4338 15.3495 20.8335 15.3495 20.8335C13.26 20.784 12.498 19.479 12.498 19.479C12.498 16.572 13.8728 14.214 13.8728 14.214V14.214Z" fill="#5C6BC0"/>
<path d="M19.7312 18.578C20.2644 18.578 20.6987 18.128 20.6987 17.573C20.6987 17.0218 20.2667 16.5718 19.7312 16.5718V16.574C19.2002 16.574 18.7652 17.0225 18.7637 17.5775C18.7637 18.128 19.1979 18.578 19.7312 18.578Z" fill="#5C6BC0"/>
<path d="M16.2683 18.578C16.8015 18.578 17.2358 18.128 17.2358 17.573C17.2358 17.0218 16.8045 16.5718 16.2713 16.5718L16.2683 16.574C15.735 16.574 15.3008 17.0225 15.3008 17.5775C15.3008 18.128 15.735 18.578 16.2683 18.578V18.578Z" fill="#5C6BC0"/>
</g>
<defs>
<clipPath id="clip0_4009_48724">
<rect width="18" height="18" fill="white" transform="translate(9 9)"/>
</clipPath>
</defs>
</svg>
