<svg width="36" height="36" viewBox="0 0 36 36" fill="none" xmlns="http://www.w3.org/2000/svg">
<circle cx="18" cy="18" r="18" fill="#2B2E31"/>
<g clip-path="url(#clip0_4009_26519)">
<path d="M25.5238 13.5002L24.8397 14.1626C25.3835 14.9906 25.5545 16.0292 25.1817 17.0219C24.5599 18.7076 22.6329 19.5959 20.876 18.9938C20.6269 18.9038 20.3945 18.7985 20.1919 18.6626L18 20.7848L16.0879 18.9182C15.202 19.4897 14.0671 19.6553 12.9943 19.2944C11.191 18.6626 10.2588 16.751 10.9112 15.0203C11.0042 14.7494 11.1445 14.5082 11.2998 14.2832L10.4762 13.4858L10.3209 13.7414C9.45849 15.1049 9.00141 16.6723 9.00005 18.2711C8.98424 23.0717 13.0259 27.0002 17.9842 27.0002H18C22.9582 27.0002 26.9851 23.1023 27 18.3008C26.9999 16.7038 26.5482 15.1373 25.694 13.7711L25.5238 13.5002Z" fill="#00A6C4"/>
<path d="M12.3103 15.2612C12.0679 15.5737 11.9371 15.9541 11.9375 16.3448C11.9375 17.3231 12.7611 18.1205 13.7715 18.1205C14.1917 18.1205 14.5802 17.9846 14.8907 17.7443L12.3103 15.2612Z" fill="#00A6C4"/>
<path d="M21.3105 17.5932C21.6061 17.7885 21.9482 17.8938 22.3368 17.8938C23.3472 17.8938 24.1708 17.0964 24.1708 16.1181C24.1708 15.7572 24.062 15.4107 23.8603 15.1245L21.3105 17.5932Z" fill="#00A6C4"/>
<path d="M18.0315 19.4598L10.6016 12.2355L10.8972 11.9349C12.7312 10.0539 15.2335 9 17.9227 9H17.9385C20.6584 9 23.2705 10.1286 25.0887 12.0852L25.3685 12.3858L18.0315 19.4598ZM11.8146 12.2355L18.0324 18.2709L24.1721 12.3561C22.524 10.7613 20.2857 9.8424 17.9543 9.8424H17.9385C15.6221 9.8424 13.4618 10.6857 11.8146 12.2355Z" fill="#00A6C4"/>
</g>
<defs>
<clipPath id="clip0_4009_26519">
<rect width="18" height="18" fill="white" transform="translate(9 9)"/>
</clipPath>
</defs>
</svg>
