<svg width="36" height="36" viewBox="0 0 36 36" fill="none" xmlns="http://www.w3.org/2000/svg">
<path d="M0 18C0 8.05887 8.05887 0 18 0C27.9411 0 36 8.05887 36 18C36 27.9411 27.9411 36 18 36C8.05887 36 0 27.9411 0 18Z" fill="#2B2E31"/>
<path d="M26.5663 9H23.4775V13.5H27.9972V10.2689C27.9984 10.2689 27.7739 9.12272 26.5663 9Z" fill="#1967D2"/>
<path d="M23.4805 28.0827V28.0937V28.1036L28.0001 23.6035H27.9597L23.4805 28.0827Z" fill="#1967D2"/>
<path d="M27.9995 23.6069V23.5664L27.959 23.6069H27.9995Z" fill="#FBBC05"/>
<path d="M28.0001 13.5098H23.4805V23.5726H28.0001V13.5098Z" fill="#FBBC05"/>
<path d="M27.9596 23.6035H23.4805V28.0827L27.9596 23.6035Z" fill="#EA4335"/>
<path d="M23.4805 23.6069H27.9597L28.0001 23.5664H23.4805V23.6069Z" fill="#EA4335"/>
<path d="M23.4688 28.0944H23.4792V28.084L23.4688 28.0944Z" fill="#34A853"/>
<path d="M13.4189 23.5664V28.0971H23.4707L23.4818 23.5664H13.4189Z" fill="#34A853"/>
<path d="M23.4798 23.6069V23.5664L23.4688 28.0971L23.4798 28.0861V23.6069Z" fill="#34A853"/>
<path d="M9 23.5664V26.7166C9.0405 27.7388 10.14 28.0971 10.14 28.0971H13.4178V23.5664H9Z" fill="#188038"/>
<path d="M13.4178 13.5H23.4806V9H10.2677C10.2677 9 9.08099 9.12272 9 10.3904V23.5629H13.4178V13.5Z" fill="#4285F4"/>
<path d="M16.7087 21.5198C16.4785 21.5198 16.2565 21.4897 16.0428 21.4294C15.8345 21.3691 15.6426 21.2786 15.4672 21.158C15.2918 21.032 15.1356 20.8757 14.9986 20.6894C14.867 20.503 14.7656 20.2865 14.6943 20.0398L15.7056 19.637C15.7769 19.911 15.8975 20.1193 16.0674 20.2618C16.2373 20.3989 16.4511 20.4674 16.7087 20.4674C16.8238 20.4674 16.9335 20.4509 17.0376 20.4181C17.1418 20.3797 17.2322 20.3276 17.309 20.2618C17.3857 20.1961 17.446 20.1193 17.4898 20.0316C17.5392 19.9384 17.5638 19.8343 17.5638 19.7192C17.5638 19.478 17.4734 19.2889 17.2925 19.1519C17.1171 19.0148 16.8732 18.9463 16.5607 18.9463H16.0756V17.9679H16.5196C16.6293 17.9679 16.7361 17.9542 16.8403 17.9268C16.9444 17.8994 17.0349 17.8582 17.1116 17.8034C17.1938 17.7431 17.2569 17.6691 17.3007 17.5814C17.3501 17.4883 17.3747 17.3814 17.3747 17.2608C17.3747 17.0744 17.309 16.9237 17.1774 16.8086C17.0458 16.688 16.8677 16.6277 16.643 16.6277C16.4018 16.6277 16.2154 16.6935 16.0839 16.825C15.9578 16.9511 15.8701 17.0936 15.8208 17.2526L14.8341 16.8497C14.8834 16.7126 14.9574 16.5729 15.0561 16.4304C15.1548 16.2824 15.2781 16.1508 15.4261 16.0357C15.5796 15.9151 15.7577 15.8192 15.9605 15.7479C16.1633 15.6712 16.3963 15.6328 16.6594 15.6328C16.928 15.6328 17.1719 15.6712 17.3912 15.7479C17.6159 15.8247 17.8078 15.9315 17.9667 16.0686C18.1257 16.2001 18.249 16.3591 18.3367 16.5455C18.4244 16.7263 18.4683 16.9237 18.4683 17.1374C18.4683 17.3019 18.4463 17.4499 18.4025 17.5814C18.3641 17.713 18.312 17.8308 18.2463 17.935C18.1805 18.0391 18.1037 18.1296 18.016 18.2063C17.9338 18.2776 17.8489 18.3351 17.7612 18.379V18.4448C18.0243 18.5489 18.2408 18.7161 18.4107 18.9463C18.5861 19.1765 18.6738 19.467 18.6738 19.8178C18.6738 20.0645 18.6272 20.292 18.534 20.5003C18.4409 20.7031 18.3066 20.8812 18.1312 21.0347C17.9612 21.1882 17.7557 21.306 17.5145 21.3883C17.2733 21.476 17.0047 21.5198 16.7087 21.5198Z" fill="#4285F4"/>
<path d="M20.6373 21.3883V17.0306L19.6424 17.4499L19.2478 16.5372L20.9004 15.7644H21.7144V21.3883H20.6373Z" fill="#4285F4"/>
</svg>
