<svg 
    aria-hidden="true" 
    style="position: absolute; width: 0; height: 0; overflow: hidden;" 
    version="1.1" 
    xmlns="http://www.w3.org/2000/svg" 
    xmlns:xlink="http://www.w3.org/1999/xlink"
>
    <defs>
        <symbol id="save" viewBox="0 0 25 25">
            <path d="M12.9086 6.16971H5.12854C3.41854 6.16971 2.01855 7.56969 2.01855 9.27969V20.6397C2.01855 22.0897 3.05855 22.7097 4.32855 21.9997L8.25854 19.8097C8.67854 19.5797 9.35855 19.5797 9.76855 19.8097L13.6985 21.9997C14.9685 22.7097 16.0085 22.0897 16.0085 20.6397V9.27969C16.0185 7.56969 14.6186 6.16971 12.9086 6.16971Z" stroke="#FDC087" stroke-width="1.5" stroke-linecap="round" stroke-linejoin="round"/>
            <path d="M16.0186 9.27969V20.6397C16.0186 22.0897 14.9786 22.6997 13.7086 21.9997L9.77856 19.8097C9.35856 19.5797 8.67854 19.5797 8.25854 19.8097L4.32855 21.9997C3.05855 22.6997 2.01855 22.0897 2.01855 20.6397V9.27969C2.01855 7.56969 3.41854 6.16971 5.12854 6.16971H12.9086C14.6186 6.16971 16.0186 7.56969 16.0186 9.27969Z" stroke="#FDC087" stroke-width="1.5" stroke-linecap="round" stroke-linejoin="round"/>
            <path d="M22.0186 5.39969V16.7597C22.0186 18.2097 20.9786 18.8197 19.7086 18.1197L16.0186 16.0597V9.27969C16.0186 7.56969 14.6186 6.16971 12.9086 6.16971H8.01855V5.39969C8.01855 3.68969 9.41854 2.2897 11.1285 2.2897H18.9086C20.6186 2.2897 22.0186 3.68969 22.0186 5.39969Z" stroke="#FDC087" stroke-width="1.5" stroke-linecap="round" stroke-linejoin="round"/>
        </symbol>
    </defs>
</svg>