<svg width="20" height="20" viewBox="0 0 20 20" fill="none" xmlns="http://www.w3.org/2000/svg">
<path d="M12.5013 6.9745V6.1745C12.5013 3.69117 10.7763 2.74117 8.6763 4.05783L6.24297 5.58283C5.9763 5.74117 5.66797 5.83283 5.35964 5.83283H4.16797C2.5013 5.83283 1.66797 6.66617 1.66797 8.33283V11.6662C1.66797 13.3328 2.5013 14.1662 4.16797 14.1662H5.83464" stroke="#F9F9F9" strokeWidth="1.5" stroke-linecap="round" strokeLinejoin="round"/>
<path d="M8.67578 15.942C10.7758 17.2587 12.5008 16.3003 12.5008 13.8253V10.792" stroke="#F9F9F9" strokeWidth="1.5" stroke-linecap="round" strokeLinejoin="round"/>
<path d="M15.675 7.84961C16.425 9.64128 16.2 11.7329 15 13.3329" stroke="#F9F9F9" strokeWidth="1.5" stroke-linecap="round" strokeLinejoin="round"/>
<path d="M17.6254 6.5C18.8504 9.40833 18.4837 12.8083 16.5254 15.4167" stroke="#F9F9F9" strokeWidth="1.5" stroke-linecap="round" strokeLinejoin="round"/>
<path d="M18.3346 1.66602L1.66797 18.3327" stroke="#F9F9F9" strokeWidth="1.5" stroke-linecap="round" strokeLinejoin="round"/>
</svg>
