<svg width="36" height="36" viewBox="0 0 36 36" fill="none" xmlns="http://www.w3.org/2000/svg">
<circle cx="18" cy="18" r="18" fill="#2B2E31"/>
<g clip-path="url(#clip0_4009_20238)">
<path d="M23.3241 14.7417C22.9301 14.5166 22.4235 14.5166 21.9731 14.7417L18.8209 16.5993L16.6819 17.7814L13.5859 19.6389C13.1919 19.8641 12.6853 19.8641 12.235 19.6389L9.8145 18.1754C9.42047 17.9502 9.13902 17.4999 9.13902 16.9933V14.1788C9.13902 13.7285 9.36418 13.2782 9.8145 12.9967L12.235 11.5895C12.629 11.3643 13.1356 11.3643 13.5859 11.5895L16.0064 13.053C16.4004 13.2782 16.6819 13.7285 16.6819 14.2351V16.0927L18.8209 14.8543V12.9404C18.8209 12.4901 18.5957 12.0398 18.1454 11.7583L13.6422 9.11272C13.2482 8.88756 12.7416 8.88756 12.2913 9.11272L7.67548 11.8146C7.22516 12.0398 7 12.4901 7 12.9404V18.2317C7 18.682 7.22516 19.1323 7.67548 19.4138L12.235 22.0594C12.629 22.2846 13.1356 22.2846 13.5859 22.0594L16.6819 20.2581L18.8209 19.0198L21.9168 17.2185C22.3109 16.9933 22.8175 16.9933 23.2678 17.2185L25.6883 18.6257C26.0823 18.8509 26.3638 19.3012 26.3638 19.8078V22.6223C26.3638 23.0726 26.1386 23.523 25.6883 23.8044L23.3241 25.2117C22.9301 25.4368 22.4235 25.4368 21.9731 25.2117L19.5527 23.8044C19.1586 23.5792 18.8772 23.1289 18.8772 22.6223V20.821L16.7382 22.0594V23.917C16.7382 24.3673 16.9633 24.8176 17.4136 25.0991L21.9731 27.7447C22.3672 27.9699 22.8738 27.9699 23.3241 27.7447L27.8836 25.0991C28.2776 24.8739 28.5591 24.4236 28.5591 23.917V18.5694C28.5591 18.1191 28.3339 17.6688 27.8836 17.3873L23.3241 14.7417Z" fill="#8247E5"/>
</g>
<defs>
<clipPath id="clip0_4009_20238">
<rect width="21.6154" height="18.8571" fill="white" transform="translate(7 9)"/>
</clipPath>
</defs>
</svg>
