<svg width="36" height="36" viewBox="0 0 36 36" fill="none" xmlns="http://www.w3.org/2000/svg">
<path d="M0 18C0 8.05887 8.05887 0 18 0C27.9411 0 36 8.05887 36 18C36 27.9411 27.9411 36 18 36C8.05887 36 0 27.9411 0 18Z" fill="#2B2E31"/>
<path d="M18.1845 9H18.1837C18.1671 9 18.1515 9 18.1367 9.0002C18.0185 9.00139 17.8241 9.00327 17.8067 9.00347C17.3804 9.00347 16.5276 9.0635 15.6116 9.46666C15.0878 9.69702 14.6167 10.0085 14.2114 10.3924C13.7282 10.8499 13.3345 11.414 13.0415 12.0692C12.6124 13.0285 12.7143 14.6443 12.7961 15.9429L12.7964 15.9449C12.8052 16.084 12.8144 16.2292 12.8228 16.3707C12.7598 16.3995 12.6578 16.4299 12.5073 16.4299C12.2653 16.4299 11.9775 16.3528 11.6522 16.2008C11.5564 16.1563 11.4472 16.1338 11.3266 16.1338C11.1329 16.1338 10.9287 16.1907 10.7515 16.2945C10.5287 16.425 10.3847 16.6094 10.3456 16.8139C10.3198 16.9491 10.321 17.2164 10.6188 17.4875C10.7826 17.6368 11.0233 17.7744 11.3339 17.8968C11.4154 17.9288 11.5121 17.9593 11.6145 17.9917C11.9701 18.1044 12.5081 18.2746 12.6485 18.6039C12.7196 18.7709 12.689 18.9906 12.5578 19.2561C12.5543 19.2633 12.5509 19.2704 12.5478 19.2779C12.515 19.3542 12.2091 20.0451 11.5816 20.7738C11.225 21.1882 10.8323 21.5345 10.4149 21.8034C9.90547 22.1317 9.35425 22.3463 8.77671 22.4411C8.54992 22.4783 8.38796 22.6797 8.40059 22.9087C8.40447 22.9747 8.42 23.0405 8.44692 23.1041C8.44712 23.1045 8.44737 23.1049 8.44757 23.1053C8.53927 23.3191 8.75188 23.5008 9.09755 23.6611C9.51994 23.8567 10.1517 24.0213 10.975 24.15C11.0166 24.2289 11.0598 24.4272 11.0897 24.5629C11.121 24.7072 11.1536 24.8555 11.2002 25.0131C11.2504 25.1838 11.3806 25.3878 11.7151 25.3878C11.8419 25.3878 11.9877 25.3593 12.1565 25.3267C12.4038 25.2783 12.7419 25.2123 13.1639 25.2123C13.3978 25.2123 13.6403 25.2329 13.8843 25.2733C14.3548 25.3514 14.7604 25.6371 15.2296 25.9679C15.9165 26.452 16.694 27 17.8818 27C17.9142 27 17.9467 26.999 17.9788 26.9967C18.0181 26.9986 18.0667 27 18.1181 27C19.3063 27 20.0836 26.4518 20.7697 25.9681L20.7708 25.9671C21.2401 25.6367 21.6453 25.3514 22.1156 25.2733C22.3595 25.2329 22.602 25.2123 22.836 25.2123C23.2392 25.2123 23.5583 25.2636 23.8434 25.319C24.0294 25.3555 24.1739 25.3731 24.2848 25.3731L24.2957 25.3733H24.3069C24.5516 25.3733 24.7313 25.2394 24.8 25.0051C24.8455 24.8508 24.8781 24.7059 24.9102 24.5592C24.9381 24.432 24.9828 24.2281 25.0244 24.1484C25.8483 24.0194 26.4798 23.8552 26.9022 23.6596C27.2471 23.5001 27.4595 23.3186 27.5517 23.1056C27.5794 23.0418 27.5955 22.9756 27.5992 22.9082C27.6122 22.6796 27.45 22.4778 27.223 22.4407C24.6563 22.0188 23.4999 19.3891 23.4521 19.2774C23.449 19.2701 23.4455 19.2628 23.4419 19.2557C23.3107 18.9901 23.2804 18.7706 23.3516 18.6034C23.4916 18.2744 24.0293 18.1042 24.3851 17.9915C24.4881 17.9592 24.5851 17.9284 24.666 17.8966C25.0163 17.7587 25.2666 17.609 25.4317 17.4391C25.629 17.2365 25.6674 17.0424 25.665 16.9154C25.659 16.6081 25.4234 16.3351 25.0486 16.2013C24.922 16.1492 24.7777 16.1216 24.6307 16.1216C24.5306 16.1216 24.3824 16.1353 24.2422 16.2006C23.9419 16.3407 23.6729 16.4173 23.442 16.4282C23.3192 16.422 23.233 16.3955 23.1773 16.3701C23.1843 16.2503 23.192 16.1271 23.2 15.9987L23.2034 15.9438C23.2856 14.6444 23.3878 13.0273 22.9586 12.0673C22.6644 11.4098 22.2693 10.8443 21.7841 10.3858C21.3772 10.0016 20.9045 9.69017 20.3788 9.45996C19.4641 9.05978 18.6113 9 18.1845 9Z" fill="#FFE400"/>
</svg>
