<svg width="36" height="36" viewBox="0 0 36 36" fill="none" xmlns="http://www.w3.org/2000/svg">
<circle cx="18" cy="18" r="18" fill="#2B2E31"/>
<g clip-path="url(#clip0_4009_20254)">
<path d="M26.9073 22.5022L23.9359 25.6412C23.8713 25.7094 23.7931 25.7637 23.7063 25.8009C23.6194 25.838 23.5257 25.8572 23.4311 25.8571H9.34496C9.27775 25.8571 9.212 25.8378 9.1558 25.8015C9.09959 25.7652 9.05538 25.7135 9.02859 25.6528C9.0018 25.5921 8.9936 25.525 9.005 25.4597C9.0164 25.3945 9.04689 25.3339 9.09275 25.2855L12.0664 22.1466C12.1309 22.0786 12.2088 22.0243 12.2953 21.9872C12.3819 21.95 12.4753 21.9308 12.5697 21.9306H26.655C26.7223 21.9306 26.788 21.95 26.8442 21.9863C26.9004 22.0226 26.9446 22.0743 26.9715 22.135C26.9982 22.1957 27.0064 22.2628 26.995 22.328C26.9836 22.3933 26.9531 22.4538 26.9073 22.5022ZM23.9359 16.1813C23.8713 16.1131 23.7931 16.0587 23.7063 16.0216C23.6194 15.9844 23.5257 15.9653 23.4311 15.9653H9.34496C9.27775 15.9653 9.212 15.9846 9.1558 16.021C9.09959 16.0573 9.05538 16.1089 9.02859 16.1697C9.0018 16.2304 8.9936 16.2975 9.005 16.3627C9.0164 16.428 9.04689 16.4885 9.09275 16.5369L12.0664 19.6759C12.1309 19.7439 12.2088 19.7981 12.2953 19.8353C12.3819 19.8724 12.4753 19.8917 12.5697 19.8918H26.655C26.7223 19.8918 26.788 19.8725 26.8442 19.8362C26.9004 19.7999 26.9446 19.7482 26.9715 19.6875C26.9982 19.6268 27.0064 19.5597 26.995 19.4944C26.9836 19.4292 26.9531 19.3686 26.9073 19.3202L23.9359 16.1813ZM9.34496 13.9265H23.4311C23.5257 13.9266 23.6194 13.9074 23.7063 13.8703C23.7931 13.8331 23.8713 13.7788 23.9359 13.7106L26.9073 10.5716C26.9531 10.5232 26.9836 10.4627 26.995 10.3974C27.0064 10.3322 26.9982 10.2651 26.9715 10.2044C26.9446 10.1436 26.9004 10.092 26.8442 10.0556C26.788 10.0193 26.7223 10 26.655 10H12.5697C12.4753 10.0002 12.3819 10.0194 12.2953 10.0566C12.2088 10.0937 12.1309 10.148 12.0664 10.216L9.09352 13.3549C9.04771 13.4033 9.01722 13.4638 9.0058 13.5289C8.99437 13.5941 9.00251 13.6611 9.0292 13.7218C9.0559 13.7825 9.09999 13.8342 9.15608 13.8706C9.21217 13.9069 9.27782 13.9264 9.34496 13.9265Z" fill="url(#paint0_linear_4009_20254)"/>
</g>
<defs>
<linearGradient id="paint0_linear_4009_20254" x1="10.5194" y1="26.2351" x2="25.0416" y2="9.61501" gradientUnits="userSpaceOnUse">
<stop offset="0.08" stop-color="#9945FF"/>
<stop offset="0.3" stop-color="#8752F3"/>
<stop offset="0.5" stop-color="#5497D5"/>
<stop offset="0.6" stop-color="#43B4CA"/>
<stop offset="0.72" stop-color="#28E0B9"/>
<stop offset="0.97" stop-color="#19FB9B"/>
</linearGradient>
<clipPath id="clip0_4009_20254">
<rect width="18" height="15.8571" fill="white" transform="translate(9 10)"/>
</clipPath>
</defs>
</svg>
