<svg width="19" height="21" viewBox="0 0 19 21" fill="none" xmlns="http://www.w3.org/2000/svg">
<g clip-path="url(#clip0_1416_55952)">
<path d="M6.78918 0.659374C3.69479 0.897158 1.06421 1.11584 0.940528 1.14145C0.59375 1.20567 0.278284 1.44995 0.129944 1.77147L0 2.05437L0.0125247 8.79687L0.0309204 15.5394L0.228968 15.9572C0.340516 16.1885 1.09552 17.2685 1.91863 18.3802C3.54645 20.5719 3.66387 20.6942 4.28267 20.7584C4.46232 20.7775 5.81147 20.7133 7.27217 20.6235C8.73912 20.5271 11.0906 20.3792 12.502 20.2959C18.5299 19.9158 18.2203 19.9479 18.5667 19.6394C19 19.2667 18.9691 19.8772 18.9875 11.6824C19 4.73422 18.9937 4.27816 18.8947 4.06599C18.7773 3.8282 18.5667 3.66114 15.8187 1.65563C13.9807 0.318753 13.8508 0.248028 13.0273 0.235021C12.6872 0.22242 9.87731 0.415086 6.78918 0.659374ZM13.7455 1.53978C14.0054 1.66172 15.9056 3.03721 16.1839 3.30101C16.2583 3.37824 16.2829 3.44246 16.2457 3.48108C16.1592 3.55831 4.3997 4.28467 4.05958 4.23304C3.90497 4.20744 3.67601 4.1111 3.54606 4.02087C3.0075 3.64163 1.67088 2.50393 1.67088 2.4206C1.67088 2.20192 1.62743 2.20192 6.86981 1.81009C7.87257 1.73936 9.51879 1.61092 10.5215 1.52718C12.6934 1.34712 13.3435 1.35362 13.7455 1.53978ZM17.4837 5.05574C17.5702 5.14557 17.6446 5.31913 17.6692 5.48619C17.6876 5.64064 17.7002 8.52007 17.6876 11.8751C17.6692 17.6339 17.663 17.994 17.5577 18.1611C17.4959 18.2639 17.3722 18.3733 17.279 18.4054C17.0195 18.5147 4.69716 19.2411 4.44354 19.1638C4.32612 19.1317 4.16486 19.0289 4.07836 18.9391L3.92963 18.772L3.91124 12.5632C3.89871 8.20546 3.91124 6.27717 3.96094 6.10361C3.99813 5.97517 4.09089 5.82071 4.17151 5.76949C4.28306 5.69227 5.01341 5.62804 7.52618 5.47399C9.29021 5.37115 12.0194 5.19759 13.5854 5.10126C17.3103 4.86307 17.2982 4.86307 17.4837 5.05574Z" fill="white"/>
<path d="M14.1725 7.18397C13.504 7.22909 12.9098 7.29331 12.8417 7.33193C12.6374 7.44127 12.5137 7.62133 12.4891 7.82701C12.4707 8.03918 12.5325 8.06479 13.2006 8.14852L13.4914 8.18714V10.9316C13.4914 12.564 13.4668 13.644 13.4359 13.6119C13.4049 13.5733 12.5263 12.1852 11.48 10.5268C10.4342 8.86228 9.56768 7.49289 9.55516 7.48029C9.54263 7.46728 8.86199 7.5059 8.04514 7.56402C7.04238 7.63475 6.49169 7.69897 6.38014 7.76319C6.20049 7.85952 6.00244 8.20015 6.00244 8.42533C6.00244 8.56028 6.23767 8.631 6.73279 8.631H6.99268V16.5238L6.57192 16.6588C6.24393 16.7616 6.13239 16.8258 6.07681 16.9543C5.97778 17.1729 5.98405 17.3721 6.08307 17.3721C6.12025 17.3721 6.81968 17.327 7.624 17.2758C9.21464 17.1794 9.3939 17.1343 9.56103 16.7937C9.61073 16.6909 9.65379 16.5815 9.65379 16.5494C9.65379 16.5238 9.43735 16.4466 9.17707 16.3824C8.91092 16.3181 8.64477 16.2539 8.58919 16.2409C8.4839 16.2088 8.47764 16.0096 8.47764 13.2456V10.2825L10.3591 13.3485C12.3333 16.562 12.5811 16.9286 12.8844 17.0892C13.2621 17.2949 14.2214 17.1534 14.704 16.8258L14.8527 16.7295L14.8652 12.3461L14.8836 7.95626L15.2116 7.89204C15.6015 7.81481 15.7811 7.62865 15.7811 7.30713C15.7811 7.10146 15.7686 7.08845 15.5831 7.09496C15.4723 7.10024 14.8347 7.13886 14.1725 7.18397Z" fill="white"/>
</g>
<defs>
<clipPath id="clip0_1416_55952">
<rect width="19" height="21" fill="white"/>
</clipPath>
</defs>
</svg>
