<svg width="22" height="22" viewBox="0 0 22 22" fill="none" xmlns="http://www.w3.org/2000/svg">
<circle cx="11" cy="11" r="11" fill="white"/>
<g clip-path="url(#clip0_2877_82637)">
<path fill-rule="evenodd" clip-rule="evenodd" d="M6.6233 6.49144C7.0565 6.84339 7.21901 6.81654 8.0325 6.76226L15.7016 6.30177C15.8642 6.30177 15.729 6.1395 15.6747 6.11254L14.401 5.19178C14.157 5.0023 13.8319 4.78532 13.2087 4.8396L5.78274 5.38123C5.51191 5.40808 5.45782 5.54349 5.56567 5.65202L6.6233 6.49144ZM7.08374 8.27871V16.3479C7.08374 16.7816 7.30045 16.9438 7.7882 16.917L16.2165 16.4293C16.7045 16.4024 16.7589 16.1042 16.7589 15.7519V7.73684C16.7589 7.38513 16.6236 7.19546 16.3248 7.22253L7.51718 7.73684C7.19213 7.76416 7.08371 7.92675 7.08371 8.27871H7.08374ZM15.4041 8.71156C15.4582 8.9555 15.4041 9.19923 15.1597 9.22666L14.7536 9.30757V15.2648C14.401 15.4543 14.0759 15.5626 13.805 15.5626C13.3712 15.5626 13.2626 15.4271 12.9376 15.0212L10.2813 10.8511V14.8857L11.1219 15.0754C11.1219 15.0754 11.1219 15.5626 10.4437 15.5626L8.57421 15.671C8.5199 15.5626 8.57421 15.292 8.76385 15.2378L9.25171 15.1026V9.76803L8.57435 9.71375C8.52001 9.46981 8.65532 9.11807 9.035 9.09078L11.0406 8.95558L13.805 13.1799V9.44295L13.1002 9.36207C13.0461 9.06384 13.2626 8.8473 13.5336 8.82044L15.4041 8.71156ZM5.15924 4.65015L12.8834 4.08132C13.832 3.99997 14.076 4.05447 14.6722 4.48753L17.1379 6.22053C17.5447 6.51853 17.6803 6.59967 17.6803 6.92453V16.4293C17.6803 17.025 17.4633 17.3772 16.7046 17.4311L7.73452 17.9728C7.16501 18 6.89396 17.9188 6.59571 17.5395L4.77996 15.1836C4.45464 14.75 4.31934 14.4256 4.31934 14.046V5.59755C4.31934 5.11043 4.5364 4.70408 5.15924 4.65015V4.65015Z" fill="black"/>
</g>
<defs>
<clipPath id="clip0_2877_82637">
<rect width="14" height="14" fill="white" transform="translate(4 4)"/>
</clipPath>
</defs>
</svg>
