<svg width="20" height="18" viewBox="0 0 20 18" fill="none" xmlns="http://www.w3.org/2000/svg">
<path d="M10.1845 0H10.1837C10.1671 0 10.1515 0 10.1367 0.00019848C10.0185 0.00138918 9.82411 0.00327444 9.80665 0.00347292C9.38042 0.00347292 8.52763 0.0635048 7.61159 0.466661C7.08784 0.697015 6.61673 1.00849 6.2114 1.39244C5.72816 1.84993 5.33447 2.41398 5.0415 3.06917C4.61244 4.02849 4.71429 5.64434 4.79609 6.94287L4.79639 6.9449C4.80515 7.08396 4.81436 7.22918 4.82276 7.37068C4.75982 7.3995 4.65777 7.42992 4.50735 7.42992C4.26533 7.42992 3.97753 7.35277 3.65216 7.20075C3.55643 7.1563 3.44716 7.13383 3.3266 7.13383C3.13289 7.13383 2.92869 7.19068 2.75155 7.29452C2.52868 7.42501 2.38468 7.60942 2.34557 7.81387C2.3198 7.94912 2.32104 8.21643 2.61884 8.48752C2.78265 8.63676 3.02328 8.77438 3.33386 8.89678C3.41537 8.92878 3.5121 8.95934 3.61455 8.99174C3.97007 9.10441 4.50815 9.27463 4.64846 9.60392C4.71957 9.77086 4.68897 9.99055 4.55775 10.2561C4.55432 10.2633 4.55089 10.2704 4.54775 10.2779C4.51496 10.3542 4.20905 11.0451 3.58156 11.7738C3.22499 12.1882 2.83226 12.5345 2.41489 12.8034C1.90547 13.1317 1.35425 13.3463 0.776713 13.4411C0.549917 13.4783 0.387955 13.6797 0.400594 13.9087C0.404475 13.9747 0.419999 14.0405 0.446918 14.1041C0.447117 14.1045 0.447366 14.1049 0.447565 14.1053C0.539269 14.3192 0.751884 14.5008 1.09755 14.6611C1.51994 14.8567 2.15167 15.0213 2.97501 15.15C3.01661 15.2289 3.0598 15.4272 3.0897 15.5629C3.121 15.7072 3.15364 15.8555 3.20016 16.0131C3.25037 16.1838 3.38059 16.3878 3.71511 16.3878C3.84189 16.3878 3.98768 16.3593 4.15651 16.3267C4.40375 16.2783 4.74186 16.2123 5.16385 16.2123C5.39781 16.2123 5.64028 16.2329 5.88435 16.2733C6.35481 16.3514 6.76038 16.6371 7.22965 16.9679C7.9165 17.452 8.69397 18 9.88183 18C9.91423 18 9.94672 17.999 9.97881 17.9967C10.0181 17.9986 10.0667 18 10.1181 18C11.3063 18 12.0836 17.4518 12.7697 16.9681L12.7708 16.9671C13.2401 16.6367 13.6453 16.3514 14.1156 16.2733C14.3595 16.2329 14.602 16.2123 14.836 16.2123C15.2392 16.2123 15.5583 16.2636 15.8434 16.319C16.0294 16.3555 16.1739 16.3731 16.2848 16.3731L16.2957 16.3733H16.3069C16.5516 16.3733 16.7313 16.2394 16.8 16.0051C16.8455 15.8508 16.8781 15.7059 16.9102 15.5592C16.9381 15.432 16.9828 15.2281 17.0244 15.1484C17.8483 15.0194 18.4798 14.8552 18.9022 14.6596C19.2471 14.5001 19.4595 14.3186 19.5517 14.1056C19.5794 14.0418 19.5955 13.9756 19.5992 13.9082C19.6122 13.6796 19.45 13.4778 19.223 13.4407C16.6563 13.0188 15.4999 10.3891 15.4521 10.2774C15.449 10.2701 15.4455 10.2628 15.4419 10.2557C15.3107 9.99006 15.2804 9.77062 15.3516 9.60337C15.4916 9.27439 16.0293 9.10416 16.3851 8.99154C16.4881 8.95919 16.5851 8.92843 16.666 8.89658C17.0162 8.75866 17.2666 8.60902 17.4317 8.4391C17.629 8.23653 17.6674 8.04244 17.665 7.91543C17.659 7.60813 17.4234 7.33506 17.0486 7.20135C16.922 7.14916 16.7777 7.12162 16.6307 7.12162C16.5306 7.12162 16.3824 7.13531 16.2422 7.20061C15.9419 7.34071 15.6729 7.41732 15.442 7.42823C15.3192 7.42203 15.233 7.39549 15.1773 7.37013C15.1843 7.25027 15.192 7.12713 15.2 6.99873L15.2034 6.94376C15.2856 5.64439 15.3878 4.0273 14.9586 3.06728C14.6644 2.40976 14.2693 1.84427 13.7841 1.38579C13.3772 1.00159 12.9045 0.690169 12.3788 0.459964C11.4641 0.0597839 10.6113 0 10.1845 0" fill="#FFE400"/>
</svg>
