<svg width="19" height="19" viewBox="0 0 19 19" fill="none" xmlns="http://www.w3.org/2000/svg">
<g clip-path="url(#clip0_1416_55948)">
<path fill-rule="evenodd" clip-rule="evenodd" d="M2.375 0C1.06281 0 0 1.064 0 2.375V16.625C0 17.9372 1.064 19 2.375 19H16.625C17.9372 19 19 17.936 19 16.625V2.375C19 1.06281 17.936 0 16.625 0H2.375ZM11.875 2.47C11.2456 2.47 10.735 2.98062 10.735 3.61V9.6425C10.735 10.2719 11.2456 10.7825 11.875 10.7825H15.39C16.0194 10.7825 16.53 10.2719 16.53 9.6425V3.61C16.53 2.98062 16.0194 2.47 15.39 2.47H11.875ZM3.61 2.47C2.98062 2.47 2.47 2.98062 2.47 3.61V14.3925C2.47 15.0219 2.98062 15.5325 3.61 15.5325H7.125C7.75437 15.5325 8.265 15.0219 8.265 14.3925V3.61C8.265 2.98062 7.75437 2.47 7.125 2.47H3.61Z" fill="#0079BF"/>
</g>
<defs>
<clipPath id="clip0_1416_55948">
<rect width="19" height="19" fill="white"/>
</clipPath>
</defs>
</svg>
