<svg width="30" height="36" viewBox="0 0 30 36" fill="none" xmlns="http://www.w3.org/2000/svg">
<g opacity="0.3">
<path opacity="0.3" d="M20.9495 7.38811C20.1294 7.38731 19.3432 7.06119 18.7634 6.48134C18.1835 5.90149 17.8574 5.11527 17.8566 4.29524V0.000976841H4.0378C3.50762 0.000779821 2.98259 0.105018 2.49271 0.307773C2.00283 0.510528 1.55771 0.807819 1.18275 1.18264C0.807783 1.55747 0.510337 2.00249 0.3074 2.4923C0.104464 2.9821 -3.66072e-08 3.50708 0 4.03726V28.369C-3.66072e-08 28.8992 0.104464 29.4242 0.3074 29.914C0.510337 30.4038 0.807783 30.8489 1.18275 31.2237C1.55771 31.5985 2.00283 31.8958 2.49271 32.0985C2.98259 32.3013 3.50762 32.4056 4.0378 32.4054H20.627C21.157 32.4054 21.6819 32.301 22.1716 32.0981C22.6613 31.8953 23.1063 31.5979 23.4811 31.2231C23.8559 30.8483 24.1532 30.4034 24.356 29.9137C24.5589 29.424 24.6633 28.8991 24.6633 28.369V7.38811H20.9495Z" fill="#B2FFC3"/>
</g>
<path d="M24.6631 7.38811H20.9493C20.1293 7.38731 19.343 7.06119 18.7632 6.48134C18.1833 5.90149 17.8572 5.11527 17.8564 4.29524V0.000976562L24.6631 7.38811Z" fill="#B2FFC3"/>
<path d="M19.5892 12.56H4.10394C3.95516 12.56 3.81248 12.5009 3.70728 12.3957C3.60208 12.2905 3.54297 12.1478 3.54297 11.999C3.54277 11.9252 3.55714 11.8521 3.58525 11.7839C3.61335 11.7156 3.65464 11.6536 3.70675 11.6013C3.75886 11.5491 3.82077 11.5077 3.88893 11.4794C3.95709 11.4511 4.03015 11.4365 4.10394 11.4365H19.5892C19.7384 11.4365 19.8814 11.4958 19.9869 11.6013C20.0924 11.7068 20.1517 11.8498 20.1517 11.999C20.1513 12.1479 20.0918 12.2906 19.9864 12.3958C19.8809 12.5009 19.7381 12.56 19.5892 12.56Z" fill="#B2FFC3"/>
<path d="M19.5892 15.9154H4.10394C3.95516 15.9154 3.81248 15.8563 3.70728 15.7511C3.60208 15.6459 3.54297 15.5032 3.54297 15.3545C3.54277 15.2807 3.55714 15.2076 3.58525 15.1393C3.61335 15.0711 3.65464 15.0091 3.70675 14.9568C3.75886 14.9046 3.82077 14.8631 3.88893 14.8348C3.95709 14.8066 4.03015 14.792 4.10394 14.792H19.5892C19.7384 14.792 19.8814 14.8512 19.9869 14.9567C20.0924 15.0622 20.1517 15.2053 20.1517 15.3545C20.1513 15.5034 20.0918 15.646 19.9864 15.7512C19.8809 15.8564 19.7381 15.9154 19.5892 15.9154Z" fill="#B2FFC3"/>
<path d="M19.5892 19.2709H4.10394C4.03015 19.2709 3.95709 19.2563 3.88893 19.2281C3.82077 19.1998 3.75886 19.1583 3.70675 19.1061C3.65464 19.0538 3.61335 18.9918 3.58525 18.9236C3.55714 18.8553 3.54277 18.7822 3.54297 18.7084C3.54297 18.5597 3.60208 18.417 3.70728 18.3118C3.81248 18.2066 3.95516 18.1475 4.10394 18.1475H19.5892C19.7381 18.1475 19.8809 18.2065 19.9864 18.3117C20.0918 18.4168 20.1513 18.5595 20.1517 18.7084C20.1517 18.8576 20.0924 19.0007 19.9869 19.1062C19.8814 19.2116 19.7384 19.2709 19.5892 19.2709Z" fill="#B2FFC3"/>
<path d="M13.4815 22.6254H4.10394C4.03015 22.6254 3.95709 22.6108 3.88893 22.5826C3.82077 22.5543 3.75886 22.5128 3.70675 22.4605C3.65464 22.4083 3.61335 22.3463 3.58525 22.2781C3.55714 22.2098 3.54277 22.1367 3.54297 22.0629C3.54297 21.9141 3.60208 21.7714 3.70728 21.6662C3.81248 21.561 3.95516 21.502 4.10394 21.502H13.4815C13.6303 21.502 13.773 21.561 13.8782 21.6662C13.9834 21.7714 14.0424 21.9141 14.0424 22.0629C14.0426 22.1367 14.0283 22.2098 14.0002 22.2781C13.9721 22.3463 13.9308 22.4083 13.8787 22.4605C13.8266 22.5128 13.7647 22.5543 13.6965 22.5826C13.6283 22.6108 13.5553 22.6254 13.4815 22.6254Z" fill="#B2FFC3"/>
<path d="M27.5907 25.5908H8.83563C7.50524 25.5908 6.42676 26.6693 6.42676 27.9997V33.5914C6.42676 34.9218 7.50524 36.0003 8.83563 36.0003H27.5907C28.9211 36.0003 29.9996 34.9218 29.9996 33.5914V27.9997C29.9996 26.6693 28.9211 25.5908 27.5907 25.5908Z" fill="#B2FFC3"/>
<path d="M11.4322 32.0059V33.0963H10.3027V32.0059H11.4322Z" fill="#2B2E31"/>
<path d="M15.7728 32.0096C15.585 32.3506 15.3014 32.6291 14.9569 32.8105C14.5692 33.0088 14.1382 33.1072 13.7029 33.097H11.999V28.5868H13.7029C14.1386 28.576 14.5702 28.6723 14.9599 28.8672C15.303 29.0453 15.5858 29.3209 15.7728 29.6592C15.9668 30.0192 16.0644 30.4233 16.0563 30.8321C16.064 31.2424 15.9664 31.6478 15.7728 32.0096ZM14.5999 31.7831C14.7218 31.6579 14.8163 31.5087 14.8772 31.345C14.9382 31.1812 14.9643 31.0065 14.9539 30.8321C14.9644 30.6579 14.9383 30.4835 14.8773 30.3199C14.8164 30.1564 14.7219 30.0075 14.5999 29.8827C14.3266 29.6431 13.9697 29.5212 13.607 29.5437H13.0925V32.1205H13.6084C13.9704 32.1424 14.3264 32.0212 14.5999 31.7831Z" fill="#2B2E31"/>
<path d="M19.9771 28.8128C20.3203 29.0077 20.6039 29.2924 20.7975 29.6362C21.0005 29.9994 21.1039 30.4097 21.0975 30.8257C21.1044 31.2426 21.0009 31.654 20.7975 32.0181C20.6033 32.3633 20.3186 32.649 19.9741 32.8446C19.6234 33.0448 19.2259 33.1483 18.8221 33.1445C18.4184 33.1481 18.0209 33.0446 17.6702 32.8446C17.3258 32.6494 17.0415 32.3636 16.8482 32.0181C16.6442 31.6543 16.5407 31.2427 16.5483 30.8257C16.5405 30.4095 16.644 29.9989 16.8482 29.6362C17.0425 29.2923 17.3266 29.0076 17.6702 28.8128C18.0209 28.6127 18.4184 28.5092 18.8221 28.5128C19.2269 28.509 19.6254 28.6125 19.9771 28.8128ZM17.9672 29.8777C17.7459 30.1424 17.6333 30.4812 17.6522 30.8257C17.6333 31.1688 17.7459 31.5062 17.9672 31.7691C18.075 31.8863 18.2071 31.9784 18.3543 32.039C18.5014 32.0996 18.6601 32.1273 18.8191 32.1201C18.9777 32.1269 19.1358 32.099 19.2824 32.0384C19.429 31.9778 19.5606 31.8859 19.6681 31.7691C19.8904 31.5066 20.0042 31.1692 19.9861 30.8257C20.0041 30.4827 19.8915 30.1456 19.6711 29.8822C19.5634 29.765 19.4313 29.6728 19.2841 29.6122C19.1369 29.5515 18.9782 29.5239 18.8191 29.5312C18.6605 29.5239 18.5022 29.5512 18.3551 29.611C18.208 29.6708 18.0757 29.7618 17.9672 29.8777Z" fill="#2B2E31"/>
<path d="M25.196 28.9948C25.5764 29.3043 25.8352 29.7383 25.9265 30.2202H24.7715C24.6936 30.0205 24.5572 29.849 24.3801 29.7282C24.1934 29.6067 23.9743 29.5444 23.7516 29.5497C23.6046 29.545 23.4584 29.5742 23.3244 29.6351C23.1905 29.6959 23.0723 29.7868 22.9791 29.9007C22.7703 30.1679 22.6639 30.5009 22.6792 30.8397C22.6639 31.177 22.7704 31.5087 22.9791 31.7741C23.0731 31.8868 23.1915 31.9766 23.3253 32.0366C23.4592 32.0967 23.605 32.1254 23.7516 32.1206C23.9744 32.1265 24.1937 32.0642 24.3801 31.9421C24.5562 31.8235 24.6926 31.6547 24.7715 31.4576H25.9265C25.8337 31.9381 25.5751 32.3707 25.196 32.6801C24.788 32.9916 24.284 33.1507 23.7711 33.1301C23.367 33.1386 22.968 33.038 22.6162 32.839C22.2869 32.6476 22.0197 32.3654 21.8467 32.0261C21.6608 31.6539 21.5681 31.2421 21.5767 30.8262C21.5682 30.4102 21.6609 29.9984 21.8467 29.6262C22.0197 29.2869 22.2869 29.0047 22.6162 28.8133C22.968 28.6143 23.367 28.5137 23.7711 28.5223C24.2867 28.5086 24.7907 28.6758 25.196 28.9948Z" fill="#2B2E31"/>
</svg>
