<svg width="30" height="36" viewBox="0 0 30 36" fill="none" xmlns="http://www.w3.org/2000/svg">
<g opacity="0.3">
<path opacity="0.3" d="M20.9505 7.38698C20.1304 7.38618 19.3442 7.06006 18.7643 6.48018C18.1844 5.9003 17.8583 5.11405 17.8575 4.29398V0.000976562H4.03649C2.9662 0.000976489 1.93974 0.426046 1.18279 1.18271C0.425841 1.93938 0.000397728 2.96569 0 4.03598V28.369C0.00119261 29.4387 0.426989 30.4643 1.18385 31.2203C1.94071 31.9763 2.96672 32.401 4.03649 32.401H20.6265C21.1567 32.4012 21.6818 32.2969 22.1717 32.0941C22.6616 31.8914 23.1067 31.5941 23.4817 31.2192C23.8567 30.8444 24.1541 30.3994 24.3571 29.9095C24.56 29.4197 24.6645 28.8947 24.6645 28.3645V7.38698H20.9505Z" fill="#DDC3F5"/>
</g>
<path d="M24.6644 7.38698H20.9504C20.1303 7.38618 19.3441 7.06006 18.7642 6.48018C18.1843 5.9003 17.8582 5.11405 17.8574 4.29398V0.000976562L24.6644 7.38698Z" fill="#DDC3F5"/>
<path d="M27.5908 25.5908H8.83475C7.5043 25.5908 6.42578 26.6693 6.42578 27.9998V33.5918C6.42578 34.9223 7.5043 36.0008 8.83475 36.0008H27.5908C28.9212 36.0008 29.9998 34.9223 29.9998 33.5918V27.9998C29.9998 26.6693 28.9212 25.5908 27.5908 25.5908Z" fill="#DDC3F5"/>
<path d="M10.1998 32.0068V33.0973H9.07031V32.0068H10.1998Z" fill="#2B2E31"/>
<path d="M14.6729 28.5869V33.0974H13.5749V31.2149H11.8649V33.0974H10.7744V28.5869H11.8649V30.3344H13.5749V28.5869H14.6729Z" fill="#2B2E31"/>
<path d="M18.6657 28.5869V29.4539H17.4417V33.0974H16.3497V29.4539H15.1377V28.5869H18.6657Z" fill="#2B2E31"/>
<path d="M24.1982 28.6182V33.0972H23.1001V30.3012L22.1312 33.1017H21.1861L20.2111 30.2952V33.1017H19.1191V28.6227H20.4527L21.6721 31.7427L22.8646 28.6227L24.1982 28.6182Z" fill="#2B2E31"/>
<path d="M26.0413 32.2619H27.4963V33.0974H24.9463V28.5869H26.0383L26.0413 32.2619Z" fill="#2B2E31"/>
<path d="M6.24619 17.1297C6.24454 17.065 6.26463 17.0016 6.30321 16.9497C6.34871 16.8912 6.40344 16.8406 6.46522 16.7997C6.55866 16.751 6.65539 16.7089 6.75471 16.6737L7.0442 16.5537L8.20219 16.0662C8.36319 15.9912 8.66319 15.8662 9.10219 15.6912L9.65272 15.4662L9.85069 15.3957L9.88519 15.3807C9.89457 15.3786 9.90434 15.3786 9.91372 15.3807C9.93588 15.3708 9.95991 15.3656 9.98421 15.3657C10.0307 15.3633 10.0771 15.3702 10.1209 15.3859C10.1647 15.4016 10.2049 15.4258 10.2392 15.4572C10.2678 15.4849 10.2907 15.5179 10.3064 15.5545C10.3221 15.5911 10.3304 15.6304 10.3307 15.6702V16.0512C10.3294 16.1221 10.3069 16.1911 10.2662 16.2492C10.2254 16.3147 10.1635 16.3645 10.0907 16.3902L7.7252 17.3577L10.0907 18.3252C10.1609 18.3539 10.2217 18.4017 10.2662 18.4632C10.3085 18.5188 10.3312 18.5869 10.3307 18.6567V19.0377C10.3298 19.1189 10.2969 19.1965 10.2392 19.2537C10.2055 19.2861 10.1654 19.3113 10.1215 19.3275C10.0777 19.3438 10.0309 19.3508 9.98421 19.3482C9.96008 19.3481 9.93619 19.3435 9.91372 19.3347L9.85069 19.3137L9.65272 19.2432L9.10219 19.0167L8.20219 18.6432L7.0442 18.1557L6.75471 18.0357C6.66021 17.9982 6.56422 17.9562 6.46522 17.9082C6.4036 17.8796 6.35077 17.8351 6.31225 17.7791C6.27373 17.7232 6.2509 17.658 6.24619 17.5902V17.1297Z" fill="#DDC3F5"/>
<path d="M10.983 19.7562C10.8895 19.7595 10.7981 19.728 10.7265 19.6677C10.6947 19.643 10.6688 19.6115 10.6509 19.5753C10.633 19.5392 10.6234 19.4995 10.623 19.4592C10.623 19.4022 10.7925 19.0092 11.1315 18.2592L11.6265 17.1717L11.7315 16.9452L12.5295 15.1737L12.8115 14.5602L12.8685 14.4192C12.8904 14.3672 12.9165 14.317 12.9465 14.2692C12.9861 14.2043 13.0423 14.151 13.1092 14.1149C13.1762 14.0788 13.2515 14.0611 13.3276 14.0637H13.68C13.774 14.0605 13.8658 14.092 13.938 14.1522C13.9696 14.1771 13.9952 14.2087 14.0129 14.2448C14.0305 14.2809 14.0398 14.3205 14.0401 14.3607C13.92 14.7105 13.7787 15.0526 13.617 15.3852L13.539 15.5547L12.939 16.8672L12.141 18.6387L11.859 19.2537L11.802 19.3947C11.7819 19.4511 11.7562 19.5053 11.7255 19.5567C11.683 19.6206 11.6252 19.6729 11.5574 19.7088C11.4895 19.7447 11.4138 19.7631 11.337 19.7622L10.983 19.7562Z" fill="#DDC3F5"/>
<path d="M14.6894 19.3513C14.6417 19.3543 14.594 19.3475 14.5491 19.3312C14.5042 19.315 14.4631 19.2896 14.4284 19.2568C14.3994 19.2288 14.3764 19.1953 14.3607 19.1581C14.345 19.121 14.3369 19.0811 14.3369 19.0408V18.6598C14.3362 18.5906 14.3572 18.523 14.3969 18.4663C14.4418 18.4034 14.5045 18.3553 14.5769 18.3283L16.9484 17.3608L14.5769 16.3933C14.5047 16.3614 14.4432 16.3093 14.3999 16.2433C14.3601 16.186 14.3382 16.1181 14.3369 16.0483V15.6613C14.337 15.6212 14.3454 15.5815 14.3616 15.5448C14.3779 15.5082 14.4017 15.4753 14.4314 15.4483C14.5022 15.3853 14.5948 15.3525 14.6894 15.3568C14.7118 15.3563 14.7341 15.3614 14.7539 15.3718C14.7668 15.3696 14.78 15.3696 14.7929 15.3718L14.8244 15.3868C14.8139 15.3868 14.8784 15.4048 15.0149 15.4573L15.5729 15.6823C15.5439 15.6693 15.8439 15.7943 16.4729 16.0573C16.8159 16.1983 17.2089 16.3653 17.6519 16.5583C17.6804 16.5673 17.7179 16.5823 17.7659 16.6003L17.9279 16.6648C18.0229 16.6987 18.1148 16.7409 18.2024 16.7908C18.2656 16.8193 18.3196 16.8648 18.3583 16.9224C18.397 16.9799 18.4189 17.0471 18.4214 17.1163V17.5813C18.4208 17.6452 18.3997 17.7072 18.3614 17.7583C18.3199 17.8169 18.2655 17.8651 18.2024 17.8993C18.1184 17.9413 18.0164 17.9863 17.9024 18.0343L17.6024 18.1543L14.9894 19.2478C14.9144 19.2853 14.8694 19.3093 14.8559 19.3183L14.8274 19.3393L14.6894 19.3513Z" fill="#DDC3F5"/>
</svg>
