<svg width="30" height="36" viewBox="0 0 30 36" fill="none" xmlns="http://www.w3.org/2000/svg">
<g opacity="0.3">
<path opacity="0.3" d="M20.9505 7.3875C20.1304 7.38671 19.3442 7.06057 18.7643 6.48069C18.1844 5.90081 17.8583 5.11456 17.8575 4.29448V0H4.0365C2.96595 0 1.93926 0.425285 1.18227 1.18228C0.425276 1.93927 0 2.96594 0 4.03649V28.3695C0.00158976 29.439 0.427563 30.4642 1.18438 31.2199C1.9412 31.9756 2.96699 32.4 4.0365 32.4H20.628C21.6975 32.4 22.7233 31.9756 23.4801 31.2199C24.2369 30.4642 24.6629 29.439 24.6645 28.3695V7.3875H20.9505Z" fill="#FDC087"/>
</g>
<path d="M24.6644 7.3875H20.9504C20.1304 7.38671 19.3441 7.06057 18.7642 6.48069C18.1843 5.90081 17.8582 5.11456 17.8574 4.29448V0L24.6644 7.3875Z" fill="#FDC087"/>
<path d="M19.5895 22.6255H4.10352C3.95433 22.6255 3.81125 22.5662 3.70576 22.4607C3.60028 22.3552 3.54102 22.2121 3.54102 22.063C3.54141 21.914 3.60085 21.7713 3.7063 21.6662C3.81174 21.561 3.95459 21.502 4.10352 21.502H19.5895C19.7383 21.502 19.881 21.561 19.9862 21.6662C20.0914 21.7714 20.1505 21.9142 20.1505 22.063C20.1507 22.1367 20.1364 22.2099 20.1083 22.2781C20.0801 22.3463 20.0389 22.4083 19.9867 22.4606C19.9346 22.5128 19.8727 22.5543 19.8046 22.5826C19.7364 22.6109 19.6633 22.6255 19.5895 22.6255Z" fill="#FDC087"/>
<path d="M19.5895 16.2895H4.10352C3.95459 16.2895 3.81174 16.2304 3.7063 16.1253C3.60085 16.0201 3.54141 15.8774 3.54102 15.7285C3.54102 15.5793 3.60028 15.4362 3.70576 15.3307C3.81125 15.2252 3.95433 15.166 4.10352 15.166H19.5895C19.6633 15.166 19.7364 15.1806 19.8046 15.2089C19.8727 15.2371 19.9346 15.2786 19.9867 15.3308C20.0389 15.3831 20.0801 15.4451 20.1083 15.5134C20.1364 15.5816 20.1507 15.6547 20.1505 15.7285C20.1505 15.8773 20.0914 16.02 19.9862 16.1252C19.881 16.2304 19.7383 16.2895 19.5895 16.2895Z" fill="#FDC087"/>
<path d="M19.5895 19.4585H4.10352C3.95433 19.4585 3.81125 19.3992 3.70576 19.2937C3.60028 19.1882 3.54102 19.0451 3.54102 18.896C3.54141 18.747 3.60085 18.6043 3.7063 18.4992C3.81174 18.394 3.95459 18.335 4.10352 18.335H19.5895C19.7383 18.335 19.881 18.3941 19.9862 18.4993C20.0914 18.6045 20.1505 18.7472 20.1505 18.896C20.1507 18.9698 20.1364 19.0429 20.1083 19.1111C20.0801 19.1793 20.0389 19.2414 19.9867 19.2936C19.9346 19.3459 19.8727 19.3873 19.8046 19.4156C19.7364 19.4439 19.6633 19.4585 19.5895 19.4585Z" fill="#FDC087"/>
<path d="M13.4815 13.1235H4.10352C3.95459 13.1235 3.81174 13.0645 3.7063 12.9593C3.60085 12.8541 3.54141 12.7114 3.54102 12.5625C3.54102 12.4133 3.60028 12.2702 3.70576 12.1648C3.81125 12.0593 3.95433 12 4.10352 12H13.4815C13.6304 12.0004 13.7731 12.0598 13.8783 12.1653C13.9835 12.2707 14.0425 12.4136 14.0425 12.5625C14.0421 12.7112 13.9829 12.8536 13.8778 12.9587C13.7727 13.0639 13.6302 13.1231 13.4815 13.1235Z" fill="#FDC087"/>
<path d="M13.4815 9.95455H4.10352C3.95459 9.95455 3.81174 9.89547 3.7063 9.79031C3.60085 9.68514 3.54141 9.54248 3.54102 9.39355C3.54102 9.24437 3.60028 9.10127 3.70576 8.99578C3.81125 8.89029 3.95433 8.83105 4.10352 8.83105H13.4815C13.6304 8.83145 13.7731 8.89088 13.8783 8.99633C13.9835 9.10177 14.0425 9.24463 14.0425 9.39355C14.0421 9.54222 13.9829 9.68467 13.8778 9.7898C13.7727 9.89492 13.6302 9.95416 13.4815 9.95455Z" fill="#FDC087"/>
<path d="M27.5908 25.5908H8.83478C7.50433 25.5908 6.42578 26.6694 6.42578 27.9998V33.5918C6.42578 34.9223 7.50433 36.0008 8.83478 36.0008H27.5908C28.9212 36.0008 29.9998 34.9223 29.9998 33.5918V27.9998C29.9998 26.6694 28.9212 25.5908 27.5908 25.5908Z" fill="#FDC087"/>
<path d="M12.5792 32.0068V33.0973H11.4512V32.0068H12.5792Z" fill="#2B2E31"/>
<path d="M14.238 31.5149V33.0974H13.1475V28.5869H14.9145C15.45 28.5869 15.8595 28.7204 16.14 28.9859C16.2819 29.1254 16.3927 29.2933 16.4651 29.4787C16.5375 29.664 16.5698 29.8626 16.56 30.0614C16.5654 30.3236 16.5007 30.5826 16.3725 30.8114C16.2415 31.0351 16.0474 31.2152 15.8145 31.3289C15.5335 31.4617 15.2251 31.526 14.9145 31.5164L14.238 31.5149ZM15.45 30.0614C15.45 29.6614 15.231 29.4614 14.793 29.4614H14.238V30.6359H14.793C15.231 30.6399 15.45 30.4484 15.45 30.0614Z" fill="#2B2E31"/>
<path d="M20.8692 32.0107C20.6814 32.3518 20.3977 32.6303 20.0532 32.8117C19.6656 33.0102 19.2345 33.1087 18.7992 33.0982H17.0967V28.5878H18.7992C19.2348 28.5768 19.6665 28.6731 20.0562 28.8682C20.3997 29.0458 20.6827 29.3215 20.8692 29.6602C21.0644 30.0199 21.1626 30.4241 21.1542 30.8333C21.1623 31.2438 21.0641 31.6494 20.8692 32.0107ZM19.6962 31.7842C19.8181 31.6591 19.9126 31.5099 19.9735 31.3461C20.0345 31.1823 20.0606 31.0077 20.0502 30.8333C20.0607 30.659 20.0346 30.4846 19.9736 30.321C19.9127 30.1575 19.8182 30.0086 19.6962 29.8837C19.4234 29.6443 19.067 29.5225 18.7047 29.5447H18.1872V32.1217H18.7047C19.0667 32.1437 19.4228 32.0225 19.6962 31.7842Z" fill="#2B2E31"/>
<path d="M24.714 28.5869V29.4554H22.8645V30.4439H24.2925V31.2734H22.8645V33.0974H21.7725V28.5869H24.714Z" fill="#2B2E31"/>
<path d="M19.3152 8.83105H16.6632C16.2009 8.83105 15.8262 9.20579 15.8262 9.66805V12.3201C15.8262 12.7823 16.2009 13.1571 16.6632 13.1571H19.3152C19.7774 13.1571 20.1522 12.7823 20.1522 12.3201V9.66805C20.1522 9.20579 19.7774 8.83105 19.3152 8.83105Z" fill="#FDC087"/>
</svg>
