<svg viewBox="0 0 48 48" fill="none" xmlns="http://www.w3.org/2000/svg">
  <path fill-rule="evenodd" clip-rule="evenodd" d="M18.1258 17.6233C21.3701 20.8676 26.6301 20.8676 29.8744 17.6233C33.1188 14.379 33.1188 9.11893 29.8744 5.87463C26.6301 2.63033 21.3701 2.63033 18.1258 5.87463C14.8815 9.11893 14.8815 14.379 18.1258 17.6233ZM6.37646 29.3726C9.62078 32.6169 14.8808 32.6169 18.1251 29.3726C21.3695 26.1284 21.3695 20.8683 18.1251 17.6239C14.8808 14.3796 9.62078 14.3796 6.37646 17.6239C3.13216 20.8683 3.13216 26.1284 6.37646 29.3726ZM41.6237 29.3726C38.3794 32.6169 33.1194 32.6169 29.8751 29.3726C26.6307 26.1284 26.6307 20.8683 29.8751 17.6239C33.1194 14.3796 38.3794 14.3796 41.6237 17.6239C44.8681 20.8683 44.8681 26.1284 41.6237 29.3726ZM29.8744 29.3732C26.6301 26.1289 21.3701 26.1289 18.1258 29.3732C14.8815 32.6176 14.8815 37.8777 18.1258 41.1219C21.3701 44.3661 26.6301 44.3661 29.8744 41.1219C33.1188 37.8777 33.1188 32.6176 29.8744 29.3732Z" fill="white"/>
</svg>
